<svg width="28" height="30" viewBox="0 0 28 30" fill="none" xmlns="http://www.w3.org/2000/svg">
<g clip-path="url(#clip0_430_75726)">
<path d="M13.999 29.0971C21.731 29.0971 27.999 22.7856 27.999 15C27.999 7.21433 21.731 0.902832 13.999 0.902832C6.26704 0.902832 -0.000976562 7.21433 -0.000976562 15C-0.000976562 22.7856 6.26704 29.0971 13.999 29.0971Z" fill="#E76F51"/>
<path d="M15.3125 29.0971C22.3196 29.0971 28 22.7856 28 15C28 7.21433 22.3196 0.902832 15.3125 0.902832C8.30539 0.902832 2.625 7.21433 2.625 15C2.625 22.7856 8.30539 29.0971 15.3125 29.0971Z" fill="#FEAC00"/>
<path d="M15.313 26.8991C21.112 26.8991 25.813 21.5693 25.813 14.9947C25.813 8.4201 21.112 3.09033 15.313 3.09033C9.514 3.09033 4.81299 8.4201 4.81299 14.9947C4.81299 21.5693 9.514 26.8991 15.313 26.8991Z" stroke="white" stroke-width="0.875"/>
<path d="M17.6693 13.9161C17.3035 13.8006 16.7838 13.7813 16.2063 13.7428V13.2616C16.2063 12.8958 16.1485 12.1066 16.3795 11.7986C16.6875 11.4328 17.3035 11.6446 17.7463 11.5483C18.266 11.4328 18.3623 10.9901 18.3815 10.5281C18.4008 10.0661 17.958 9.64257 17.6115 9.50782C16.8415 9.19982 15.7828 9.31532 15.0513 9.64257C13.8385 10.2008 13.954 11.9718 13.877 13.7428C13.8 13.7428 13.3958 13.7621 13.338 13.7621C12.9338 13.7813 12.7028 13.7621 12.3755 14.0701C12.1253 14.2818 12.0483 15.0326 12.337 15.3406C12.6258 15.6293 13.338 15.5716 13.9348 15.5908C13.9348 16.9191 13.9155 18.4206 13.9155 19.7488V20.8653C13.9155 20.9423 13.9348 21.0578 13.954 21.1926C13.9925 21.3081 14.031 21.4621 14.0695 21.5776C14.1273 21.7123 14.2235 21.8278 14.3198 21.9048C14.4353 22.0011 14.5893 22.0588 14.7625 22.0973C15.0898 22.1743 15.3785 22.1358 15.6673 21.9818C15.7828 21.9048 15.8983 21.7893 15.9753 21.6353C15.9945 21.5968 16.0138 21.5583 16.0138 21.5198C16.033 21.5006 16.0523 21.4621 16.0715 21.4043C16.1293 21.2888 16.1678 21.1733 16.1678 21.0386C16.2063 20.7113 16.2255 20.4033 16.2255 20.0953V15.6486C16.649 15.6293 17.0918 15.6486 17.496 15.5523C17.881 15.4561 18.0735 15.2443 18.1505 14.8208C18.2083 14.4358 18.0928 14.0316 17.6693 13.9161Z" fill="white"/>
</g>
<defs>
<clipPath id="clip0_430_75726">
<rect width="28" height="28.1943" fill="white" transform="translate(0 0.902832)"/>
</clipPath>
</defs>
</svg>
