<svg width="38" height="38" viewBox="0 0 38 38" fill="none" xmlns="http://www.w3.org/2000/svg">
<g clip-path="url(#clip0_3_39731)">
<path d="M18.9997 38.0002C29.421 38.0002 37.8691 29.4935 37.8691 18.9999C37.8691 8.50626 29.421 -0.000488281 18.9997 -0.000488281C8.57839 -0.000488281 0.130249 8.50626 0.130249 18.9999C0.130249 29.4935 8.57839 38.0002 18.9997 38.0002Z" fill="#CA9735"/>
<path d="M20.7688 38.0002C30.2131 38.0002 37.8692 29.4935 37.8692 18.9999C37.8692 8.50626 30.2131 -0.000488281 20.7688 -0.000488281C11.3245 -0.000488281 3.66833 8.50626 3.66833 18.9999C3.66833 29.4935 11.3245 38.0002 20.7688 38.0002Z" fill="#E2B75D"/>
<path d="M20.7693 35.0371C28.5853 35.0371 34.9214 27.8536 34.9214 18.9922C34.9214 10.1308 28.5853 2.94727 20.7693 2.94727C12.9533 2.94727 6.61719 10.1308 6.61719 18.9922C6.61719 27.8536 12.9533 35.0371 20.7693 35.0371Z" stroke="white" stroke-width="1.17934"/>
<path d="M23.946 16.9737C23.453 16.818 22.7525 16.792 21.9741 16.7401V16.0915C21.9741 15.5985 21.8963 14.5348 22.2076 14.1196C22.6227 13.6267 23.453 13.9121 24.0498 13.7824C24.7503 13.6267 24.88 13.0299 24.906 12.4072C24.9319 11.7846 24.3352 11.2138 23.8681 11.0321C22.8303 10.617 21.4033 10.7727 20.4174 11.2138C18.7828 11.9662 18.9385 14.3532 18.8347 16.7401C18.7309 16.7401 18.1861 16.7661 18.1082 16.7661C17.5634 16.792 17.252 16.7661 16.811 17.1812C16.4737 17.4666 16.3699 18.4785 16.7591 18.8936C17.1482 19.2828 18.1082 19.205 18.9125 19.2309C18.9125 21.0212 18.8866 23.0449 18.8866 24.8351V26.34C18.8866 26.4438 18.9125 26.5994 18.9385 26.7811C18.9904 26.9367 19.0423 27.1443 19.0942 27.3C19.172 27.4816 19.3017 27.6373 19.4315 27.741C19.5871 27.8708 19.7947 27.9486 20.0282 28.0005C20.4693 28.1043 20.8585 28.0524 21.2476 27.8448C21.4033 27.741 21.559 27.5854 21.6628 27.3778C21.6887 27.3259 21.7147 27.274 21.7147 27.2221C21.7406 27.1962 21.7665 27.1443 21.7925 27.0665C21.8703 26.9108 21.9222 26.7551 21.9222 26.5735C21.9741 26.1324 22.0001 25.7173 22.0001 25.3022V19.3087C22.5709 19.2828 23.1676 19.3087 23.7125 19.179C24.2314 19.0493 24.4908 18.7639 24.5946 18.1931C24.6724 17.6742 24.5168 17.1293 23.946 16.9737Z" fill="white"/>
</g>
<defs>
<clipPath id="clip0_3_39731">
<rect width="37.7389" height="38.0007" fill="white" transform="translate(0.130615 -0.000488281)"/>
</clipPath>
</defs>
</svg>
