<svg width="39" height="38" viewBox="0 0 39 38" fill="none" xmlns="http://www.w3.org/2000/svg">
<g clip-path="url(#clip0_119_2650)">
<path d="M19.3201 38.0007C29.7414 38.0007 38.1896 29.494 38.1896 19.0004C38.1896 8.50675 29.7414 0 19.3201 0C8.89882 0 0.450684 8.50675 0.450684 19.0004C0.450684 29.494 8.89882 38.0007 19.3201 38.0007Z" fill="#835F99"/>
<path d="M21.0892 38.0007C30.5335 38.0007 38.1896 29.494 38.1896 19.0004C38.1896 8.50675 30.5335 0 21.0892 0C11.6449 0 3.98877 8.50675 3.98877 19.0004C3.98877 29.494 11.6449 38.0007 21.0892 38.0007Z" fill="#9E83C0"/>
<path d="M21.0901 35.0381C28.9061 35.0381 35.2422 27.8545 35.2422 18.9932C35.2422 10.1318 28.9061 2.94824 21.0901 2.94824C13.2741 2.94824 6.93799 10.1318 6.93799 18.9932C6.93799 27.8545 13.2741 35.0381 21.0901 35.0381Z" stroke="white" stroke-width="1.17934"/>
<path d="M24.2664 16.9741C23.7734 16.8185 23.0729 16.7925 22.2945 16.7406V16.092C22.2945 15.599 22.2167 14.5353 22.5281 14.1201C22.9432 13.6272 23.7734 13.9126 24.3702 13.7828C25.0707 13.6272 25.2004 13.0304 25.2264 12.4077C25.2523 11.785 24.6556 11.2142 24.1886 11.0326C23.1507 10.6175 21.7237 10.7732 20.7378 11.2142C19.1032 11.9667 19.2589 14.3536 19.1551 16.7406C19.0514 16.7406 18.5065 16.7666 18.4287 16.7666C17.8838 16.7925 17.5725 16.7666 17.1314 17.1817C16.7941 17.4671 16.6903 18.479 17.0795 18.8941C17.4687 19.2833 18.4287 19.2055 19.233 19.2314C19.233 21.0216 19.207 23.0454 19.207 24.8356V26.3405C19.207 26.4442 19.233 26.5999 19.2589 26.7815C19.3108 26.9372 19.3627 27.1448 19.4146 27.3004C19.4924 27.4821 19.6222 27.6377 19.7519 27.7415C19.9076 27.8712 20.1151 27.9491 20.3486 28.001C20.7897 28.1048 21.1789 28.0529 21.5681 27.8453C21.7237 27.7415 21.8794 27.5858 21.9832 27.3783C22.0091 27.3264 22.0351 27.2745 22.0351 27.2226C22.061 27.1967 22.087 27.1448 22.1129 27.0669C22.1908 26.9113 22.2427 26.7556 22.2427 26.574C22.2945 26.1329 22.3205 25.7178 22.3205 25.3026V19.3092C22.8913 19.2833 23.488 19.3092 24.0329 19.1795C24.5518 19.0498 24.8113 18.7644 24.915 18.1936C24.9929 17.6747 24.8372 17.1298 24.2664 16.9741Z" fill="white"/>
</g>
<defs>
<clipPath id="clip0_119_2650">
<rect width="37.7389" height="38.0007" fill="white" transform="translate(0.451172)"/>
</clipPath>
</defs>
</svg>
