<svg width="65" height="65" viewBox="0 0 65 65" fill="none" xmlns="http://www.w3.org/2000/svg">
<rect width="65" height="65" rx="32.5" fill="#C3373E"/>
<ellipse cx="35.5" cy="32.5" rx="29.5" ry="32.5" fill="#CF6262"/>
<path d="M59 32C59 47.0213 48.1513 59 35 59C21.8487 59 11 47.0213 11 32C11 16.9787 21.8487 5 35 5C48.1513 5 59 16.9787 59 32Z" fill="#CF6262" stroke="white" stroke-width="2"/>
<path d="M40.472 29.172C39.636 28.908 38.448 28.864 37.128 28.776V27.676C37.128 26.84 36.996 25.036 37.524 24.332C38.228 23.496 39.636 23.98 40.648 23.76C41.836 23.496 42.056 22.484 42.1 21.428C42.144 20.372 41.132 19.404 40.34 19.096C38.58 18.392 36.16 18.656 34.488 19.404C31.716 20.68 31.98 24.728 31.804 28.776C31.628 28.776 30.704 28.82 30.572 28.82C29.648 28.864 29.12 28.82 28.372 29.524C27.8 30.008 27.624 31.724 28.284 32.428C28.944 33.088 30.572 32.956 31.936 33C31.936 36.036 31.892 39.468 31.892 42.504V45.056C31.892 45.232 31.936 45.496 31.98 45.804C32.068 46.068 32.156 46.42 32.244 46.684C32.376 46.992 32.596 47.256 32.816 47.432C33.08 47.652 33.432 47.784 33.828 47.872C34.576 48.048 35.236 47.96 35.896 47.608C36.16 47.432 36.424 47.168 36.6 46.816C36.644 46.728 36.688 46.64 36.688 46.552C36.732 46.508 36.776 46.42 36.82 46.288C36.952 46.024 37.04 45.76 37.04 45.452C37.128 44.704 37.172 44 37.172 43.296V33.132C38.14 33.088 39.152 33.132 40.076 32.912C40.956 32.692 41.396 32.208 41.572 31.24C41.704 30.36 41.44 29.436 40.472 29.172Z" fill="white"/>
</svg>
