<svg width="44" height="44" viewBox="0 0 44 44" fill="none" xmlns="http://www.w3.org/2000/svg">
<path d="M24.8674 20.8751C24.3529 20.7126 23.6218 20.6855 22.8095 20.6314V19.9545C22.8095 19.44 22.7283 18.3298 23.0532 17.8966C23.4865 17.3822 24.3529 17.68 24.9757 17.5446C25.7068 17.3822 25.8421 16.7594 25.8692 16.1095C25.8963 15.4597 25.2735 14.864 24.7861 14.6745C23.7031 14.2412 22.2138 14.4037 21.1849 14.864C19.4791 15.6492 19.6415 18.1403 19.5332 20.6314C19.4249 20.6314 18.8563 20.6585 18.7751 20.6585C18.2065 20.6855 17.8815 20.6585 17.4212 21.0917C17.0692 21.3895 16.9609 22.4455 17.3671 22.8788C17.7732 23.2849 18.7751 23.2037 19.6145 23.2308C19.6145 25.0991 19.5874 27.2111 19.5874 29.0794V30.6498C19.5874 30.7582 19.6145 30.9206 19.6415 31.1102C19.6957 31.2726 19.7498 31.4892 19.804 31.6517C19.8852 31.8412 20.0206 32.0037 20.156 32.112C20.3185 32.2474 20.5351 32.3286 20.7788 32.3828C21.2391 32.4911 21.6452 32.4369 22.0514 32.2203C22.2138 32.112 22.3763 31.9495 22.4846 31.7329C22.5117 31.6788 22.5388 31.6246 22.5388 31.5705C22.5658 31.5434 22.5929 31.4892 22.62 31.408C22.7012 31.2455 22.7554 31.0831 22.7554 30.8935C22.8095 30.4332 22.8366 30 22.8366 29.5668V23.312C23.4323 23.2849 24.0551 23.312 24.6237 23.1766C25.1652 23.0412 25.436 22.7434 25.5443 22.1477C25.6255 21.6062 25.4631 21.0375 24.8674 20.8751Z" fill="white"/>
<rect x="5.425" y="5.425" width="33.15" height="33.15" rx="16.575" stroke="white" stroke-width="0.85"/>
<rect x="1" y="1" width="42" height="42" rx="21" stroke="white" stroke-width="2"/>
</svg>
