<svg width="44" height="36" viewBox="0 0 44 36" fill="none" xmlns="http://www.w3.org/2000/svg">
<mask id="path-1-inside-1_14_33083" fill="white">
<path fill-rule="evenodd" clip-rule="evenodd" d="M21.7872 2.83938e-06C21.6307 2.83938e-06 21.4776 0.0458441 21.3475 0.131728C21.2173 0.217612 21.1159 0.33968 21.056 0.4825C20.9961 0.625319 20.9804 0.782474 21.0109 0.934091C21.0415 1.08571 21.1168 1.22497 21.2275 1.33428C21.3111 1.41676 21.4118 1.47938 21.5222 1.51811C21.4608 1.90683 21.3104 2.88294 21.3104 3.08682C21.3104 3.32647 21.3742 3.46951 21.42 3.57232C21.4457 3.62998 21.4657 3.67498 21.4657 3.71727C21.4216 3.74303 21.3845 3.77912 21.3578 3.82236C21.3311 3.86561 21.3155 3.91467 21.3125 3.96524V4.26996C20.5332 4.19892 19.8013 3.99309 19.0672 3.78664C18.2376 3.55336 17.4054 3.31931 16.4988 3.27806C13.1589 3.12413 11.6919 4.38652 10.3311 5.55751C9.64832 6.14509 8.99226 6.70966 8.13972 7.06074C6.34788 7.59662 6.4628 5.26816 7.72687 6.05202C7.82051 6.05202 7.8652 5.99528 7.85669 5.8839C7.38638 5.1715 6.2585 5.67376 6.29255 6.47652C6.26301 7.13295 6.73778 7.60959 7.3724 7.79171L1.12269 28.1593H0.810798C0.704323 28.1593 0.59889 28.18 0.50052 28.2202C0.402149 28.2604 0.312767 28.3194 0.237478 28.3938C0.162188 28.4681 0.102465 28.5564 0.0617186 28.6535C0.0209721 28.7507 0 28.8548 0 28.9599V29.3088H15.3967V28.9599C15.3967 28.8543 15.3755 28.7496 15.3343 28.6521C15.2932 28.5545 15.2329 28.466 15.1569 28.3915C15.081 28.3171 14.9908 28.2583 14.8917 28.2184C14.7926 28.1785 14.6865 28.1584 14.5795 28.1593H14.2617L8.02983 7.84998C9.01513 7.79946 9.94332 7.16959 10.7813 6.60094L10.7813 6.6009C10.9487 6.48735 11.1124 6.37624 11.2723 6.27268C13.3833 4.77011 15.505 4.68185 16.9138 5.0349C17.4882 5.17978 17.9331 5.34564 18.3578 5.50398C19.1653 5.80498 19.8999 6.07883 21.3125 6.12978V6.60051C20.7732 6.85033 20.7226 7.52553 20.7214 7.79607C19.7358 8.11699 19.0442 8.86946 19.0442 9.74656C19.0442 10.5955 19.6922 11.3278 20.6275 11.6649V12.6694H19.7272C19.6029 12.67 19.4835 12.7174 19.3932 12.8018C19.3307 12.8604 19.2811 12.9311 19.2478 13.0096C19.2145 13.0881 19.198 13.1726 19.1996 13.2577C19.1992 13.3819 19.2346 13.5036 19.3017 13.6086C19.3473 13.6798 19.41 13.7387 19.4843 13.7801C19.5585 13.8215 19.642 13.8442 19.7272 13.846H20.0102V14.7098H19.9444C19.833 14.7116 19.7265 14.7552 19.6465 14.8317C19.5905 14.8841 19.5462 14.9474 19.5161 15.0175C19.4861 15.0877 19.4711 15.1632 19.472 15.2393C19.4707 15.3506 19.5033 15.4597 19.5656 15.5524C19.6059 15.6159 19.6617 15.6684 19.7279 15.7052C19.794 15.7419 19.8685 15.7616 19.9444 15.7625H20.0102V32.0345H16.3458C16.1735 32.0328 16.0054 32.0867 15.867 32.1879C15.7989 32.236 15.7429 32.2989 15.7034 32.3718C15.6639 32.4447 15.642 32.5256 15.6393 32.6082V32.8667H14.7157C14.6017 32.8645 14.491 32.9042 14.405 32.9781C14.371 33.007 14.3435 33.0428 14.3244 33.083C14.3054 33.1232 14.2951 33.1669 14.2943 33.2113V33.6316H14.0475C13.9479 33.6304 13.8502 33.6582 13.7666 33.7115C13.7173 33.7421 13.6764 33.7841 13.6475 33.8339C13.6186 33.8838 13.6025 33.9399 13.6006 33.9973V34.613H12.9239C12.8257 34.6121 12.7302 34.6448 12.6536 34.7055C12.6196 34.7322 12.5921 34.7661 12.5729 34.8046C12.5538 34.8431 12.5435 34.8853 12.5429 34.9282V36H31.0295V34.9282C31.0274 34.8874 31.0164 34.8476 30.9973 34.8113C30.9782 34.7751 30.9515 34.7433 30.9189 34.7181C30.8423 34.6574 30.7468 34.6247 30.6486 34.6256H29.9655V34.0099C29.9654 33.9324 29.9367 33.8577 29.8846 33.7997C29.8393 33.7483 29.7829 33.7075 29.7196 33.6803C29.6563 33.653 29.5876 33.64 29.5186 33.6421H29.2654V33.2218C29.2643 33.1677 29.2495 33.1148 29.2224 33.0678C29.1952 33.0208 29.1566 32.9813 29.11 32.9528C29.031 32.902 28.9383 32.8756 28.844 32.8772H27.9204V32.6187C27.9201 32.5372 27.9007 32.4569 27.8638 32.384C27.8269 32.3111 27.7734 32.2476 27.7076 32.1984C27.5672 32.0905 27.3939 32.0327 27.216 32.0345H23.5641V15.7625H23.6274C23.6944 15.7615 23.7603 15.7457 23.8203 15.7162C23.8803 15.6868 23.9329 15.6444 23.9742 15.5923C24.0571 15.4914 24.1015 15.365 24.0997 15.2351C24.1008 15.1053 24.0565 14.9791 23.9742 14.8779C23.9325 14.8264 23.8798 14.7846 23.8198 14.7556C23.7599 14.7265 23.6941 14.7109 23.6274 14.7098H23.5641V13.846H23.8443C23.9194 13.8453 23.9933 13.8279 24.0607 13.7951C24.1281 13.7624 24.1872 13.7152 24.2336 13.6569C24.3256 13.5438 24.3752 13.4028 24.3741 13.2577C24.3752 13.1127 24.3256 12.9717 24.2336 12.8585C24.1872 12.8002 24.1281 12.753 24.0607 12.7203C23.9933 12.6876 23.9194 12.6702 23.8443 12.6694H22.9466V11.665C23.8821 11.328 24.5304 10.5957 24.5304 9.74656C24.5304 8.86873 23.8375 8.11574 22.8507 7.79527C22.8504 7.53001 22.804 6.8443 22.2595 6.5921V6.13608C23.6722 6.08513 24.4067 5.81129 25.2142 5.51028C25.639 5.35194 26.0839 5.18608 26.6583 5.0412C28.067 4.68815 30.1887 4.77642 32.2998 6.27898C32.4615 6.38356 32.6271 6.49582 32.7963 6.61052C33.6331 7.1779 34.5579 7.80495 35.5402 7.85617L29.3103 28.1593H28.9929C28.7781 28.1598 28.5722 28.2444 28.4202 28.3944C28.2683 28.5444 28.1827 28.7478 28.1821 28.9599V29.3088H43.5852V28.9599C43.5852 28.7476 43.4997 28.5439 43.3477 28.3938C43.1956 28.2436 42.9894 28.1593 42.7744 28.1593H42.4613L36.2105 7.79482C36.8357 7.61038 37.311 7.13546 37.2795 6.48283C37.3135 5.67375 36.1857 5.1778 35.7111 5.8839C35.7111 5.99528 35.7473 6.04782 35.8409 6.05202C37.105 5.26816 37.2199 7.59662 35.4281 7.06074C34.5743 6.70946 33.9178 6.1447 33.2346 5.557C31.8741 4.38675 30.408 3.12557 27.069 3.27806C26.1671 3.31925 25.3363 3.55269 24.5073 3.78563C23.7714 3.99242 23.0368 4.19881 22.2553 4.26996V3.96524C22.2523 3.91467 22.2367 3.86561 22.21 3.82236C22.1833 3.77912 22.1462 3.74303 22.102 3.71727C22.102 3.67816 22.1212 3.63568 22.146 3.58056C22.192 3.47869 22.2574 3.33363 22.2574 3.08682C22.2574 2.88332 22.1075 1.91046 22.0459 1.52029C22.0608 1.51521 22.0755 1.50968 22.0901 1.50371C22.2347 1.44456 22.3583 1.34438 22.4453 1.21584C22.5323 1.08731 22.5787 0.936193 22.5787 0.781607C22.579 0.678887 22.5587 0.577126 22.519 0.482173C22.4793 0.387219 22.4211 0.300946 22.3475 0.228312C22.274 0.155678 22.1866 0.0981166 22.0904 0.0589356C21.9943 0.0197545 21.8912 -0.000274408 21.7872 2.83938e-06ZM13.8178 28.1593L7.90605 8.88944V26.4705C8.31659 26.5133 8.70662 26.6766 9.02453 26.9417C9.39756 27.2528 9.64728 27.684 9.72958 28.1593H13.8178ZM7.48043 26.47V8.8888L1.56338 28.1593H5.65431C5.73614 27.6842 5.98544 27.253 6.35812 26.9419C6.67691 26.6757 7.06843 26.5121 7.48043 26.47ZM33.845 28.1593H29.7542L35.6689 8.88822V26.4701C35.2576 26.5122 34.8667 26.6756 34.5484 26.9414C34.1756 27.2526 33.9264 27.684 33.845 28.1593ZM37.2143 26.9419C36.8962 26.6763 36.5056 26.5128 36.0945 26.4703V8.89045L42.0009 28.1593H37.9181C37.8363 27.6842 37.587 27.253 37.2143 26.9419ZM21.7872 1.22073C21.6992 1.22115 21.613 1.19575 21.5396 1.14775C21.4662 1.09975 21.4088 1.03132 21.3749 0.951114C21.3409 0.870912 21.3318 0.782551 21.3487 0.697231C21.3656 0.611911 21.4078 0.533469 21.4699 0.471846C21.532 0.410223 21.6112 0.368191 21.6975 0.351076C21.7839 0.333961 21.8734 0.342534 21.9548 0.375708C22.0361 0.408882 22.1057 0.465166 22.1547 0.537425C22.2036 0.609684 22.2298 0.694666 22.2298 0.781607C22.2306 0.839626 22.2198 0.897235 22.198 0.951105C22.1761 1.00497 22.1437 1.05403 22.1025 1.09545C22.0614 1.13687 22.0123 1.16983 21.9582 1.19241C21.9041 1.215 21.846 1.22676 21.7872 1.22704V1.22073Z"/>
</mask>
<path d="M21.3475 0.131728L21.8982 0.966404L21.8982 0.966401L21.3475 0.131728ZM21.7872 2.83938e-06V1.00001L21.7899 0.999999L21.7872 2.83938e-06ZM21.056 0.4825L21.9781 0.869314L21.9781 0.869303L21.056 0.4825ZM21.2275 1.33428L20.5249 2.04582L20.5249 2.04583L21.2275 1.33428ZM21.5222 1.51811L22.51 1.6741L22.6401 0.850523L21.8533 0.574497L21.5222 1.51811ZM21.42 3.57232L20.5066 3.97945L20.5066 3.97946L21.42 3.57232ZM21.4657 3.71727L21.9695 4.58111L22.4657 4.29172V3.71727H21.4657ZM21.3578 3.82236L20.5071 3.29671L20.5071 3.29674L21.3578 3.82236ZM21.3125 3.96524L20.3143 3.90617L20.3125 3.93568V3.96524H21.3125ZM21.3125 4.26996L21.2217 5.26583L22.3125 5.36526V4.26996H21.3125ZM19.0672 3.78664L18.7964 4.7493L19.0672 3.78664ZM16.4988 3.27806L16.4528 4.277L16.4534 4.27702L16.4988 3.27806ZM10.3311 5.55751L9.67885 4.79953V4.79953L10.3311 5.55751ZM8.13972 7.06074L8.42625 8.01881L8.47421 8.00447L8.5205 7.9854L8.13972 7.06074ZM7.72687 6.05202L7.19987 6.90188L7.44199 7.05202H7.72687V6.05202ZM7.85669 5.8839L8.85378 5.8077L8.83403 5.54926L8.69123 5.33296L7.85669 5.8839ZM6.29255 6.47652L7.29154 6.52149L7.2935 6.47782L7.29165 6.43415L6.29255 6.47652ZM7.3724 7.79171L8.3284 8.08505L8.62716 7.11142L7.64823 6.8305L7.3724 7.79171ZM1.12269 28.1593V29.1593H1.86186L2.0787 28.4526L1.12269 28.1593ZM0.50052 28.2202L0.879112 29.1458H0.879112L0.50052 28.2202ZM0.237478 28.3938L0.940123 29.1053L0.940132 29.1053L0.237478 28.3938ZM0.0617186 28.6535L0.98388 29.0403L0.0617186 28.6535ZM0 29.3088H-1V30.3088H0V29.3088ZM15.3967 29.3088V30.3088H16.3967V29.3088H15.3967ZM15.3967 28.9599L14.3967 28.9599V28.9599H15.3967ZM15.3343 28.6521L16.2557 28.2635L16.2557 28.2634L15.3343 28.6521ZM15.1569 28.3915L14.4571 29.1058L14.4571 29.1058L15.1569 28.3915ZM14.8917 28.2184L14.5185 29.1462L14.5185 29.1462L14.8917 28.2184ZM14.5795 28.1593V29.1593L14.5872 29.1592L14.5795 28.1593ZM14.2617 28.1593L13.3056 28.4526L13.5225 29.1593H14.2617V28.1593ZM8.02983 7.84998L7.97863 6.85129L6.69752 6.91697L7.07382 8.14333L8.02983 7.84998ZM10.7813 6.60094L11.3428 7.4284L11.346 7.42625L10.7813 6.60094ZM10.7813 6.6009L10.2198 5.77343L10.2166 5.77559L10.7813 6.6009ZM11.2723 6.27268L11.816 7.11196L11.8343 7.10007L11.8521 7.08738L11.2723 6.27268ZM16.9138 5.0349L17.1584 4.06527L17.1569 4.0649L16.9138 5.0349ZM18.3578 5.50398L18.0085 6.44099L18.0085 6.44099L18.3578 5.50398ZM21.3125 6.12978H22.3125V5.1652L21.3486 5.13043L21.3125 6.12978ZM21.3125 6.60051L21.7328 7.5079L22.3125 7.23938V6.60051H21.3125ZM20.7214 7.79607L21.031 8.74693L21.7181 8.52319L21.7214 7.80062L20.7214 7.79607ZM20.6275 11.6649H21.6275V10.9623L20.9666 10.7241L20.6275 11.6649ZM20.6275 12.6694V13.6694H21.6275V12.6694H20.6275ZM19.7272 12.6694V11.6694L19.7223 11.6694L19.7272 12.6694ZM19.3932 12.8018L18.7101 12.0714L18.7095 12.072L19.3932 12.8018ZM19.2478 13.0096L20.1682 13.4005L20.1683 13.4005L19.2478 13.0096ZM19.1996 13.2577L20.1996 13.261L20.1996 13.2504L20.1994 13.2399L19.1996 13.2577ZM19.3017 13.6086L18.4591 14.1471L18.4597 14.1481L19.3017 13.6086ZM19.7272 13.846L19.7055 14.8458L19.7164 14.846H19.7272V13.846ZM20.0102 13.846H21.0102V12.846H20.0102V13.846ZM20.0102 14.7098V15.7098H21.0102V14.7098H20.0102ZM19.9444 14.7098V13.7098H19.9364L19.9285 13.71L19.9444 14.7098ZM19.6465 14.8317L20.3301 15.5616L20.3377 15.5544L19.6465 14.8317ZM19.5161 15.0175L20.4355 15.411L20.4355 15.411L19.5161 15.0175ZM19.472 15.2393L20.472 15.251L20.4721 15.239L20.472 15.2271L19.472 15.2393ZM19.5656 15.5524L20.4103 15.0171L20.4032 15.0058L20.3957 14.9947L19.5656 15.5524ZM19.9444 15.7625L19.9325 16.7625H19.9444V15.7625ZM20.0102 15.7625H21.0102V14.7625H20.0102V15.7625ZM20.0102 32.0345V33.0345H21.0102V32.0345H20.0102ZM16.3458 32.0345L16.3361 33.0345H16.3458V32.0345ZM15.867 32.1879L16.4437 33.0049L16.4505 33.0001L16.4572 32.9952L15.867 32.1879ZM15.7034 32.3718L16.5827 32.8481L16.5827 32.8481L15.7034 32.3718ZM15.6393 32.6082L14.6398 32.5755L14.6393 32.5918V32.6082H15.6393ZM15.6393 32.8667V33.8667H16.6393V32.8667H15.6393ZM14.7157 32.8667L14.6964 33.8665L14.706 33.8667H14.7157V32.8667ZM14.405 32.9781L15.0535 33.7393L15.0567 33.7366L14.405 32.9781ZM14.2943 33.2113L13.2945 33.1939L13.2943 33.2026V33.2113H14.2943ZM14.2943 33.6316V34.6316H15.2943V33.6316H14.2943ZM14.0475 33.6316L14.0352 34.6316H14.0475V33.6316ZM13.7666 33.7115L14.2942 34.561L14.3039 34.5548L13.7666 33.7115ZM13.6006 33.9973L12.6011 33.9648L12.6006 33.981V33.9973H13.6006ZM13.6006 34.613V35.613H14.6006V34.613H13.6006ZM12.9239 34.613L12.9148 35.613H12.9239V34.613ZM12.6536 34.7055L13.2719 35.4914L13.2746 35.4893L12.6536 34.7055ZM12.5729 34.8046L11.6773 34.3597L11.6773 34.3597L12.5729 34.8046ZM12.5429 34.9282L11.543 34.914L11.5429 34.9211V34.9282H12.5429ZM12.5429 36H11.5429V37H12.5429V36ZM31.0295 36V37H32.0295V36H31.0295ZM31.0295 34.9282H32.0295V34.9018L32.0281 34.8754L31.0295 34.9282ZM30.9973 34.8113L31.8821 34.3454L31.8821 34.3454L30.9973 34.8113ZM30.9189 34.7181L30.2978 35.5019L30.3074 35.5094L30.9189 34.7181ZM30.6486 34.6256V35.6257L30.6577 35.6256L30.6486 34.6256ZM29.9655 34.6256H28.9655V35.6256H29.9655V34.6256ZM29.9655 34.0099H30.9655V34.0088L29.9655 34.0099ZM29.8846 33.7997L29.1349 34.4615L29.1404 34.4677L29.8846 33.7997ZM29.7196 33.6803L29.3241 34.5987L29.3241 34.5987L29.7196 33.6803ZM29.5186 33.6421V34.6421H29.5342L29.5497 34.6416L29.5186 33.6421ZM29.2654 33.6421H28.2654V34.6421H29.2654V33.6421ZM29.2654 33.2218H30.2654V33.212L30.2652 33.2022L29.2654 33.2218ZM29.2224 33.0678L30.0883 32.5677L30.0883 32.5677L29.2224 33.0678ZM29.11 32.9528L28.5687 33.7936L28.5788 33.8001L28.589 33.8064L29.11 32.9528ZM28.844 32.8772V33.8772H28.8524L28.8607 33.877L28.844 32.8772ZM27.9204 32.8772H26.9204V33.8772H27.9204V32.8772ZM27.9204 32.6187H28.9204L28.9204 32.6147L27.9204 32.6187ZM27.8638 32.384L26.9716 32.8357L26.9717 32.8357L27.8638 32.384ZM27.7076 32.1984L27.0982 32.9913L27.1093 32.9996L27.7076 32.1984ZM27.216 32.0345V33.0345L27.226 33.0344L27.216 32.0345ZM23.5641 32.0345H22.5641V33.0345H23.5641V32.0345ZM23.5641 15.7625V14.7625H22.5641V15.7625H23.5641ZM23.6274 15.7625V16.7625H23.6349L23.6424 16.7624L23.6274 15.7625ZM23.8203 15.7162L24.2608 16.614L23.8203 15.7162ZM23.9742 15.5923L23.2017 14.9573L23.1959 14.9644L23.1902 14.9715L23.9742 15.5923ZM24.0997 15.2351L23.0997 15.2267L23.0997 15.2378L23.0998 15.249L24.0997 15.2351ZM23.9742 14.8779L23.1968 15.507L23.1982 15.5087L23.9742 14.8779ZM23.8198 14.7556L23.3837 15.6554L23.8198 14.7556ZM23.6274 14.7098L23.6431 13.71L23.6352 13.7098H23.6274V14.7098ZM23.5641 14.7098H22.5641V15.7098H23.5641V14.7098ZM23.5641 13.846V12.846H22.5641V13.846H23.5641ZM23.8443 13.846V14.8461L23.8544 14.846L23.8443 13.846ZM24.0607 13.7951L23.6238 12.8956L23.6238 12.8956L24.0607 13.7951ZM24.2336 13.6569L23.4575 13.0263L23.4517 13.0335L24.2336 13.6569ZM24.3741 13.2577L23.3741 13.2501L23.374 13.2577L23.3741 13.2653L24.3741 13.2577ZM24.2336 12.8585L23.4517 13.4819L23.4575 13.4891L24.2336 12.8585ZM23.8443 12.6694L23.8544 11.6694H23.8443V12.6694ZM22.9466 12.6694H21.9466V13.6694H22.9466V12.6694ZM22.9466 11.665L22.6077 10.7242L21.9466 10.9624V11.665H22.9466ZM22.8507 7.79527L21.8507 7.79654L21.8516 8.52223L22.5418 8.74638L22.8507 7.79527ZM22.2595 6.5921H21.2595V7.23097L21.8392 7.49949L22.2595 6.5921ZM22.2595 6.13608L22.2235 5.13673L21.2595 5.1715V6.13608H22.2595ZM25.2142 5.51028L25.5635 6.44729H25.5635L25.2142 5.51028ZM26.6583 5.0412L26.4152 4.0712L26.4137 4.07157L26.6583 5.0412ZM32.2998 6.27898L31.7199 7.09369L31.7381 7.10662L31.7568 7.11873L32.2998 6.27898ZM32.7963 6.61052L32.2351 7.43821L32.2351 7.43822L32.7963 6.61052ZM35.5402 7.85617L36.4962 8.14952L36.8722 6.92427L35.5923 6.85753L35.5402 7.85617ZM29.3103 28.1593V29.1593H30.0494L30.2663 28.4526L29.3103 28.1593ZM28.9929 28.1593V27.1593L28.9904 27.1593L28.9929 28.1593ZM28.1821 28.9599L27.1821 28.9573V28.9599H28.1821ZM28.1821 29.3088H27.1821V30.3088H28.1821V29.3088ZM43.5852 29.3088V30.3088H44.5852V29.3088H43.5852ZM42.4613 28.1593L41.5053 28.4527L41.7222 29.1593H42.4613V28.1593ZM36.2105 7.79482L35.9275 6.83569L34.9578 7.12176L35.2545 8.08826L36.2105 7.79482ZM37.2795 6.48283L36.2804 6.44078L36.2785 6.48589L36.2807 6.53099L37.2795 6.48283ZM35.7111 5.8839L34.8811 5.32609L34.7111 5.57908V5.8839H35.7111ZM35.8409 6.05202L35.7961 7.05101L36.1051 7.06488L36.3679 6.90188L35.8409 6.05202ZM35.4281 7.06074L35.0476 7.98551L35.0937 8.00451L35.1415 8.01881L35.4281 7.06074ZM33.2346 5.557L32.5824 6.31511V6.31511L33.2346 5.557ZM27.069 3.27806L27.0234 2.2791L27.0234 2.2791L27.069 3.27806ZM24.5073 3.78563L24.7778 4.74835V4.74835L24.5073 3.78563ZM22.2553 4.26996H21.2553V5.36513L22.3459 5.26584L22.2553 4.26996ZM22.2553 3.96524H23.2553V3.93568L23.2535 3.90617L22.2553 3.96524ZM22.21 3.82236L23.0607 3.29674L23.0607 3.29671L22.21 3.82236ZM22.102 3.71727H21.102V4.29172L21.5983 4.58111L22.102 3.71727ZM22.146 3.58056L23.0577 3.99163L23.0577 3.99161L22.146 3.58056ZM22.0459 1.52029L21.7227 0.573958L20.927 0.845717L21.0581 1.67624L22.0459 1.52029ZM22.0901 1.50371L21.7115 0.578149L21.7115 0.578155L22.0901 1.50371ZM22.4453 1.21584L23.2735 1.77625L23.2735 1.77624L22.4453 1.21584ZM22.5787 0.781607L21.5787 0.778877V0.781607H22.5787ZM22.519 0.482173L23.4417 0.0966249L23.4417 0.0966091L22.519 0.482173ZM22.3475 0.228312L21.6449 0.939851V0.939851L22.3475 0.228312ZM22.0904 0.0589356L22.4678 -0.867134L22.0904 0.0589356ZM13.8178 28.1593V29.1593H15.1706L14.7738 27.866L13.8178 28.1593ZM7.90605 8.88944L8.86207 8.59614L6.90605 8.88944H7.90605ZM7.90605 26.4705H6.90605V27.3716L7.80234 27.4651L7.90605 26.4705ZM9.02453 26.9417L9.66498 26.1737L9.66498 26.1737L9.02453 26.9417ZM9.72958 28.1593L8.74424 28.3299L8.88786 29.1593H9.72958V28.1593ZM7.48043 26.47L7.58215 27.4648L8.48043 27.373V26.47H7.48043ZM7.48043 8.8888H8.48043L6.52448 8.59527L7.48043 8.8888ZM1.56338 28.1593L0.607427 27.8657L0.210245 29.1593H1.56338V28.1593ZM5.65431 28.1593V29.1593H6.49678L6.63979 28.329L5.65431 28.1593ZM6.35812 26.9419L6.99896 27.7095L6.35812 26.9419ZM29.7542 28.1593L28.7982 27.8658L28.4012 29.1593H29.7542V28.1593ZM33.845 28.1593V29.1593H34.6882L34.8306 28.3282L33.845 28.1593ZM35.6689 8.88822H36.6689L34.7129 8.59481L35.6689 8.88822ZM35.6689 26.4701L35.7709 27.4649L36.6689 27.3728V26.4701H35.6689ZM34.5484 26.9414L35.1892 27.709V27.709L34.5484 26.9414ZM36.0945 26.4703H35.0945V27.3721L35.9916 27.465L36.0945 26.4703ZM37.2143 26.9419L36.5734 27.7095V27.7095L37.2143 26.9419ZM36.0945 8.89045L37.0506 8.59738L35.0945 8.89045H36.0945ZM42.0009 28.1593V29.1593H43.3534L42.957 27.8662L42.0009 28.1593ZM37.9181 28.1593L36.9326 28.329L37.0756 29.1593H37.9181V28.1593ZM21.5396 1.14775L20.9923 1.98471L20.9923 1.98472L21.5396 1.14775ZM21.7872 1.22073H22.7872V0.215996L21.7825 0.220744L21.7872 1.22073ZM21.3749 0.951114L22.2956 0.560973L22.2956 0.560955L21.3749 0.951114ZM21.3487 0.697231L20.3678 0.502728L20.3678 0.502749L21.3487 0.697231ZM21.4699 0.471846L22.1742 1.1817L22.1742 1.18169L21.4699 0.471846ZM21.6975 0.351076L21.5031 -0.629829L21.503 -0.629828L21.6975 0.351076ZM21.9548 0.375708L21.5773 1.30172L21.5773 1.30173L21.9548 0.375708ZM22.1547 0.537425L21.3268 1.09832L21.3268 1.09834L22.1547 0.537425ZM22.2298 0.781607L21.2298 0.781629V0.788883L21.2299 0.796136L22.2298 0.781607ZM22.198 0.951105L21.2712 0.575424L21.2712 0.575453L22.198 0.951105ZM22.1025 1.09545L21.3932 0.390624L21.3932 0.39064L22.1025 1.09545ZM21.9582 1.19241L22.3433 2.11529L22.3433 2.11529L21.9582 1.19241ZM21.7872 1.22704H20.7872V2.23167L21.7918 2.22703L21.7872 1.22704ZM21.8982 0.966401C21.8643 0.9888 21.8257 1 21.7872 1V-0.999997C21.4357 -0.999997 21.091 -0.897112 20.7967 -0.702945L21.8982 0.966401ZM21.9781 0.869303C21.9608 0.910632 21.9323 0.943916 21.8982 0.966404L20.7967 -0.702949C20.5023 -0.508693 20.2709 -0.231272 20.1338 0.0956961L21.9781 0.869303ZM21.9912 0.736624C22.0003 0.781479 21.9955 0.827843 21.9781 0.869314L20.1338 0.0956856C19.9966 0.422795 19.9605 0.783469 20.0306 1.13156L21.9912 0.736624ZM21.9302 0.622743C21.9603 0.652459 21.9822 0.691851 21.9912 0.736624L20.0306 1.13156C20.1007 1.47956 20.2734 1.79749 20.5249 2.04582L21.9302 0.622743ZM21.8533 0.574497C21.8811 0.584258 21.9076 0.600396 21.9302 0.622739L20.5249 2.04583C20.7146 2.23311 20.9426 2.3745 21.1912 2.46172L21.8533 0.574497ZM22.3104 3.08682C22.3104 3.10575 22.3114 3.06667 22.3278 2.92884C22.3416 2.8134 22.3611 2.66857 22.3833 2.51272C22.4276 2.20198 22.4796 1.86651 22.51 1.6741L20.5345 1.36212C20.5035 1.55842 20.4496 1.90537 20.4033 2.23084C20.3635 2.51051 20.3104 2.89531 20.3104 3.08682H22.3104ZM22.3334 3.16519C22.3111 3.11525 22.3118 3.11418 22.312 3.11502C22.3123 3.11607 22.3121 3.11585 22.3118 3.11321C22.3114 3.1104 22.3104 3.10201 22.3104 3.08682H20.3104C20.3104 3.53643 20.4413 3.83282 20.5066 3.97945L22.3334 3.16519ZM22.4657 3.71727C22.4657 3.54059 22.4241 3.40038 22.3974 3.32314C22.3723 3.2507 22.3413 3.18307 22.3333 3.16517L20.5066 3.97946C20.5139 3.99581 20.5159 4.0004 20.517 4.00299C20.5178 4.00489 20.5135 3.99492 20.5076 3.97797C20.4973 3.94822 20.4657 3.85165 20.4657 3.71727H22.4657ZM22.2085 4.34801C22.1485 4.44509 22.0661 4.52479 21.9695 4.58111L20.962 2.85343C20.7771 2.96127 20.6205 3.11315 20.5071 3.29671L22.2085 4.34801ZM22.3108 4.02432C22.3039 4.13969 22.2685 4.25085 22.2085 4.34798L20.5071 3.29674C20.3936 3.48036 20.3271 3.68965 20.3143 3.90617L22.3108 4.02432ZM22.3125 4.26996V3.96524H20.3125V4.26996H22.3125ZM18.7964 4.7493C19.5173 4.95202 20.3363 5.18512 21.2217 5.26583L21.4033 3.27409C20.7301 3.21272 20.0852 3.03415 19.3379 2.82398L18.7964 4.7493ZM16.4534 4.27702C17.2275 4.31225 17.952 4.51181 18.7964 4.7493L19.3379 2.82398C18.5233 2.59491 17.5832 2.32637 16.5443 2.27909L16.4534 4.27702ZM10.9834 6.31549C11.6716 5.72328 12.2819 5.20465 13.0936 4.82808C13.886 4.46047 14.925 4.20659 16.4528 4.277L16.5448 2.27912C14.7327 2.1956 13.3682 2.49595 12.2519 3.0138C11.155 3.52269 10.3514 4.22075 9.67885 4.79953L10.9834 6.31549ZM8.5205 7.9854C9.5453 7.56339 10.3179 6.88822 10.9834 6.31549L9.67885 4.79953C8.97879 5.40196 8.43921 5.85593 7.75894 6.13607L8.5205 7.9854ZM8.25387 5.20215C7.76292 4.89771 7.08738 4.72672 6.47858 5.10477C5.91133 5.45702 5.74913 6.08005 5.79129 6.55231C5.83612 7.0545 6.11143 7.57222 6.63329 7.88019C7.16018 8.19112 7.79436 8.20778 8.42625 8.01881L7.8532 6.10266C7.58916 6.18163 7.56577 6.10819 7.64975 6.15775C7.7287 6.20434 7.77577 6.28942 7.78337 6.37446C7.78829 6.42958 7.77984 6.65096 7.53366 6.80383C7.24594 6.9825 7.05879 6.8144 7.19987 6.90188L8.25387 5.20215ZM6.85959 5.96011C6.85488 5.89845 6.84516 5.64779 7.04008 5.39663C7.26402 5.10807 7.56997 5.05202 7.72687 5.05202V7.05202C7.97741 7.05202 8.35253 6.9676 8.62009 6.62283C8.85864 6.31545 8.867 5.98073 8.85378 5.8077L6.85959 5.96011ZM7.29165 6.43415C7.29365 6.4813 7.27604 6.51833 7.26505 6.53342C7.26067 6.53944 7.25833 6.54091 7.25948 6.54003C7.25986 6.53973 7.2605 6.53929 7.26125 6.53886C7.26201 6.53842 7.26241 6.53827 7.26223 6.53834C7.26205 6.53841 7.26077 6.53893 7.25815 6.53958C7.25554 6.54024 7.25106 6.54118 7.24463 6.54181C7.23196 6.54307 7.20915 6.54337 7.17878 6.53618C7.14726 6.52872 7.11282 6.51432 7.08083 6.492C7.0485 6.46945 7.02995 6.44667 7.02214 6.43484L8.69123 5.33296C8.13145 4.48501 7.17363 4.41529 6.50874 4.68571C5.87214 4.94462 5.25469 5.60513 5.29345 6.5189L7.29165 6.43415ZM7.64823 6.8305C7.4833 6.78317 7.38505 6.71001 7.33875 6.65664C7.30259 6.61496 7.28894 6.57912 7.29154 6.52149L5.29356 6.43156C5.23664 7.69628 6.17486 8.48842 7.09657 8.75291L7.64823 6.8305ZM2.0787 28.4526L8.3284 8.08505L6.41639 7.49836L0.166686 27.8659L2.0787 28.4526ZM1.12269 27.1593H0.810798V29.1593H1.12269V27.1593ZM0.810798 27.1593C0.574745 27.1593 0.340703 27.2052 0.121928 27.2946L0.879112 29.1458C0.857078 29.1548 0.833901 29.1593 0.810798 29.1593V27.1593ZM0.121928 27.2946C-0.0968787 27.3841 -0.296482 27.5157 -0.465177 27.6822L0.940132 29.1053C0.922016 29.1232 0.901177 29.1367 0.879112 29.1458L0.121928 27.2946ZM-0.465168 27.6822C-0.633902 27.8489 -0.768428 28.0474 -0.860443 28.2667L0.98388 29.0403C0.973358 29.0654 0.958278 29.0874 0.940123 29.1053L-0.465168 27.6822ZM-0.860443 28.2667C-0.952466 28.4861 -1 28.7217 -1 28.9599H1C1 28.9879 0.99441 29.0152 0.98388 29.0403L-0.860443 28.2667ZM-1 28.9599V29.3088H1V28.9599H-1ZM0 30.3088H15.3967V28.3088H0V30.3088ZM16.3967 29.3088V28.9599H14.3967V29.3088H16.3967ZM16.3967 28.96C16.3967 28.7205 16.3487 28.4838 16.2557 28.2635L14.4129 29.0407C14.4023 29.0155 14.3967 28.988 14.3967 28.9599L16.3967 28.96ZM16.2557 28.2634C16.1628 28.0431 16.027 27.844 15.8568 27.6772L14.4571 29.1058C14.4388 29.0879 14.4236 29.0659 14.4129 29.0407L16.2557 28.2634ZM15.8568 27.6772C15.6865 27.5105 15.4853 27.3793 15.2649 27.2906L14.5185 29.1462C14.4964 29.1372 14.4754 29.1237 14.4571 29.1058L15.8568 27.6772ZM15.2649 27.2906C15.0445 27.202 14.809 27.1574 14.5717 27.1593L14.5872 29.1592C14.564 29.1594 14.5407 29.1551 14.5185 29.1462L15.2649 27.2906ZM14.5795 27.1593H14.2617V29.1593H14.5795V27.1593ZM7.07382 8.14333L13.3056 28.4526L15.2177 27.8659L8.98584 7.55663L7.07382 8.14333ZM10.2198 5.77348C9.31864 6.38498 8.63133 6.81783 7.97863 6.85129L8.08103 8.84867C9.39893 8.7811 10.568 7.95419 11.3428 7.4284L10.2198 5.77348ZM10.2166 5.77559L10.2166 5.77563L11.346 7.42625L11.346 7.42621L10.2166 5.77559ZM10.7286 5.4334C10.5581 5.54381 10.3854 5.66109 10.2198 5.77344L11.3429 7.42836C11.512 7.31361 11.6667 7.20868 11.816 7.11196L10.7286 5.4334ZM17.1569 4.0649C15.4894 3.64702 13.0622 3.77125 10.6924 5.45797L11.8521 7.08738C13.7044 5.76898 15.5206 5.71668 16.6707 6.0049L17.1569 4.0649ZM18.7071 4.56697C18.2817 4.40837 17.7912 4.22491 17.1584 4.06527L16.6692 6.00453C17.1851 6.13466 17.5845 6.28291 18.0085 6.44099L18.7071 4.56697ZM21.3486 5.13043C20.0931 5.08514 19.4754 4.85337 18.7071 4.56697L18.0085 6.44099C18.8552 6.7566 19.7067 7.07251 21.2765 7.12913L21.3486 5.13043ZM22.3125 6.60051V6.12978H20.3125V6.60051H22.3125ZM21.7214 7.80062C21.7215 7.76148 21.7235 7.71068 21.7305 7.65602C21.7376 7.60015 21.7483 7.55208 21.761 7.515C21.7739 7.47766 21.7832 7.46729 21.7793 7.47224C21.7719 7.48162 21.7546 7.49782 21.7328 7.5079L20.8922 5.69312C20.2929 5.97074 20.0034 6.47513 19.8693 6.86605C19.7378 7.24913 19.7222 7.61036 19.7214 7.79152L21.7214 7.80062ZM20.0442 9.74656C20.0442 9.44369 20.3048 8.98341 21.031 8.74693L20.4117 6.84521C19.1669 7.25057 18.0442 8.29523 18.0442 9.74656H20.0442ZM20.9666 10.7241C20.2859 10.4788 20.0442 10.0407 20.0442 9.74656H18.0442C18.0442 11.1504 19.0985 12.1768 20.2884 12.6056L20.9666 10.7241ZM21.6275 12.6694V11.6649H19.6275V12.6694H21.6275ZM19.7272 13.6694H20.6275V11.6694H19.7272V13.6694ZM20.0762 13.5322C19.9813 13.6209 19.8581 13.6688 19.7322 13.6694L19.7223 11.6694C19.3477 11.6713 18.9856 11.8138 18.7101 12.0714L20.0762 13.5322ZM20.1683 13.4005C20.1469 13.4509 20.1155 13.4954 20.0768 13.5316L18.7095 12.072C18.5458 12.2253 18.4154 12.4114 18.3274 12.6188L20.1683 13.4005ZM20.1994 13.2399C20.2004 13.2953 20.1897 13.3501 20.1682 13.4005L18.3274 12.6187C18.2393 12.8262 18.1957 13.0499 18.1997 13.2756L20.1994 13.2399ZM20.1443 13.0701C20.1802 13.1262 20.1998 13.1925 20.1996 13.261L18.1996 13.2544C18.1985 13.5713 18.289 13.881 18.4591 14.1471L20.1443 13.0701ZM19.9715 12.9068C20.0403 12.9452 20.0998 13.0006 20.1437 13.0691L18.4597 14.1481C18.5948 14.3589 18.7797 14.5321 18.997 14.6534L19.9715 12.9068ZM19.7489 12.8463C19.8263 12.8479 19.9028 12.8685 19.9715 12.9068L18.997 14.6534C19.2142 14.7746 19.4576 14.8404 19.7055 14.8458L19.7489 12.8463ZM20.0102 12.846H19.7272V14.846H20.0102V12.846ZM21.0102 14.7098V13.846H19.0102V14.7098H21.0102ZM19.9444 15.7098H20.0102V13.7098H19.9444V15.7098ZM20.3377 15.5544C20.2343 15.6532 20.0992 15.7075 19.9603 15.7097L19.9285 13.71C19.5668 13.7157 19.2187 13.8571 18.9553 14.109L20.3377 15.5544ZM20.4355 15.411C20.4108 15.4687 20.3746 15.5198 20.3301 15.5616L18.9629 14.1018C18.8064 14.2484 18.6816 14.426 18.5968 14.624L20.4355 15.411ZM20.472 15.2271C20.4727 15.2906 20.4602 15.3533 20.4355 15.411L18.5968 14.624C18.512 14.8221 18.4695 15.0357 18.4721 15.2515L20.472 15.2271ZM20.3957 14.9947C20.4459 15.0695 20.473 15.1588 20.472 15.251L18.4721 15.2277C18.4684 15.5424 18.5608 15.8498 18.7356 16.1101L20.3957 14.9947ZM20.213 14.8307C20.2922 14.8747 20.3604 14.9384 20.4103 15.0171L18.721 16.0876C18.8514 16.2935 19.0312 16.4622 19.2427 16.5796L20.213 14.8307ZM19.9563 14.7626C20.0456 14.7636 20.1338 14.7868 20.213 14.8307L19.2427 16.5796C19.4542 16.6969 19.6914 16.7595 19.9325 16.7624L19.9563 14.7626ZM20.0102 14.7625H19.9444V16.7625H20.0102V14.7625ZM21.0102 32.0345V15.7625H19.0102V32.0345H21.0102ZM16.3458 33.0345H20.0102V31.0345H16.3458V33.0345ZM16.4572 32.9952C16.4208 33.0217 16.3783 33.0348 16.3361 33.0344L16.3555 31.0345C15.9688 31.0308 15.5901 31.1516 15.2768 31.3806L16.4572 32.9952ZM16.5827 32.8481C16.5484 32.9114 16.5005 32.9647 16.4437 33.0049L15.2903 31.3709C15.0972 31.5072 14.9374 31.6864 14.8242 31.8954L16.5827 32.8481ZM16.6387 32.6409C16.6364 32.7139 16.617 32.7849 16.5827 32.8481L14.8242 31.8954C14.7109 32.1045 14.6476 32.3372 14.6398 32.5755L16.6387 32.6409ZM16.6393 32.8667V32.6082H14.6393V32.8667H16.6393ZM14.7157 33.8667H15.6393V31.8667H14.7157V33.8667ZM15.0567 33.7366C14.9551 33.8238 14.8266 33.869 14.6964 33.8665L14.735 31.8669C14.3768 31.8599 14.0269 31.9845 13.7533 32.2196L15.0567 33.7366ZM15.2279 33.5116C15.1861 33.5997 15.1265 33.6771 15.0535 33.7393L13.7565 32.2168C13.6155 32.337 13.5009 32.4859 13.4209 32.6544L15.2279 33.5116ZM15.2942 33.2287C15.2925 33.3271 15.2697 33.4235 15.2279 33.5116L13.4209 32.6544C13.341 32.8229 13.2977 33.0068 13.2945 33.1939L15.2942 33.2287ZM15.2943 33.6316V33.2113H13.2943V33.6316H15.2943ZM14.0475 34.6316H14.2943V32.6316H14.0475V34.6316ZM14.3039 34.5548C14.2229 34.6065 14.1295 34.6327 14.0352 34.6315L14.0598 32.6317C13.7664 32.6281 13.4776 32.7099 13.2292 32.8681L14.3039 34.5548ZM14.5122 34.3362C14.4584 34.4288 14.3832 34.5057 14.2942 34.5609L13.2389 32.862C13.0515 32.9784 12.8945 33.1394 12.7828 33.3317L14.5122 34.3362ZM14.6001 34.0298C14.5965 34.1382 14.5661 34.2435 14.5122 34.3362L12.7828 33.3317C12.671 33.5241 12.6084 33.7415 12.6011 33.9648L14.6001 34.0298ZM14.6006 34.613V33.9973H12.6006V34.613H14.6006ZM12.9239 35.613H13.6006V33.613H12.9239V35.613ZM13.2746 35.4893C13.1711 35.5713 13.044 35.6141 12.9148 35.613L12.9329 33.6131C12.6074 33.6101 12.2892 33.7183 12.0326 33.9217L13.2746 35.4893ZM13.4685 35.2495C13.4213 35.3445 13.3538 35.4269 13.2719 35.4914L12.0352 33.9196C11.8854 34.0375 11.7628 34.1876 11.6773 34.3597L13.4685 35.2495ZM13.5428 34.9424C13.5413 35.0495 13.5157 35.1544 13.4685 35.2495L11.6773 34.3597C11.5918 34.5318 11.5458 34.7212 11.543 34.914L13.5428 34.9424ZM13.5429 36V34.9282H11.5429V36H13.5429ZM31.0295 35H12.5429V37H31.0295V35ZM30.0295 34.9282V36H32.0295V34.9282H30.0295ZM30.1125 35.2772C30.0645 35.186 30.0364 35.0851 30.0309 34.9811L32.0281 34.8754C32.0183 34.6898 31.9683 34.5091 31.8821 34.3454L30.1125 35.2772ZM30.3074 35.5094C30.2272 35.4474 30.1605 35.3684 30.1125 35.2772L31.8821 34.3454C31.7959 34.1817 31.6757 34.0391 31.5304 33.9268L30.3074 35.5094ZM30.6577 35.6256C30.5285 35.6268 30.4013 35.5839 30.2978 35.5019L31.5399 33.9343C31.2832 33.7309 30.9651 33.6227 30.6396 33.6257L30.6577 35.6256ZM29.9655 35.6256H30.6486V33.6256H29.9655V35.6256ZM28.9655 34.0099V34.6256H30.9655V34.0099H28.9655ZM29.1404 34.4677C29.029 34.3436 28.9657 34.1813 28.9655 34.0109L30.9655 34.0088C30.9652 33.6836 30.8443 33.3718 30.6288 33.1318L29.1404 34.4677ZM29.3241 34.5987C29.2525 34.5679 29.1877 34.5213 29.1349 34.4615L30.6344 33.138C30.4908 32.9753 30.3132 32.8471 30.115 32.7618L29.3241 34.5987ZM29.5497 34.6416C29.4726 34.644 29.3956 34.6295 29.3241 34.5987L30.1151 32.7618C29.9169 32.6765 29.7026 32.6359 29.4875 32.6426L29.5497 34.6416ZM29.2654 34.6421H29.5186V32.6421H29.2654V34.6421ZM28.2654 33.2218V33.6421H30.2654V33.2218H28.2654ZM28.3564 33.5679C28.2994 33.4691 28.2678 33.3569 28.2656 33.2415L30.2652 33.2022C30.2608 32.9786 30.1997 32.7604 30.0883 32.5677L28.3564 33.5679ZM28.589 33.8064C28.4938 33.7483 28.4134 33.6666 28.3564 33.5679L30.0883 32.5677C29.977 32.375 29.8195 32.2143 29.631 32.0993L28.589 33.8064ZM28.8607 33.877C28.7582 33.8788 28.6565 33.8502 28.5687 33.7936L29.6514 32.112C29.4054 31.9537 29.1185 31.8725 28.8273 31.8773L28.8607 33.877ZM27.9204 33.8772H28.844V31.8772H27.9204V33.8772ZM26.9204 32.6187V32.8772H28.9204V32.6187H26.9204ZM26.9717 32.8357C26.9385 32.7701 26.9207 32.6972 26.9204 32.6227L28.9204 32.6147C28.9195 32.3772 28.863 32.1436 28.756 31.9322L26.9717 32.8357ZM27.1093 32.9996C27.0523 32.9571 27.0048 32.9012 26.9716 32.8357L28.756 31.9323C28.649 31.7209 28.4946 31.5381 28.306 31.3972L27.1093 32.9996ZM27.226 33.0344C27.1812 33.0349 27.1362 33.0204 27.0982 32.9913L28.317 31.4055C27.9982 31.1605 27.6066 31.0305 27.2061 31.0345L27.226 33.0344ZM23.5641 33.0345H27.216V31.0345H23.5641V33.0345ZM22.5641 15.7625V32.0345H24.5641V15.7625H22.5641ZM23.6274 14.7625H23.5641V16.7625H23.6274V14.7625ZM23.3798 14.8185C23.4526 14.7827 23.532 14.7638 23.6123 14.7626L23.6424 16.7624C23.8567 16.7591 24.068 16.7086 24.2608 16.614L23.3798 14.8185ZM23.1902 14.9715C23.2419 14.9062 23.3069 14.8542 23.3798 14.8185L24.2608 16.614C24.4538 16.5193 24.6239 16.3826 24.7582 16.2131L23.1902 14.9715ZM23.0998 15.249C23.0983 15.1412 23.1353 15.0381 23.2017 14.9573L24.7467 16.2273C24.9789 15.9448 25.1047 15.5888 25.0996 15.2212L23.0998 15.249ZM23.1982 15.5087C23.1346 15.4304 23.0989 15.3308 23.0997 15.2267L25.0997 15.2435C25.1027 14.8798 24.9784 14.5279 24.7501 14.2471L23.1982 15.5087ZM23.3837 15.6554C23.3121 15.6208 23.2481 15.5704 23.1968 15.507L24.7515 14.2489C24.6169 14.0824 24.4474 13.9485 24.256 13.8557L23.3837 15.6554ZM23.6116 15.7097C23.533 15.7085 23.4552 15.6901 23.3837 15.6554L24.256 13.8557C24.0645 13.7629 23.8553 13.7133 23.6431 13.71L23.6116 15.7097ZM23.5641 15.7098H23.6274V13.7098H23.5641V15.7098ZM22.5641 13.846V14.7098H24.5641V13.846H22.5641ZM23.8443 12.846H23.5641V14.846H23.8443V12.846ZM23.6238 12.8956C23.6898 12.8636 23.7616 12.8468 23.8341 12.8461L23.8544 14.846C24.0771 14.8437 24.2968 14.7922 24.4976 14.6947L23.6238 12.8956ZM23.4517 13.0335C23.4988 12.9745 23.5578 12.9277 23.6238 12.8956L24.4976 14.6947C24.6984 14.5972 24.8756 14.4559 25.0156 14.2803L23.4517 13.0335ZM23.3741 13.2653C23.3734 13.1769 23.4038 13.0925 23.4575 13.0263L25.0097 14.2875C25.2474 13.9951 25.3769 13.6287 25.374 13.2501L23.3741 13.2653ZM23.4575 13.4891C23.4038 13.423 23.3734 13.3386 23.3741 13.2501L25.374 13.2653C25.3769 12.8867 25.2474 12.5204 25.0097 12.2279L23.4575 13.4891ZM23.6238 13.6198C23.5578 13.5877 23.4988 13.5409 23.4517 13.4819L25.0156 12.2351C24.8756 12.0596 24.6984 11.9183 24.4976 11.8208L23.6238 13.6198ZM23.8341 13.6694C23.7617 13.6686 23.6899 13.6519 23.6238 13.6198L24.4976 11.8208C24.2968 11.7232 24.0771 11.6717 23.8544 11.6695L23.8341 13.6694ZM22.9466 13.6694H23.8443V11.6694H22.9466V13.6694ZM21.9466 11.665V12.6694H23.9466V11.665H21.9466ZM23.5304 9.74656C23.5304 10.0408 23.2886 10.4789 22.6077 10.7242L23.2856 12.6058C24.4757 12.177 25.5304 11.1506 25.5304 9.74656H23.5304ZM22.5418 8.74638C23.2692 8.9826 23.5304 9.44347 23.5304 9.74656H25.5304C25.5304 8.294 24.4058 7.24888 23.1596 6.84417L22.5418 8.74638ZM21.8392 7.49949C21.8172 7.48928 21.7998 7.47285 21.7926 7.46366C21.789 7.45905 21.7987 7.47013 21.8117 7.50859C21.8246 7.54673 21.8352 7.59577 21.8421 7.65219C21.8489 7.70734 21.8507 7.75813 21.8507 7.79654L23.8507 7.794C23.8505 7.61662 23.8367 7.25433 23.7066 6.86898C23.5741 6.47631 23.285 5.96505 22.6798 5.68472L21.8392 7.49949ZM21.2595 6.13608V6.5921H23.2595V6.13608H21.2595ZM24.8649 4.57327C24.0966 4.85967 23.479 5.09145 22.2235 5.13673L22.2956 7.13543C23.8653 7.07881 24.7169 6.7629 25.5635 6.44729L24.8649 4.57327ZM26.4137 4.07157C25.7808 4.23121 25.2904 4.41467 24.8649 4.57327L25.5635 6.44729C25.9875 6.28922 26.3869 6.14096 26.9028 6.01083L26.4137 4.07157ZM32.8797 5.46428C30.5099 3.77756 28.0826 3.65332 26.4152 4.0712L26.9013 6.01121C28.0515 5.72298 29.8676 5.77528 31.7199 7.09369L32.8797 5.46428ZM33.3575 5.78283C33.1901 5.66936 33.0153 5.55079 32.8428 5.43924L31.7568 7.11873C31.9077 7.21632 32.0641 7.32228 32.2351 7.43821L33.3575 5.78283ZM35.5923 6.85753C34.9418 6.82361 34.2572 6.39289 33.3574 5.78283L32.2351 7.43822C33.009 7.96291 34.1741 8.7863 35.4881 8.85482L35.5923 6.85753ZM30.2663 28.4526L36.4962 8.14952L34.5842 7.56283L28.3543 27.8659L30.2663 28.4526ZM28.9929 29.1593H29.3103V27.1593H28.9929V29.1593ZM29.1229 29.1059C29.087 29.1414 29.041 29.1591 28.9955 29.1593L28.9904 27.1593C28.5152 27.1605 28.0574 27.3473 27.7176 27.6828L29.1229 29.1059ZM29.1821 28.9626C29.182 29.0188 29.1592 29.0701 29.1229 29.1059L27.7176 27.6828C27.3774 28.0188 27.1834 28.4767 27.1822 28.9573L29.1821 28.9626ZM29.1821 29.3088V28.9599H27.1821V29.3088H29.1821ZM43.5852 28.3088H28.1821V30.3088H43.5852V28.3088ZM42.5852 28.9599V29.3088H44.5852V28.9599H42.5852ZM42.645 29.1053C42.6082 29.0689 42.5852 29.0169 42.5852 28.9599H44.5852C44.5852 28.4783 44.3913 28.0189 44.0503 27.6822L42.645 29.1053ZM42.7744 29.1593C42.7282 29.1593 42.6815 29.1413 42.645 29.1053L44.0503 27.6822C43.7098 27.346 43.2506 27.1593 42.7744 27.1593V29.1593ZM42.4613 29.1593H42.7744V27.1593H42.4613V29.1593ZM35.2545 8.08826L41.5053 28.4527L43.4173 27.8658L37.1664 7.50139L35.2545 8.08826ZM36.2807 6.53099C36.2832 6.58392 36.2712 6.61816 36.2346 6.66051C36.1878 6.7147 36.0894 6.78792 35.9275 6.83569L36.4934 8.75396C37.3977 8.48719 38.3393 7.69868 38.2783 6.43466L36.2807 6.53099ZM36.5411 6.44172C36.533 6.45368 36.5146 6.47581 36.4831 6.4975C36.4519 6.51892 36.4187 6.53258 36.3886 6.53962C36.3596 6.54639 36.3379 6.54606 36.3261 6.54488C36.32 6.54428 36.3158 6.54341 36.3134 6.54281C36.311 6.54221 36.3099 6.54174 36.3098 6.5417C36.3097 6.54165 36.3101 6.54182 36.3108 6.54223C36.3115 6.54265 36.3121 6.54304 36.3124 6.54328C36.3133 6.54401 36.3108 6.54236 36.3064 6.53619C36.295 6.52049 36.2785 6.48452 36.2804 6.44078L38.2786 6.52488C38.3171 5.60996 37.7018 4.94836 37.0623 4.68865C36.3979 4.41888 35.4442 4.48829 34.8811 5.32609L36.5411 6.44172ZM35.8858 5.05302C36.0225 5.05916 36.3222 5.11743 36.54 5.40698C36.7164 5.64138 36.7111 5.86897 36.7111 5.8839H34.7111C34.7111 6.01021 34.7239 6.31976 34.9418 6.60932C35.2011 6.95404 35.5657 7.04067 35.7961 7.05101L35.8858 5.05302ZM35.1415 8.01881C35.7734 8.20778 36.4076 8.19112 36.9345 7.88019C37.4564 7.57222 37.7317 7.0545 37.7765 6.55231C37.8187 6.08005 37.6565 5.45702 37.0892 5.10477C36.4804 4.72672 35.8049 4.89771 35.3139 5.20215L36.3679 6.90188C36.509 6.8144 36.3218 6.9825 36.0341 6.80383C35.7879 6.65096 35.7795 6.42957 35.7844 6.37446C35.792 6.28942 35.8391 6.20434 35.918 6.15775C36.002 6.10819 35.9786 6.18163 35.7146 6.10266L35.1415 8.01881ZM32.5824 6.31511C33.2485 6.88801 34.0215 7.56334 35.0476 7.98551L35.8086 6.13596C35.1272 5.85558 34.5871 5.40138 33.8867 4.79889L32.5824 6.31511ZM27.1146 4.27702C28.6421 4.20726 29.6808 4.4612 30.4729 4.82866C31.2844 5.20506 31.8944 5.72328 32.5824 6.31511L33.8867 4.79889C33.2143 4.22046 32.411 3.52297 31.3145 3.01435C30.1988 2.49678 28.8349 2.19637 27.0234 2.2791L27.1146 4.27702ZM24.7778 4.74835C25.6221 4.51112 26.345 4.31216 27.1146 4.27702L27.0234 2.2791C25.9892 2.32633 25.0506 2.59426 24.2368 2.82291L24.7778 4.74835ZM22.3459 5.26584C23.2336 5.18503 24.0551 4.95141 24.7778 4.74835L24.2368 2.82291C23.4876 3.03342 22.8401 3.21258 22.1646 3.27408L22.3459 5.26584ZM21.2553 3.96524V4.26996H23.2553V3.96524H21.2553ZM21.3593 4.34798C21.2993 4.25085 21.2638 4.13969 21.257 4.02432L23.2535 3.90617C23.2407 3.68965 23.1742 3.48036 23.0607 3.29674L21.3593 4.34798ZM21.5983 4.58111C21.5017 4.52479 21.4193 4.44509 21.3593 4.34801L23.0607 3.29671C22.9473 3.11315 22.7907 2.96127 22.6058 2.85343L21.5983 4.58111ZM21.2344 3.16949C21.227 3.18601 21.1965 3.25198 21.1716 3.32248C21.1454 3.39682 21.102 3.53812 21.102 3.71727H23.102C23.102 3.85731 23.0683 3.95782 23.0578 3.98736C23.0517 4.00474 23.0472 4.01515 23.0478 4.01361C23.0487 4.01146 23.0506 4.00733 23.0577 3.99163L21.2344 3.16949ZM21.2574 3.08682C21.2574 3.104 21.2563 3.11389 21.2557 3.11777C21.2552 3.12148 21.2549 3.12229 21.2552 3.12138C21.2554 3.12036 21.2564 3.12085 21.2344 3.16951L23.0577 3.99161C23.1249 3.84253 23.2574 3.54389 23.2574 3.08682H21.2574ZM21.0581 1.67624C21.0886 1.86938 21.1406 2.2044 21.1847 2.51445C21.2068 2.66995 21.2263 2.81438 21.24 2.92947C21.2564 3.0669 21.2574 3.10579 21.2574 3.08682H23.2574C23.2574 2.89554 23.2045 2.51173 23.1648 2.23266C23.1185 1.90786 23.0648 1.56136 23.0337 1.36433L21.0581 1.67624ZM21.7115 0.578155C21.7152 0.576623 21.719 0.575226 21.7227 0.573958L22.3691 2.46661C22.4025 2.45519 22.4358 2.44274 22.4687 2.42927L21.7115 0.578155ZM21.6171 0.655438C21.6415 0.619359 21.6749 0.593138 21.7115 0.578149L22.4687 2.42928C22.7946 2.29597 23.0752 2.0694 23.2735 1.77625L21.6171 0.655438ZM21.5787 0.781607C21.5787 0.735599 21.5926 0.691671 21.6171 0.655446L23.2735 1.77624C23.472 1.48295 23.5787 1.13679 23.5787 0.781607H21.5787ZM21.5963 0.86772C21.5847 0.839916 21.5786 0.809683 21.5787 0.778877L23.5787 0.784336C23.5793 0.548092 23.5327 0.314337 23.4417 0.0966249L21.5963 0.86772ZM21.6449 0.939851C21.6246 0.919882 21.6079 0.895484 21.5963 0.867736L23.4417 0.0966091C23.3508 -0.121046 23.2175 -0.31799 23.0502 -0.483227L21.6449 0.939851ZM21.7131 0.985005C21.6883 0.974924 21.665 0.959786 21.6449 0.939851L23.0502 -0.483227C22.8829 -0.64843 22.6848 -0.778691 22.4678 -0.867134L21.7131 0.985005ZM21.7899 0.999999C21.7638 1.00007 21.7378 0.995073 21.7131 0.985005L22.4678 -0.867134C22.2508 -0.955564 22.0186 -1.00062 21.7845 -0.999994L21.7899 0.999999ZM14.7738 27.866L8.86207 8.59614L6.95003 9.18274L12.8618 28.4526L14.7738 27.866ZM6.90605 8.88944V26.4705H8.90605V8.88944H6.90605ZM9.66498 26.1737C9.19319 25.7802 8.61588 25.5391 8.00976 25.4759L7.80234 27.4651C8.0173 27.4875 8.22006 27.5729 8.38408 27.7097L9.66498 26.1737ZM10.7149 27.9886C10.5918 27.2779 10.2188 26.6355 9.66498 26.1737L8.38408 27.7097C8.57635 27.87 8.70273 28.0902 8.74424 28.3299L10.7149 27.9886ZM13.8178 27.1593H9.72958V29.1593H13.8178V27.1593ZM8.48043 26.47V8.8888H6.48043V26.47H8.48043ZM6.52448 8.59527L0.607427 27.8657L2.51933 28.4528L8.43639 9.18233L6.52448 8.59527ZM5.65431 27.1593H1.56338V29.1593H5.65431V27.1593ZM5.71728 26.1742C5.16381 26.6362 4.79126 27.2787 4.66882 27.9895L6.63979 28.329C6.68103 28.0896 6.80706 27.8697 6.99896 27.7095L5.71728 26.1742ZM7.37871 25.4752C6.77023 25.5374 6.19054 25.7791 5.71728 26.1742L6.99896 27.7095C7.16329 27.5724 7.36663 27.4869 7.58215 27.4648L7.37871 25.4752ZM29.7542 29.1593H33.845V27.1593H29.7542V29.1593ZM34.7129 8.59481L28.7982 27.8658L30.7101 28.4527L36.6249 9.18164L34.7129 8.59481ZM36.6689 26.4701V8.88822H34.6689V26.4701H36.6689ZM35.1892 27.709C35.3531 27.5722 35.5559 27.4869 35.7709 27.4649L35.5669 25.4753C34.9592 25.5376 34.3802 25.7791 33.9075 26.1737L35.1892 27.709ZM34.8306 28.3282C34.8716 28.0889 34.9974 27.8691 35.1892 27.709L33.9075 26.1737C33.3537 26.636 32.9812 27.2791 32.8593 27.9904L34.8306 28.3282ZM35.9916 27.465C36.2066 27.4872 36.4095 27.5726 36.5734 27.7095L37.8551 26.1742C37.3828 25.7799 36.8046 25.5384 36.1975 25.4756L35.9916 27.465ZM35.0945 8.89045V26.4703H37.0945V8.89045H35.0945ZM42.957 27.8662L37.0506 8.59738L35.1385 9.18351L41.0448 28.4523L42.957 27.8662ZM37.9181 29.1593H42.0009V27.1593H37.9181V29.1593ZM36.5734 27.7095C36.7653 27.8697 36.8914 28.0896 36.9326 28.329L38.9036 27.9895C38.7812 27.2787 38.4086 26.6362 37.8551 26.1742L36.5734 27.7095ZM20.9923 1.98472C21.2304 2.14042 21.5087 2.22206 21.7919 2.22072L21.7825 0.220744C21.8896 0.220238 21.9955 0.251084 22.0868 0.310785L20.9923 1.98472ZM20.4541 1.34126C20.5661 1.6055 20.7541 1.82893 20.9923 1.98471L22.0868 0.310792C22.1783 0.37058 22.2516 0.457138 22.2956 0.560973L20.4541 1.34126ZM20.3678 0.502749C20.3118 0.784859 20.3421 1.07688 20.4541 1.34127L22.2956 0.560955C22.3397 0.664942 22.3517 0.780244 22.3296 0.891714L20.3678 0.502749ZM20.7655 -0.238009C20.5628 -0.0368798 20.4237 0.220681 20.3678 0.502728L22.3296 0.891735C22.3075 1.00314 22.2527 1.10382 22.1742 1.1817L20.7655 -0.238009ZM21.503 -0.629828C21.225 -0.574701 20.9681 -0.439007 20.7655 -0.237998L22.1742 1.18169C22.0959 1.25945 21.9974 1.31108 21.892 1.33198L21.503 -0.629828ZM22.3322 -0.550307C22.0694 -0.657445 21.781 -0.684943 21.5031 -0.629829L21.892 1.33198C21.7867 1.35287 21.6773 1.34251 21.5773 1.30172L22.3322 -0.550307ZM22.9826 -0.0234733C22.822 -0.260425 22.5952 -0.443119 22.3322 -0.55031L21.5773 1.30173C21.4771 1.26088 21.3894 1.19076 21.3268 1.09832L22.9826 -0.0234733ZM23.2298 0.781585C23.2298 0.493844 23.1432 0.213629 22.9825 -0.0234884L21.3268 1.09834C21.2641 1.00574 21.2298 0.895489 21.2298 0.781629L23.2298 0.781585ZM23.1247 1.32679C23.1967 1.14924 23.2324 0.95896 23.2297 0.767078L21.2299 0.796136C21.2288 0.720291 21.2429 0.645233 21.2712 0.575424L23.1247 1.32679ZM22.8119 1.80028C22.9462 1.66509 23.0528 1.50426 23.1247 1.32676L21.2712 0.575453C21.2995 0.505692 21.3411 0.442979 21.3932 0.390624L22.8119 1.80028ZM22.3433 2.11529C22.5183 2.04228 22.6777 1.93541 22.8119 1.80026L21.3932 0.39064C21.4451 0.338329 21.5064 0.297374 21.5731 0.269535L22.3433 2.11529ZM21.7918 2.22703C21.981 2.22615 22.1684 2.18828 22.3433 2.11529L21.5731 0.269531C21.6398 0.241711 21.711 0.227377 21.7826 0.227046L21.7918 2.22703ZM20.7872 1.22073V1.22704H22.7872V1.22073H20.7872Z" fill="white" mask="url(#path-1-inside-1_14_33083)"/>
</svg>
