<svg width="40" height="40" viewBox="0 0 40 40" fill="none" xmlns="http://www.w3.org/2000/svg">
<path d="M35.5556 4.44444V35.5556H4.44444V4.44444H35.5556ZM38 0H2C0.888889 0 0 0.888889 0 2V38C0 38.8889 0.888889 40 2 40H38C38.8889 40 40 38.8889 40 38V2C40 0.888889 38.8889 0 38 0ZM17.7778 8.88889H31.1111V13.3333H17.7778V8.88889ZM17.7778 17.7778H31.1111V22.2222H17.7778V17.7778ZM17.7778 26.6667H31.1111V31.1111H17.7778V26.6667ZM8.88889 8.88889H13.3333V13.3333H8.88889V8.88889ZM8.88889 17.7778H13.3333V22.2222H8.88889V17.7778ZM8.88889 26.6667H13.3333V31.1111H8.88889V26.6667Z" fill="white"/>
</svg>
