<svg width="37" height="30" viewBox="0 0 37 30" fill="none" xmlns="http://www.w3.org/2000/svg">
<g clip-path="url(#clip0_581_64602)">
<path d="M19.6383 26.9921V10.6211H16.6772V26.9921H19.6383Z" fill="#D1B489"/>
<path d="M19.124 10.7206V7.76855H17.1914V10.7206H19.124Z" fill="#D1B489"/>
<path d="M16.4418 10.5508H19.8726C19.9352 10.5514 19.9968 10.5659 20.053 10.5932C20.1091 10.6204 20.1584 10.6598 20.1971 10.7084C20.2737 10.8027 20.315 10.9201 20.3141 11.041C20.315 11.1619 20.2737 11.2794 20.1971 11.3737C20.1584 11.4223 20.1091 11.4616 20.053 11.4889C19.9968 11.5162 19.9352 11.5307 19.8726 11.5313H16.4418C16.3707 11.5297 16.3011 11.5109 16.2393 11.4764C16.1774 11.4418 16.1251 11.3927 16.0871 11.3334C16.0312 11.2459 16.0017 11.1445 16.002 11.041V11.041C16.0008 10.9701 16.0145 10.8997 16.0422 10.8343C16.07 10.7689 16.1113 10.7099 16.1634 10.6611C16.2386 10.5907 16.3381 10.5513 16.4418 10.5508V10.5508Z" fill="#D1B489"/>
<path d="M16.6227 12.251H19.6918C19.7475 12.2519 19.8022 12.2649 19.8522 12.2891C19.9022 12.3133 19.9461 12.3481 19.9808 12.391C20.0494 12.4754 20.0864 12.5805 20.0854 12.6887V12.6887C20.0869 12.797 20.0499 12.9023 19.9808 12.9864C19.9464 13.0298 19.9026 13.0651 19.8526 13.0896C19.8026 13.1142 19.7477 13.1273 19.6918 13.1282H16.6227C16.5594 13.1274 16.4974 13.111 16.4422 13.0804C16.3871 13.0498 16.3406 13.006 16.3071 12.9531C16.2551 12.8758 16.228 12.7849 16.229 12.6922V12.6922C16.2283 12.6287 16.2408 12.5658 16.2658 12.5074C16.2908 12.4489 16.3278 12.3962 16.3744 12.3525C16.4411 12.2888 16.5299 12.2525 16.6227 12.251V12.251Z" fill="#D1B489"/>
<path d="M25.7659 28.9215C25.7021 28.8709 25.6226 28.8437 25.5408 28.8444H24.9716V28.3314C24.9715 28.2669 24.9476 28.2046 24.9042 28.1563C24.8664 28.1135 24.8195 28.0795 24.7667 28.0568C24.714 28.0341 24.6568 28.0232 24.5993 28.025H24.3883V27.6748C24.3874 27.6298 24.3751 27.5857 24.3525 27.5465C24.3298 27.5074 24.2977 27.4744 24.2588 27.4507C24.193 27.4083 24.1158 27.3864 24.0372 27.3877H23.2677V27.1723C23.2674 27.1044 23.2513 27.0375 23.2205 26.9768C23.1898 26.916 23.1452 26.8631 23.0904 26.8222C22.9734 26.7322 22.829 26.6841 22.6808 26.6856H13.624C13.4805 26.6842 13.3404 26.7291 13.2251 26.8134C13.1683 26.8535 13.1217 26.9059 13.0888 26.9666C13.0559 27.0273 13.0376 27.0947 13.0354 27.1636V27.3789H12.2659C12.1709 27.3771 12.0786 27.4102 12.007 27.4717C11.9786 27.4959 11.9558 27.5257 11.9399 27.5592C11.924 27.5927 11.9154 27.6291 11.9148 27.6661V28.0163H11.7091C11.6262 28.0153 11.5448 28.0384 11.4751 28.0828C11.434 28.1083 11.4 28.1433 11.3759 28.1848C11.3518 28.2264 11.3383 28.2731 11.3368 28.3209V28.8339H10.7729C10.6911 28.8332 10.6116 28.8604 10.5478 28.911C10.5195 28.9333 10.4965 28.9615 10.4806 28.9936C10.4646 29.0256 10.4561 29.0608 10.4556 29.0966V29.9895H25.8581V29.0966C25.8563 29.0626 25.8472 29.0294 25.8313 28.9992C25.8154 28.969 25.7931 28.9425 25.7659 28.9215Z" fill="#D1B489"/>
<path d="M29.7589 4.89743C29.7589 4.99023 29.7891 5.034 29.8671 5.0375C30.9203 4.38441 31.016 6.32442 29.5231 5.87794C27.3954 5.00249 26.7376 2.53546 22.5585 2.72631C21.1401 2.79109 19.9326 3.42667 18.5479 3.55274V3.29885C18.5454 3.25672 18.5324 3.21584 18.5102 3.17981C18.4879 3.14378 18.457 3.11371 18.4202 3.09225C18.4202 2.99945 18.5496 2.88389 18.5496 2.56698C18.5496 2.37963 18.3972 1.40963 18.3599 1.17676H17.9504C17.9131 1.40963 17.7606 2.37963 17.7606 2.56698C17.7606 2.87864 17.8901 2.9942 17.8901 3.09225C17.8533 3.11371 17.8224 3.14378 17.8001 3.17981C17.7779 3.21584 17.7649 3.25672 17.7624 3.29885V3.55274C16.3794 3.42667 15.1755 2.79109 13.7518 2.72631C9.57265 2.53371 8.91307 5.00249 6.78718 5.87794C5.29426 6.32442 5.39 4.38441 6.4432 5.0375C6.52122 5.0375 6.55845 4.99023 6.55136 4.89743C6.15951 4.30387 5.21979 4.72234 5.24816 5.39119C5.22334 5.94272 5.62582 6.34193 6.16129 6.49076C7.34924 6.75865 8.45385 5.83242 9.39712 5.22135C11.156 3.96945 12.9237 3.89591 14.0975 4.19006C15.4858 4.54025 15.9663 5.03751 17.7624 5.10229V5.49449C17.2181 5.74662 17.2713 6.51877 17.2713 6.5818H17.2394C17.2053 6.58191 17.1718 6.58951 17.1411 6.60405C17.1104 6.61859 17.0834 6.6397 17.0621 6.66585C17.0235 6.71628 17.0027 6.77775 17.0027 6.84094C17.0027 6.90413 17.0235 6.96559 17.0621 7.01603C17.0834 7.04218 17.1104 7.06329 17.1411 7.07783C17.1718 7.09237 17.2053 7.09996 17.2394 7.10007H19.0745C19.1299 7.09949 19.1831 7.07823 19.2234 7.04054C19.2514 7.0145 19.2736 6.983 19.2885 6.94803C19.3035 6.91306 19.3109 6.87539 19.3103 6.83743C19.3102 6.78222 19.2942 6.72817 19.2642 6.6816C19.2442 6.64948 19.2164 6.62285 19.1832 6.60419C19.15 6.58552 19.1126 6.57541 19.0745 6.5748H19.0426C19.0426 6.51176 19.0958 5.73962 18.5514 5.48749V5.10754C20.3475 5.04276 20.828 4.5455 22.2163 4.19532C23.3901 3.90116 25.1578 3.97471 26.9167 5.2266C27.8618 5.83767 28.9646 6.7639 30.1525 6.49601C30.6845 6.34718 31.0923 5.94798 31.0657 5.39644C31.094 4.72234 30.1543 4.30913 29.7589 4.89743Z" fill="#D1B489"/>
<path d="M18.1581 -0.00536873C18.0277 -0.00536873 17.9001 0.0328323 17.7917 0.104402C17.6832 0.175972 17.5987 0.277696 17.5487 0.396712C17.4988 0.515728 17.4858 0.646691 17.5112 0.773038C17.5367 0.899385 17.5995 1.01544 17.6917 1.10653C17.784 1.19762 17.9015 1.25966 18.0294 1.28479C18.1574 1.30992 18.29 1.29702 18.4105 1.24772C18.531 1.19843 18.6341 1.11494 18.7065 1.00783C18.779 0.90072 18.8177 0.77479 18.8177 0.645968C18.8179 0.560368 18.801 0.475568 18.768 0.396439C18.7349 0.317311 18.6863 0.245417 18.625 0.184889C18.5637 0.124361 18.4909 0.0763928 18.4108 0.0437419C18.3307 0.011091 18.2448 -0.00559977 18.1581 -0.00536873V-0.00536873ZM18.1581 1.01191C18.0847 1.01225 18.0129 0.991087 17.9518 0.951088C17.8906 0.91109 17.8428 0.85406 17.8145 0.787224C17.7862 0.720389 17.7786 0.646755 17.7927 0.575655C17.8068 0.504555 17.8419 0.439187 17.8937 0.387834C17.9454 0.336481 18.0115 0.301455 18.0834 0.287192C18.1553 0.27293 18.2299 0.280074 18.2977 0.307719C18.3656 0.335364 18.4235 0.382267 18.4643 0.442483C18.5051 0.502699 18.5269 0.573518 18.5269 0.645968C18.5276 0.694317 18.5186 0.742325 18.5004 0.787216C18.4822 0.832107 18.4552 0.87299 18.4209 0.907505C18.3866 0.942021 18.3457 0.969484 18.3006 0.988305C18.2555 1.00713 18.2071 1.01693 18.1581 1.01716V1.01191Z" fill="#D1B489"/>
<path d="M1.07963 23.7684C1.06258 23.7708 1.04526 23.7708 1.02821 23.7684C0.983723 23.7546 0.9465 23.7242 0.924599 23.6835C0.902698 23.6429 0.897881 23.5954 0.911191 23.5513L6.24455 6.17003C6.25578 6.13434 6.27827 6.10315 6.30873 6.08099C6.3392 6.05883 6.37604 6.04688 6.41388 6.04688C6.45172 6.04688 6.48857 6.05883 6.51903 6.08099C6.5495 6.10315 6.57199 6.13434 6.58321 6.17003L11.9166 23.5513C11.927 23.5946 11.9202 23.6402 11.8978 23.6789C11.8753 23.7175 11.8387 23.7462 11.7956 23.7591C11.7524 23.7721 11.7058 23.7683 11.6654 23.7485C11.625 23.7288 11.5937 23.6945 11.5779 23.6528L6.41477 6.82312L1.24985 23.6441C1.23879 23.6801 1.21625 23.7117 1.18559 23.7341C1.15493 23.7564 1.11777 23.7685 1.07963 23.7684Z" fill="#D1B489"/>
<path d="M6.4151 23.7685C6.36807 23.7685 6.32298 23.7501 6.28973 23.7172C6.25647 23.6844 6.23779 23.6399 6.23779 23.5934V6.2122C6.23779 6.16576 6.25647 6.12123 6.28973 6.08839C6.32298 6.05555 6.36807 6.03711 6.4151 6.03711C6.46212 6.03711 6.50722 6.05555 6.54047 6.08839C6.57373 6.12123 6.59241 6.16576 6.59241 6.2122V23.5934C6.59241 23.6399 6.57373 23.6844 6.54047 23.7172C6.50722 23.7501 6.46212 23.7685 6.4151 23.7685Z" fill="#D1B489"/>
<path d="M35.2343 23.7685C35.195 23.7702 35.1562 23.7589 35.1241 23.7364C35.092 23.7138 35.0684 23.6814 35.057 23.6442L29.9009 6.82326L24.736 23.6512C24.7202 23.6929 24.6889 23.7272 24.6485 23.7469C24.6081 23.7667 24.5615 23.7705 24.5184 23.7575C24.4752 23.7446 24.4387 23.7159 24.4162 23.6773C24.3937 23.6386 24.387 23.593 24.3973 23.5497L29.7307 6.16842C29.7421 6.1312 29.7657 6.09878 29.7978 6.07627C29.8299 6.05376 29.8687 6.04244 29.908 6.04411C29.9459 6.04437 29.9826 6.05658 30.0129 6.07894C30.0432 6.10131 30.0655 6.13267 30.0765 6.16842L35.4116 23.5497C35.4248 23.594 35.4198 23.6417 35.3975 23.6824C35.3753 23.7231 35.3376 23.7534 35.2928 23.7668C35.2735 23.7705 35.2538 23.7711 35.2343 23.7685Z" fill="#D1B489"/>
<path d="M29.9009 23.7685C29.8539 23.7685 29.8088 23.7501 29.7756 23.7172C29.7423 23.6844 29.7236 23.6399 29.7236 23.5934V6.2122C29.7236 6.16576 29.7423 6.12123 29.7756 6.08839C29.8088 6.05555 29.8539 6.03711 29.9009 6.03711C29.948 6.03711 29.9931 6.05555 30.0263 6.08839C30.0596 6.12123 30.0782 6.16576 30.0782 6.2122V23.5934C30.0782 23.6399 30.0596 23.6844 30.0263 23.7172C29.9931 23.7501 29.948 23.7685 29.9009 23.7685Z" fill="#D1B489"/>
<path d="M18.158 9.87837C19.4203 9.87837 20.4435 9.08898 20.4435 8.11521C20.4435 7.14144 19.4203 6.35205 18.158 6.35205C16.8958 6.35205 15.8726 7.14144 15.8726 8.11521C15.8726 9.08898 16.8958 9.87837 18.158 9.87837Z" fill="#D1B489"/>
<path d="M31.5976 23.457C31.5294 23.0612 31.3217 22.7019 31.0112 22.4427C30.7007 22.1835 30.3074 22.041 29.9008 22.0405C29.4941 22.0407 29.1006 22.183 28.79 22.4423C28.4794 22.7016 28.2718 23.061 28.2039 23.457H24.1614C23.9824 23.4575 23.8108 23.5279 23.6842 23.6529C23.5576 23.7779 23.4863 23.9473 23.4858 24.1241V24.4148H36.3192V24.1241C36.3192 23.9472 36.2481 23.7775 36.1214 23.6524C35.9947 23.5273 35.8229 23.457 35.6437 23.457H31.5976Z" fill="#D1B489"/>
<path d="M8.1118 23.457C8.04324 23.061 7.83518 22.7017 7.52437 22.4425C7.21357 22.1834 6.82001 22.041 6.41321 22.0405V22.0405C6.00662 22.041 5.6133 22.1835 5.30279 22.4427C4.99228 22.7019 4.78458 23.0612 4.71639 23.457H0.680907C0.592195 23.457 0.504351 23.4743 0.422391 23.5078C0.340431 23.5413 0.265961 23.5905 0.203231 23.6524C0.140502 23.7143 0.0907422 23.7879 0.0567934 23.8688C0.0228445 23.9498 0.00537109 24.0365 0.00537109 24.1241V24.4148H12.8335V24.1241C12.8335 24.0361 12.8158 23.9489 12.7815 23.8676C12.7473 23.7863 12.697 23.7125 12.6337 23.6505C12.5704 23.5885 12.4953 23.5395 12.4128 23.5063C12.3302 23.4731 12.2418 23.4563 12.1526 23.457H8.1118Z" fill="#D1B489"/>
</g>
<defs>
<clipPath id="clip0_581_64602">
<rect width="36.3158" height="30" fill="white"/>
</clipPath>
</defs>
</svg>
