<svg width="44" height="40" viewBox="0 0 44 40" fill="none" xmlns="http://www.w3.org/2000/svg">
<path d="M38.842 8.42105H34.2525C34.4841 7.76842 34.6315 7.05263 34.6315 6.31579C34.6315 2.82105 31.8104 0 28.3157 0C26.1052 0 24.1894 1.13684 23.0525 2.84211L21.9999 4.25263L20.9473 2.82105C19.8104 1.13684 17.8946 0 15.6841 0C12.1894 0 9.36832 2.82105 9.36832 6.31579C9.36832 7.05263 9.51569 7.76842 9.74727 8.42105H5.15779C2.82095 8.42105 0.968318 10.2947 0.968318 12.6316L0.947266 35.7895C0.947266 38.1263 2.82095 40 5.15779 40H38.842C41.1788 40 43.0525 38.1263 43.0525 35.7895V12.6316C43.0525 10.2947 41.1788 8.42105 38.842 8.42105ZM28.3157 4.21053C29.4736 4.21053 30.421 5.1579 30.421 6.31579C30.421 7.47368 29.4736 8.42105 28.3157 8.42105C27.1578 8.42105 26.2104 7.47368 26.2104 6.31579C26.2104 5.1579 27.1578 4.21053 28.3157 4.21053ZM15.6841 4.21053C16.842 4.21053 17.7894 5.1579 17.7894 6.31579C17.7894 7.47368 16.842 8.42105 15.6841 8.42105C14.5262 8.42105 13.5788 7.47368 13.5788 6.31579C13.5788 5.1579 14.5262 4.21053 15.6841 4.21053ZM38.842 35.7895H5.15779V31.5789H38.842V35.7895ZM38.842 25.2632H5.15779V12.6316H15.8525L11.4736 18.5895L14.8841 21.0526L19.8946 14.2316L21.9999 11.3684L24.1052 14.2316L29.1157 21.0526L32.5262 18.5895L28.1473 12.6316H38.842V25.2632Z" fill="white"/>
</svg>
