<svg width="26" height="36" viewBox="0 0 26 36" fill="none" xmlns="http://www.w3.org/2000/svg">
<g clip-path="url(#clip0_14_36326)">
<path d="M13.5307 9.41119C15.0542 9.28178 16.4576 8.60926 17.6842 7.72412C18.316 7.26326 18.9155 6.75982 19.4788 6.21731C19.7792 5.93933 20.0642 5.6452 20.3327 5.33622C20.5881 5.03232 20.8273 4.70068 20.9463 4.31704C20.9955 4.12832 21.0341 3.93696 21.0618 3.7439C21.1023 3.53186 21.1392 3.31924 21.16 3.10431C21.2112 2.69097 21.1399 2.2717 20.9549 1.89852C20.6551 1.31555 20.101 0.911688 19.5105 0.658626C18.5433 0.244946 17.4803 0.138638 16.4397 0.0739281C15.3627 0.00864065 14.2817 -0.00291579 13.2042 0.000550801C12.0984 0.00478775 10.9929 0.0290545 9.88784 0.0733498C9.11421 0.103971 8.33827 0.135173 7.56811 0.212593C6.39736 0.331299 5.27345 0.734761 4.29449 1.38777C3.01705 2.25441 2.11747 3.59772 1.87539 5.12938C1.66566 6.45824 1.90948 8.11007 3.13203 8.89525C3.46713 9.11018 3.84903 9.20782 4.24076 9.25347C4.38 9.27022 4.4996 9.12289 4.4996 8.99463C4.4996 8.84094 4.38 8.75197 4.24076 8.73579C4.04618 8.71298 3.8552 8.66601 3.67224 8.59597C3.66819 8.59597 3.61446 8.57112 3.65375 8.58846L3.60695 8.5665C3.57171 8.54975 3.53762 8.53242 3.50353 8.51335C3.43652 8.47629 3.37171 8.43539 3.3094 8.39087C3.30131 8.38509 3.2574 8.35273 3.29091 8.37757C3.27705 8.36775 3.26434 8.35678 3.25105 8.3458C3.22505 8.32442 3.19963 8.30246 3.17421 8.27935C3.11643 8.22793 3.06443 8.17362 3.01359 8.117C2.97097 8.07003 2.93086 8.02085 2.89341 7.96967C2.84835 7.9067 2.80559 7.84141 2.76572 7.77497C2.72586 7.70852 2.69235 7.64612 2.65942 7.57968C2.64208 7.54444 2.62475 7.5092 2.60857 7.4728C2.60164 7.45662 2.59413 7.44101 2.58719 7.42484C2.60106 7.45661 2.58257 7.41213 2.57795 7.40058C2.52023 7.25601 2.47217 7.10778 2.43409 6.95685C2.41444 6.87943 2.39653 6.80085 2.38151 6.7217C2.37516 6.68646 2.3688 6.65179 2.36302 6.61654C2.36302 6.59863 2.35782 6.5813 2.35493 6.56339C2.34164 6.47788 2.36013 6.61308 2.35031 6.52699C2.33163 6.36703 2.32161 6.20618 2.32027 6.04513C2.31777 5.33441 2.46537 4.63116 2.75341 3.98141C3.04144 3.33166 3.46343 2.75005 3.99174 2.27463C4.24855 2.04501 4.52677 1.84051 4.82257 1.66394C5.11803 1.48571 5.42714 1.33115 5.747 1.20173C6.07651 1.07041 6.41474 0.962108 6.75924 0.877602C6.93604 0.834269 7.11399 0.796137 7.2931 0.762049L7.3399 0.754538C7.37514 0.74876 7.441 0.741827 7.34336 0.754538C7.99046 0.67885 8.64218 0.646493 9.29274 0.615294C10.3231 0.566762 11.354 0.536528 12.3855 0.524588C13.4717 0.510144 14.5579 0.512454 15.643 0.55232C16.1052 0.569653 16.5639 0.593342 17.0232 0.633208C17.2168 0.649963 17.4103 0.669604 17.601 0.694448C17.6386 0.699648 17.6588 0.697914 17.6062 0.694448C17.6281 0.696199 17.6499 0.699093 17.6715 0.703116L17.7969 0.722179C17.9471 0.746445 18.0967 0.774182 18.2458 0.805381C18.5571 0.869744 18.8629 0.958214 19.1604 1.07L19.2713 1.11391C19.2901 1.12385 19.3094 1.13272 19.3291 1.14048C19.4008 1.17284 19.4712 1.2075 19.5406 1.2439C19.6766 1.31636 19.8074 1.39802 19.9323 1.4883C19.9739 1.51834 19.9491 1.50101 19.9404 1.49408C19.9537 1.5039 19.9664 1.51487 19.9797 1.52527C20.0091 1.54896 20.0375 1.57381 20.0658 1.59865C20.1235 1.65181 20.1813 1.70727 20.235 1.76621C20.2576 1.79047 20.279 1.81589 20.3003 1.84131L20.3321 1.8806C20.3073 1.8494 20.3321 1.8806 20.3373 1.88811C20.3812 1.94993 20.4234 2.01291 20.461 2.07878C20.6464 2.40233 20.6747 2.7357 20.6383 3.102C20.6204 3.28399 20.584 3.47003 20.5488 3.65434C20.5224 3.83495 20.4852 4.0138 20.4373 4.18993C20.3408 4.49037 20.1079 4.8012 19.882 5.05658C19.372 5.62282 18.8202 6.15006 18.2314 6.63388C17.1434 7.55079 15.8966 8.35793 14.5117 8.7173C14.1883 8.80308 13.8582 8.86107 13.5249 8.89063C13.4567 8.89224 13.3918 8.92003 13.3436 8.96823C13.2954 9.01643 13.2677 9.08133 13.266 9.14947C13.266 9.28005 13.3851 9.41987 13.5249 9.40831L13.5307 9.41119Z" fill="white"/>
<path d="M6.78756 9.21248C7.96852 9.14893 9.14947 9.05359 10.3316 9.14257C10.5049 9.15528 10.6782 9.17204 10.8516 9.19168L10.9879 9.20786L11.0497 9.21594C11.0601 9.21594 11.1318 9.22693 11.0804 9.21941L11.3525 9.25812C11.4199 9.27402 11.4908 9.26478 11.5518 9.23212C11.6098 9.19762 11.6524 9.14221 11.6708 9.07729C11.6992 8.9548 11.6333 8.77916 11.49 8.75894C10.8572 8.6628 10.2191 8.60606 9.57933 8.58907C9.00156 8.57693 8.4238 8.60178 7.84603 8.63414C7.49301 8.65378 7.14 8.67573 6.78698 8.69191C6.65179 8.69942 6.52121 8.80746 6.52757 8.95075C6.53392 9.08537 6.64312 9.21768 6.78698 9.21017L6.78756 9.21248Z" fill="white"/>
<path d="M3.71833 32.0086C3.5058 31.6804 3.31734 31.3373 3.15443 30.9819C3.13537 30.9397 3.1163 30.8981 3.09666 30.856C3.07701 30.8138 3.06777 30.7889 3.05795 30.7652C3.01981 30.6716 2.98226 30.5781 2.94702 30.4833C2.88115 30.3073 2.82068 30.1289 2.7656 29.9483C2.65466 29.5819 2.564 29.2096 2.49405 28.8332C2.42315 28.4618 2.37089 28.0872 2.33747 27.7106C2.26946 27.051 2.32651 26.3846 2.5056 25.7462C2.55125 25.5827 2.6044 25.4209 2.66622 25.2626C2.68067 25.225 2.69569 25.1875 2.71129 25.1505C2.70724 25.1603 2.6928 25.1927 2.71129 25.1459C2.72111 25.1239 2.73035 25.1014 2.74075 25.0794C2.77369 25.0067 2.80893 24.9344 2.84533 24.8628C2.92263 24.7136 3.00827 24.569 3.10186 24.4295C3.14635 24.363 3.19257 24.2983 3.24052 24.2348C3.28848 24.1712 3.20932 24.2723 3.25901 24.2116C3.26883 24.1989 3.27865 24.1862 3.28905 24.1741C3.3191 24.1371 3.3503 24.1001 3.3815 24.0643C3.49239 23.9376 3.61147 23.8184 3.73798 23.7073C3.86237 23.596 3.9957 23.4951 4.13664 23.4057C4.2912 23.3058 4.45174 23.2155 4.61734 23.1353C4.7754 23.0581 4.93851 22.9917 5.10555 22.9365C5.46619 22.8141 5.83792 22.7273 6.21544 22.6771C6.20388 22.6771 6.17384 22.6823 6.22757 22.6771L6.30846 22.6673L6.44308 22.6534C6.5517 22.6436 6.66032 22.6355 6.76894 22.6303C6.98386 22.6193 7.19879 22.617 7.4143 22.6216C8.27402 22.639 9.13027 22.7574 9.96398 22.8776C10.7819 22.9858 11.5924 23.1448 12.3906 23.3537C13.1371 23.5582 13.8258 23.8159 14.4931 24.1931C14.6437 24.2787 14.7918 24.3698 14.9374 24.4664C15.0027 24.5098 15.0674 24.5543 15.1315 24.6005C15.165 24.6242 15.1985 24.6484 15.2315 24.6733L15.2812 24.7103L15.3072 24.7305C15.5803 24.942 15.8351 25.1762 16.0687 25.4307C16.1264 25.4914 16.1779 25.5526 16.2304 25.615C16.2564 25.6468 16.2824 25.678 16.3078 25.7098L16.346 25.7577C16.357 25.7722 16.3558 25.771 16.3425 25.7537L16.372 25.793C16.4724 25.9266 16.5659 26.0653 16.6522 26.2084C16.739 26.3514 16.818 26.499 16.8891 26.6504C16.9064 26.6874 16.9226 26.7249 16.9393 26.7625C16.9723 26.8364 16.9214 26.7163 16.9521 26.7914L16.9746 26.8491C17.0131 26.9512 17.0503 27.0548 17.0861 27.16C17.2095 27.5632 17.3123 27.9724 17.394 28.386C17.4853 28.806 17.5755 29.2261 17.6581 29.6478C17.8256 30.5053 17.9562 31.3315 17.9903 32.205C18.0085 32.6357 17.9981 33.0671 17.9591 33.4964C17.9427 33.6902 17.916 33.8831 17.8794 34.0741C17.862 34.1631 17.8412 34.2521 17.8152 34.3387C17.7922 34.4214 17.7611 34.5015 17.7222 34.5779C17.7014 34.6178 17.6789 34.6571 17.6546 34.6935L17.6252 34.7368C17.5812 34.8015 17.6564 34.7039 17.6049 34.7628C17.5518 34.8251 17.4938 34.883 17.4316 34.9361C17.4316 34.9361 17.3657 34.9881 17.4062 34.9575L17.3663 34.987C17.3322 35.0107 17.2976 35.0332 17.2617 35.0552C17.1824 35.1024 17.1004 35.145 17.0162 35.1829C16.9417 35.2169 17.0618 35.1661 16.985 35.1956L16.9382 35.2141C16.8989 35.2291 16.859 35.2435 16.8192 35.2568C16.7221 35.2884 16.6241 35.3163 16.5251 35.3406C16.3341 35.388 16.1401 35.4224 15.9444 35.4434C15.1096 35.5313 14.2689 35.4353 13.4364 35.3545C11.7343 35.1898 10.0639 35.0159 8.40575 34.5618C8.04002 34.4618 7.67719 34.348 7.3207 34.2186C6.96422 34.0891 6.67129 33.9684 6.32926 33.8072C5.99451 33.6494 5.66838 33.4739 5.35225 33.2814C5.19279 33.1844 5.03622 33.0832 4.88253 32.9764C4.80973 32.9263 4.73751 32.8747 4.66587 32.8215C4.63063 32.7955 4.5948 32.7689 4.55956 32.7418L4.54858 32.7337L4.47521 32.6759C4.19329 32.452 3.92618 32.2099 3.67558 31.9514C3.65166 31.9268 3.62308 31.9072 3.59152 31.8938C3.55996 31.8803 3.52604 31.8733 3.49173 31.8731C3.45742 31.8728 3.42341 31.8794 3.39167 31.8925C3.35994 31.9055 3.33111 31.9247 3.30687 31.949C3.28263 31.9733 3.26346 32.0021 3.25047 32.0339C3.23748 32.0657 3.23093 32.0997 3.23121 32.134C3.23149 32.1683 3.23858 32.2022 3.25208 32.2337C3.26559 32.2653 3.28522 32.2938 3.30985 32.3177C4.39259 33.4368 5.77634 34.2128 7.23346 34.7351C8.86103 35.3186 10.5845 35.5711 12.2958 35.7566C12.7373 35.804 13.1792 35.8473 13.6212 35.89C14.0442 35.9305 14.4671 35.9721 14.8923 35.9883C15.7283 36.02 16.6343 35.9634 17.3923 35.5746C17.7344 35.4013 18.0371 35.1285 18.2012 34.7755C18.382 34.3832 18.4323 33.9476 18.4762 33.5212C18.5652 32.6164 18.5039 31.7064 18.3803 30.8057C18.259 29.9229 18.0718 29.051 17.8828 28.1803C17.7095 27.3842 17.5084 26.599 17.074 25.8993C16.2957 24.6403 15.0316 23.7691 13.6761 23.2294C12.8881 22.9157 12.0618 22.7094 11.2299 22.5552C10.3736 22.3963 9.50697 22.2767 8.64205 22.1831C7.00467 22.0052 5.20781 22.041 3.79749 23.0064C2.57436 23.8442 1.93073 25.2562 1.81286 26.7041C1.75104 27.4587 1.85331 28.2225 1.99255 28.9632C2.13749 29.7513 2.37848 30.5188 2.71013 31.2483C2.8718 31.5991 3.05831 31.938 3.26825 32.2622C3.30288 32.3215 3.35965 32.3647 3.42607 32.3821C3.49249 32.3996 3.56312 32.3899 3.62242 32.3553C3.68173 32.3206 3.72484 32.2639 3.74229 32.1974C3.75973 32.131 3.75008 32.0604 3.71544 32.0011L3.71833 32.0086Z" fill="white"/>
<path d="M4.35295 32.6377C4.28824 32.2945 4.22237 31.9513 4.16228 31.6075C4.13051 31.4272 4.10046 31.2476 4.07215 31.0667C4.05713 30.9714 4.04326 30.8761 4.02998 30.7778C4.02651 30.7559 4.02362 30.7339 4.02073 30.712C4.01784 30.69 4.01149 30.6455 4.01784 30.6923C4.01149 30.6444 4.00513 30.5964 3.99935 30.5485C3.95313 30.177 3.91904 29.8043 3.90749 29.4299C3.90229 29.2514 3.90229 29.0729 3.90749 28.8943C3.91096 28.81 3.91616 28.7256 3.92309 28.6418C3.92656 28.602 3.93002 28.5627 3.93407 28.5228L3.941 28.4651C3.94389 28.4402 3.94793 28.3928 3.941 28.4471C3.96174 28.2681 3.9971 28.0911 4.04673 27.9179C4.07157 27.8284 4.09989 27.74 4.13282 27.6539C4.13628 27.6435 4.14033 27.6336 4.14437 27.6238C4.14842 27.614 4.1594 27.5863 4.14726 27.6157L4.15073 27.6071C4.15535 27.5978 4.15939 27.588 4.16402 27.5782C4.18289 27.5366 4.20215 27.4956 4.22179 27.4551C4.26397 27.3771 4.31366 27.3055 4.36277 27.2315C4.38357 27.1997 4.33619 27.2633 4.36277 27.2315L4.38299 27.2067L4.42286 27.1599C4.45059 27.1287 4.48063 27.1021 4.50894 27.0703C4.53725 27.0386 4.56672 27.0189 4.59214 26.9941L4.63547 26.9588C4.65801 26.9398 4.62103 26.971 4.62045 26.9704C4.61987 26.9698 4.64587 26.9513 4.64992 26.9484C4.71575 26.9014 4.78423 26.8582 4.85502 26.819C4.88796 26.8011 4.92147 26.7843 4.95498 26.7682L5.00582 26.7445L5.03182 26.7329C5.06475 26.7179 4.98791 26.7502 5.022 26.737C5.09595 26.7086 5.16991 26.6792 5.24617 26.6578C5.40401 26.6099 5.56502 26.5732 5.72803 26.548L5.7858 26.5394C5.79556 26.5392 5.80527 26.5379 5.81469 26.5353H5.79447C5.84011 26.5295 5.88633 26.5243 5.93198 26.5197C6.01344 26.5111 6.09548 26.5041 6.17753 26.4989C6.35086 26.4879 6.52418 26.4833 6.69347 26.4804C7.11639 26.4729 7.53989 26.4758 7.96455 26.496C8.17139 26.5059 8.37823 26.5197 8.58449 26.5388C8.69196 26.5484 8.79904 26.5596 8.90573 26.5723L9.05364 26.5908C9.08426 26.5948 9.05364 26.5908 9.04613 26.5908L9.0831 26.596L9.16919 26.6087C9.57508 26.6676 9.97657 26.7537 10.3709 26.8664C10.5443 26.9161 10.7176 26.9727 10.8875 27.0345C10.9712 27.0651 11.0539 27.0969 11.1365 27.1304L11.1943 27.1553L11.211 27.1622L11.3375 27.22C11.6666 27.3689 11.9826 27.5451 12.2822 27.7469C12.3556 27.7966 12.4272 27.8474 12.4983 27.9006L12.5485 27.9387C12.5572 27.9451 12.5872 27.9693 12.5485 27.9387L12.5734 27.9584C12.6092 27.9867 12.645 28.0161 12.6803 28.045C12.8187 28.1599 12.951 28.282 13.0766 28.4107C13.2019 28.5391 13.3201 28.6741 13.4308 28.8152L13.4504 28.8406C13.4504 28.8377 13.4256 28.8071 13.4429 28.8308C13.4602 28.8545 13.4735 28.8706 13.488 28.8885C13.5157 28.9261 13.5458 28.9637 13.57 29.0041C13.6213 29.0773 13.6709 29.1518 13.7191 29.2277C13.8165 29.3818 13.9069 29.5408 13.9901 29.7049C14.0311 29.7847 14.0698 29.8656 14.1056 29.9476C14.1253 29.9898 14.1437 30.0325 14.1634 30.0759L14.1767 30.1053C14.1767 30.1053 14.1599 30.066 14.1715 30.0938C14.183 30.1215 14.1905 30.14 14.1998 30.1637C14.3356 30.5017 14.4463 30.8493 14.5308 31.2037C14.5744 31.3828 14.6113 31.563 14.6418 31.7444C14.6599 31.8484 14.6761 31.9528 14.6903 32.0576C14.6845 32.0148 14.6903 32.0749 14.6938 32.0882C14.6972 32.1136 14.7001 32.1385 14.703 32.1633C14.7094 32.2176 14.7157 32.2714 14.7209 32.3257C14.8076 33.1744 14.7908 34.0307 14.7371 34.8805C14.724 35.0908 14.7086 35.3006 14.6909 35.5097C14.6912 35.5783 14.7186 35.6439 14.767 35.6924C14.8155 35.7409 14.8812 35.7683 14.9497 35.7686C15.0179 35.767 15.0829 35.7392 15.1312 35.691C15.1795 35.6428 15.2074 35.5779 15.2091 35.5097C15.279 34.639 15.3276 33.7637 15.2819 32.8901C15.2392 32.068 15.1161 31.2441 14.859 30.4635C14.6228 29.7207 14.2547 29.0265 13.7722 28.4142C13.2936 27.8312 12.7046 27.3484 12.0389 26.9935C11.35 26.6244 10.6101 26.3596 9.84344 26.2077C8.98223 26.0413 8.10676 25.9598 7.22963 25.9645C6.50338 25.9599 5.73265 25.95 5.03413 26.1846C4.69191 26.2923 4.37939 26.478 4.12126 26.7271C3.84105 27.0079 3.66252 27.3713 3.55448 27.7498C3.34937 28.4674 3.35515 29.2375 3.41581 29.9747C3.4894 30.7463 3.60221 31.5136 3.7538 32.2737C3.785 32.4408 3.81659 32.6074 3.84856 32.7734C3.86705 32.8395 3.91088 32.8955 3.9705 32.9294C4.03013 32.9633 4.10072 32.9722 4.16691 32.9543C4.23219 32.9346 4.2874 32.8906 4.32108 32.8313C4.35475 32.772 4.3643 32.7021 4.34775 32.6359L4.35295 32.6377Z" fill="white"/>
<path d="M2.59219 25.4016L2.64997 25.3583C2.60606 25.3924 2.66673 25.3456 2.67077 25.3427C2.70139 25.319 2.73259 25.2965 2.76379 25.274C2.83851 25.22 2.91439 25.168 2.99143 25.118C3.13202 25.0271 3.27608 24.9423 3.4236 24.8637C3.57035 24.7858 3.71999 24.7153 3.87252 24.6482C3.94128 24.6182 3.82457 24.6679 3.8939 24.6396L3.9355 24.6222C3.97768 24.6049 4.01985 24.5887 4.06203 24.5726C4.13945 24.5431 4.21745 24.5148 4.29314 24.4882C4.61519 24.3793 4.94432 24.2927 5.27823 24.2288C5.35295 24.2145 5.42748 24.2012 5.50182 24.1889L5.62546 24.1693L5.68324 24.1606L5.72715 24.1548C5.89297 24.1335 6.05879 24.1155 6.22518 24.1028C6.89489 24.0541 7.56754 24.0626 8.23581 24.1283C8.3972 24.1433 8.5582 24.161 8.71882 24.1814L8.78411 24.1895H8.78006L8.90948 24.208C8.98748 24.219 9.06606 24.2311 9.14406 24.2432C9.51383 24.301 9.88129 24.3726 10.247 24.4524C11.0332 24.6178 11.8035 24.8512 12.5494 25.1497L12.6245 25.1809C12.5829 25.1636 12.665 25.1983 12.6627 25.1977L12.7869 25.252C12.8822 25.2948 12.9764 25.3387 13.0706 25.3843C13.2393 25.4664 13.4062 25.5536 13.5697 25.646C13.8742 25.8172 14.1673 26.0077 14.4474 26.2163L14.5427 26.2879C14.4999 26.255 14.5618 26.303 14.5652 26.3059L14.623 26.3503C14.6912 26.4047 14.7582 26.4605 14.8241 26.5179C14.9589 26.6334 15.0891 26.7546 15.2146 26.8813C15.3402 27.008 15.4602 27.1386 15.5746 27.273C15.6254 27.3308 15.6751 27.3944 15.7237 27.4562C15.7722 27.518 15.6942 27.4163 15.741 27.4787L15.7837 27.5365C15.8121 27.5746 15.8415 27.6128 15.8669 27.6521C16.0796 27.9545 16.2639 28.276 16.4176 28.6123C16.5758 28.9679 16.7072 29.3348 16.8104 29.7101C17.2446 31.2838 17.3386 32.9319 17.086 34.5448C17.0537 34.7489 17.0152 34.9519 16.9705 35.1538C16.9427 35.2861 17.0098 35.4427 17.1513 35.4721C17.2813 35.5022 17.4402 35.4334 17.4697 35.2913C17.8314 33.5875 17.8215 31.8257 17.4408 30.126C17.2599 29.3206 16.9936 28.5216 16.5741 27.8063C16.2032 27.182 15.7325 26.6229 15.1806 26.151C13.9736 25.1076 12.4824 24.4755 10.9484 24.0872C9.56178 23.7348 8.10928 23.5095 6.67295 23.5597C5.27303 23.6071 3.8419 23.9231 2.66441 24.7089C2.51131 24.8106 2.36455 24.9209 2.22069 25.0353C2.11438 25.1203 2.12536 25.3144 2.22069 25.4016C2.33624 25.5051 2.47317 25.4924 2.58699 25.4016H2.59219Z" fill="white"/>
<path d="M16.0794 8.39864C16.4619 10.5693 16.2389 12.781 16.1233 14.9644C16.0211 16.9103 16.0193 18.9099 16.5942 20.7906C16.736 21.257 16.9157 21.7111 17.1315 22.1483C17.2731 22.4337 17.4383 22.7041 17.6013 22.9774C17.8607 23.4119 18.1172 23.8481 18.3801 24.2803C19.0647 25.4069 19.7777 26.5226 20.6004 27.5539C20.9552 27.9988 21.333 28.4356 21.7716 28.7996C22.1119 29.0815 22.5094 29.3536 22.9646 29.3814C23.059 29.3859 23.1535 29.3774 23.2454 29.3559C23.3091 29.3354 23.3623 29.2911 23.394 29.2323C23.4258 29.1735 23.4336 29.1047 23.4159 29.0402C23.3982 28.9758 23.3562 28.9207 23.2989 28.8864C23.2415 28.8521 23.1731 28.8413 23.1079 28.8562C23.0895 28.8577 23.0713 28.8612 23.0536 28.8666C23.0663 28.8469 23.1258 28.8614 23.0837 28.862C23.0744 28.862 23.0646 28.862 23.0554 28.862C23.0149 28.862 22.9756 28.862 22.9352 28.862C22.8814 28.862 23.0016 28.8752 22.9398 28.862C22.9196 28.8579 22.8999 28.855 22.882 28.8504C22.8364 28.8399 22.7915 28.8267 22.7474 28.8111C22.7289 28.8042 22.7104 28.7949 22.6896 28.7897C22.6573 28.7805 22.7526 28.8186 22.7075 28.7972L22.6827 28.7857C22.6347 28.7632 22.5874 28.7395 22.5411 28.7135C22.4496 28.661 22.3612 28.6031 22.2765 28.5401L22.2084 28.4893C22.258 28.5269 22.2084 28.4893 22.1858 28.4708C22.1367 28.4315 22.0888 28.3905 22.0408 28.3489C21.9443 28.2645 21.8507 28.1756 21.76 28.0854C21.5555 27.8815 21.3625 27.6654 21.177 27.4441C21.0759 27.3234 20.9771 27.2003 20.8795 27.0761C20.8217 27.0021 20.8321 27.0183 20.7749 26.9403C20.7177 26.8623 20.6686 26.7993 20.616 26.7283C20.4207 26.4648 20.2318 26.1961 20.0469 25.9252C19.6801 25.3873 19.3305 24.8378 18.9902 24.2832C18.7135 23.8331 18.4436 23.379 18.1738 22.9248C17.8312 22.3471 17.4944 21.7785 17.2604 21.1465C16.604 19.3698 16.5347 17.4407 16.6127 15.5676C16.7017 13.4113 16.9547 11.2447 16.7005 9.09022C16.6678 8.81251 16.6271 8.53557 16.5786 8.2594C16.5543 8.12131 16.3856 8.04389 16.2603 8.07855C16.1147 8.11842 16.0552 8.25882 16.0794 8.3969V8.39864Z" fill="white"/>
<path d="M18.4763 34.564C19.912 34.074 21.5038 33.5038 22.4785 32.2714C23.0435 31.5573 23.292 30.7114 23.3856 29.8182C23.4347 29.345 23.4433 28.8689 23.4613 28.394C23.4797 27.864 23.4971 27.334 23.5133 26.804C23.5768 24.7177 23.6161 22.6297 23.5479 20.5433C23.5144 19.5034 23.4537 18.4599 23.3561 17.4234C23.259 16.3938 23.1192 15.37 23.1377 14.3335C23.1562 13.297 23.2769 12.2466 23.2105 11.2026C23.1589 10.4319 23.0402 9.6671 22.8558 8.91698C22.8454 8.87422 22.835 8.83089 22.8234 8.78813C22.7373 8.46632 22.2375 8.60267 22.3242 8.92564C22.4615 9.45004 22.5629 9.98321 22.6275 10.5214C22.7523 11.525 22.6992 12.5228 22.6495 13.5258C22.6246 14.0366 22.6062 14.5473 22.6264 15.058C22.6466 15.5688 22.698 16.0697 22.7518 16.5735C22.8598 17.5921 22.9442 18.6113 22.9938 19.6357C23.0926 21.6867 23.0765 23.7413 23.0239 25.7935C22.9981 26.8127 22.9661 27.8319 22.928 28.851C22.8962 29.7258 22.8436 30.6421 22.4195 31.4302C21.7066 32.7533 20.2136 33.3946 18.8674 33.8805C18.6918 33.9436 18.5154 34.0051 18.3382 34.0648C18.2729 34.0844 18.2177 34.1285 18.184 34.1877C18.1503 34.247 18.1408 34.317 18.1574 34.3831C18.1762 34.449 18.2202 34.5049 18.2799 34.5387C18.3395 34.5725 18.41 34.5816 18.4763 34.564Z" fill="white"/>
<path d="M16.8883 20.8649C17.3476 21.085 17.8381 20.9989 18.3212 20.9227C18.792 20.8493 19.2623 20.7754 19.7338 20.7049C20.5334 20.5847 21.3469 20.4686 22.1026 20.1623C22.5582 19.9802 22.9829 19.7286 23.3616 19.4164C23.4661 19.3298 23.4581 19.1391 23.3616 19.0507C23.3122 19.0037 23.2466 18.9775 23.1784 18.9775C23.1102 18.9775 23.0447 19.0037 22.9953 19.0507L22.9375 19.0993C22.9242 19.1097 22.8728 19.1489 22.9126 19.1189C22.8728 19.1489 22.8329 19.1767 22.7919 19.2073C22.7093 19.2651 22.6238 19.3229 22.5371 19.3743C22.3728 19.4731 22.2022 19.5611 22.0264 19.6377L21.9888 19.6539C21.9616 19.666 22.0021 19.6487 22.0038 19.6476C21.9825 19.658 21.9605 19.6671 21.938 19.6747L21.7958 19.7284C21.7069 19.7616 21.6169 19.7918 21.526 19.8191C21.3434 19.8769 21.1586 19.9237 20.9719 19.9659C20.5854 20.0531 20.1937 20.1155 19.802 20.1751C19.3602 20.2421 18.9182 20.3099 18.476 20.3784L18.0716 20.4408C18.0138 20.4501 17.9514 20.4593 17.8907 20.4674H17.904L17.8462 20.4743L17.7561 20.4836C17.6408 20.4937 17.5248 20.4937 17.4094 20.4836H17.3892C17.4221 20.4876 17.3754 20.4836 17.3696 20.4801C17.3407 20.4755 17.3118 20.4691 17.2841 20.4622C17.2563 20.4553 17.2263 20.4466 17.2003 20.4374L17.1691 20.4258C17.2222 20.4431 17.1587 20.4212 17.15 20.4166C17.0281 20.3588 16.8646 20.379 16.7959 20.5096C16.7346 20.6251 16.7583 20.7985 16.8883 20.8638V20.8649Z" fill="white"/>
<path d="M2.85129 8.71628C2.59882 9.70184 2.40913 10.7024 2.28335 11.712C2.15219 12.7294 2.07882 13.7544 2.04588 14.7799C2.01237 15.8199 2.02104 16.8599 2.05744 17.8999C2.09384 18.9398 2.15913 19.974 2.24059 21.0088C2.32032 22.0216 2.41392 23.031 2.51619 24.0432L2.55258 24.409C2.56587 24.543 2.66178 24.6742 2.81142 24.6678C2.94026 24.662 3.08471 24.5522 3.07026 24.409C2.97031 23.4071 2.87324 22.4053 2.79005 21.4046C2.70511 20.3767 2.6352 19.3472 2.59129 18.3164C2.54738 17.2857 2.53005 16.244 2.55201 15.2081C2.57396 14.1721 2.63521 13.1506 2.75076 12.1286C2.7652 12.0038 2.78022 11.8795 2.79582 11.7548C2.80218 11.7068 2.81316 11.6201 2.81662 11.5964C2.82009 11.5728 2.8328 11.4768 2.84031 11.4231C2.87613 11.1724 2.91465 10.922 2.95586 10.672C3.04099 10.1817 3.14171 9.69444 3.25804 9.21027C3.28692 9.09125 3.31697 8.97262 3.34817 8.85437C3.36307 8.78921 3.35225 8.72081 3.31796 8.66344C3.28366 8.60606 3.22855 8.56414 3.1641 8.54641C3.09965 8.52867 3.03085 8.5365 2.97203 8.56826C2.91322 8.60001 2.86893 8.65325 2.8484 8.71686L2.85129 8.71628Z" fill="white"/>
<path d="M20.888 2.21684C21.3907 2.1712 21.8928 2.11342 22.3983 2.1088C22.5358 2.1088 22.6733 2.1088 22.8103 2.11804C22.8744 2.12151 22.9385 2.12671 23.0027 2.13307L23.0888 2.14231H23.1061H23.0882C23.1069 2.14789 23.1264 2.15081 23.146 2.15098C23.2676 2.16964 23.3879 2.19647 23.5059 2.23128C23.5637 2.24746 23.6151 2.26595 23.6683 2.28906C23.6746 2.28906 23.7226 2.31044 23.6798 2.29311C23.6371 2.27577 23.6839 2.29311 23.6902 2.29831C23.7197 2.31159 23.748 2.32604 23.7775 2.34164C23.8225 2.36547 23.8663 2.3917 23.9086 2.42021L23.9438 2.44564C23.9872 2.47626 23.8959 2.40577 23.9363 2.43986C23.9583 2.45835 23.9797 2.47626 24.0005 2.49764C24.0291 2.52471 24.0563 2.55325 24.0819 2.58315L24.1143 2.62127C24.1206 2.62936 24.1264 2.63745 24.1334 2.64554C24.0756 2.57968 24.1091 2.61377 24.1218 2.6311C24.2311 2.78277 24.3246 2.94519 24.4009 3.11584C24.4118 3.13953 24.4222 3.16322 24.4326 3.18691C24.443 3.2106 24.4558 3.25277 24.4292 3.17882C24.4326 3.18749 24.4367 3.19673 24.4402 3.20597C24.4627 3.26375 24.4846 3.31748 24.5049 3.3741C24.5459 3.48966 24.5829 3.60521 24.6146 3.72481C24.6464 3.84441 24.6753 3.96689 24.699 4.0888C24.7111 4.15235 24.7221 4.21649 24.7313 4.28004C24.7313 4.29795 24.7365 4.31586 24.7394 4.33319C24.7423 4.35053 24.7533 4.37479 24.7394 4.31817C24.748 4.35966 24.753 4.4018 24.7545 4.44413C24.7843 4.72567 24.7893 5.00929 24.7695 5.29171C24.7654 5.357 24.7591 5.42171 24.7521 5.48642C24.7521 5.50548 24.7469 5.52513 24.7446 5.54419C24.7365 5.61121 24.7539 5.48641 24.7446 5.55343C24.7383 5.59272 24.7325 5.63201 24.7261 5.66899C24.6998 5.82134 24.6653 5.97217 24.6227 6.1208C24.5805 6.26675 24.5307 6.41042 24.4737 6.55123C24.4477 6.61652 24.4962 6.50213 24.4667 6.56684C24.4581 6.5859 24.45 6.60555 24.4413 6.62461C24.4263 6.65697 24.4113 6.68932 24.3957 6.7211C24.3571 6.79814 24.3169 6.87517 24.2749 6.95221C24.2033 7.07758 24.1253 7.19949 24.0438 7.31793C24.0082 7.37292 23.9696 7.42596 23.9282 7.47682C23.9768 7.41904 23.9167 7.49068 23.9046 7.5057C23.8797 7.53633 23.8543 7.56695 23.8283 7.59642C23.7511 7.68625 23.6691 7.77187 23.5827 7.85294C23.5411 7.89165 23.499 7.92921 23.4551 7.96503C23.436 7.98121 23.4158 7.99681 23.3973 8.01298C23.3545 8.04765 23.4464 7.97658 23.4019 8.00951L23.3539 8.04476C23.2659 8.10783 23.1743 8.16571 23.0795 8.21809C23.0321 8.24466 22.9842 8.26893 22.9356 8.29262L22.8692 8.32382L22.8288 8.34173C22.7866 8.36022 22.8865 8.31688 22.8224 8.34173C22.6081 8.42637 22.3864 8.49117 22.1603 8.53529C22.1025 8.54684 22.0447 8.55724 21.9841 8.56706L21.902 8.57977L21.8518 8.58728C21.794 8.59594 21.9136 8.57919 21.8518 8.58728C21.7173 8.60384 21.5825 8.61752 21.4473 8.6283C20.7396 8.67837 20.0296 8.6909 19.3206 8.66585C18.5579 8.64428 17.7974 8.58651 17.039 8.49252L16.913 8.47693L16.8373 8.46711L16.8055 8.46306C16.7131 8.45035 16.6207 8.43764 16.5282 8.42377C16.4608 8.40787 16.3899 8.41712 16.3289 8.44977C16.2709 8.48428 16.2283 8.53969 16.2099 8.60461C16.1821 8.72768 16.2474 8.90216 16.3907 8.92296C17.9522 9.15656 19.5327 9.23763 21.1099 9.16504C21.6449 9.13904 22.1909 9.08878 22.704 8.92932C23.183 8.78229 23.6209 8.52505 23.9826 8.17822C24.4174 7.74819 24.7578 7.23225 24.9821 6.66332C25.2148 6.07245 25.3228 5.43984 25.2993 4.80523C25.2853 4.25469 25.1827 3.71 24.9954 3.19211C24.8544 2.80963 24.6666 2.3948 24.3598 2.11342C23.9554 1.73961 23.3811 1.63156 22.8484 1.5969C22.3157 1.56223 21.7714 1.60903 21.2364 1.66103L20.8898 1.69397C20.7552 1.7061 20.624 1.80432 20.6304 1.9528C20.6361 2.0828 20.7459 2.22493 20.8898 2.21164L20.888 2.21684Z" fill="white"/>
<path d="M23.6727 1.81998C22.9835 1.97771 22.4652 2.5133 22.1261 3.11244C21.743 3.78404 21.5222 4.53587 21.4813 5.30795C21.4592 5.70524 21.5147 6.10303 21.6448 6.47908C21.7765 6.84134 21.9811 7.19897 22.319 7.4035C22.6911 7.62825 23.151 7.57684 23.5133 7.35786C23.8329 7.1587 24.0825 6.86486 24.2274 6.51721C24.3795 6.16332 24.4411 5.77711 24.4065 5.39346C24.3632 4.96932 24.2388 4.55743 24.0402 4.18016C23.9946 4.09118 23.9455 4.00682 23.894 3.91843C23.8593 3.85912 23.8025 3.81604 23.736 3.79865C23.6695 3.78126 23.5989 3.79099 23.5396 3.8257C23.4803 3.8604 23.4372 3.91725 23.4198 3.98372C23.4024 4.05019 23.4121 4.12085 23.4468 4.18016C23.5431 4.33753 23.6279 4.50166 23.7005 4.67126C23.6779 4.6181 23.7068 4.68858 23.7091 4.69494C23.7178 4.71632 23.7259 4.73769 23.734 4.75907C23.7502 4.8024 23.7652 4.84574 23.7791 4.88965C23.8068 4.97689 23.8311 5.06298 23.8507 5.15484C23.8605 5.19991 23.8692 5.2444 23.8761 5.29004C23.8761 5.29813 23.8877 5.37324 23.8802 5.31142C23.8802 5.33395 23.8854 5.35706 23.8877 5.3796C23.8965 5.4679 23.9002 5.55664 23.8987 5.64537C23.8987 5.68523 23.8987 5.7251 23.8929 5.76496C23.8929 5.78461 23.8894 5.80483 23.8871 5.82274C23.8848 5.84065 23.8842 5.9019 23.8871 5.83372C23.8796 5.91345 23.8633 5.99211 23.8386 6.06829C23.8222 6.14673 23.7966 6.22296 23.7623 6.29535C23.7941 6.23758 23.7623 6.29535 23.7571 6.30633C23.7519 6.3173 23.7461 6.33059 23.7403 6.34215C23.7201 6.38375 23.6982 6.42477 23.6751 6.46463C23.6519 6.5045 23.634 6.53223 23.6121 6.56517L23.578 6.6137C23.5399 6.66801 23.6127 6.57268 23.5699 6.62352C23.5202 6.68531 23.466 6.74325 23.4076 6.79685L23.3625 6.83614C23.3134 6.88005 23.4058 6.80725 23.3492 6.84711C23.3174 6.86907 23.2856 6.8916 23.2521 6.91125C23.2186 6.93089 23.1845 6.94996 23.1499 6.96902C23.14 6.97364 23.0753 6.99849 23.1337 6.97711C23.1071 6.98693 23.0811 6.99675 23.054 7.00484C23.0138 7.01651 22.9731 7.02615 22.9321 7.03373C22.8645 7.0476 22.9898 7.03373 22.9188 7.03373H22.8772C22.8564 7.03373 22.8356 7.03373 22.8153 7.03373C22.7951 7.03373 22.7339 7.03373 22.8015 7.03373C22.7547 7.0282 22.7089 7.01655 22.6651 6.99907C22.6074 6.98116 22.7125 7.02507 22.6565 6.99907C22.6397 6.9904 22.6224 6.98231 22.6056 6.97307C22.5779 6.95747 22.5525 6.93956 22.5259 6.92223C22.4727 6.88698 22.5652 6.95863 22.5178 6.91587L22.475 6.87774C22.4421 6.84651 22.4108 6.81354 22.3814 6.77894C22.3739 6.7697 22.3289 6.72116 22.3734 6.77027C22.3608 6.75515 22.3494 6.73912 22.3393 6.72232C22.3208 6.69574 22.3029 6.66801 22.2861 6.6397C22.2694 6.61139 22.2468 6.5721 22.2283 6.53685C22.2197 6.51952 22.211 6.50219 22.2029 6.48485C22.1948 6.46752 22.1619 6.39242 22.1844 6.44673C22.1166 6.28284 22.0665 6.11221 22.0348 5.93771C22.0279 5.90189 22.0227 5.86549 22.0169 5.82909C22.0267 5.89265 22.0169 5.81927 22.0169 5.81003C22.0169 5.78807 22.0123 5.76612 22.0105 5.74358C22.0019 5.64768 21.9978 5.55119 21.9978 5.4547C21.9978 5.37208 22.0013 5.29004 22.0071 5.20799C22.0105 5.16351 22.0146 5.11844 22.0192 5.07396C22.0192 5.05142 22.0244 5.02889 22.0273 5.00636C22.0302 4.98382 22.0307 4.97689 22.0273 5.00636L22.0325 4.97285C22.0595 4.79759 22.0963 4.62398 22.1428 4.45286C22.1896 4.27953 22.2457 4.1062 22.3092 3.94038C22.3225 3.90456 22.3364 3.86932 22.3508 3.83407C22.3578 3.81616 22.3653 3.79825 22.3728 3.78092C22.345 3.84332 22.3728 3.78092 22.3768 3.77225C22.408 3.70099 22.441 3.63108 22.4756 3.56252C22.553 3.40638 22.6414 3.25597 22.7402 3.11244C22.7657 3.07546 22.7917 3.03964 22.8182 3.00382C22.8575 2.95124 22.7836 3.046 22.8246 2.99574C22.839 2.97898 22.8529 2.96165 22.8668 2.94431C22.9213 2.87902 22.9792 2.81654 23.0401 2.75712C23.0944 2.69752 23.155 2.64405 23.2209 2.59766C23.1632 2.63174 23.2157 2.6017 23.2273 2.59361C23.2388 2.58552 23.2672 2.56472 23.2851 2.55143C23.3203 2.52716 23.3567 2.50464 23.3937 2.48268C23.4307 2.46073 23.4578 2.44744 23.4907 2.43068L23.5404 2.40699L23.5739 2.39197L23.563 2.39659C23.6442 2.36578 23.7274 2.3403 23.812 2.32033C23.878 2.30157 23.9339 2.25761 23.9678 2.19793C24.0016 2.13825 24.0106 2.06765 23.9928 2.0014C23.9733 1.93603 23.9293 1.88073 23.87 1.84703C23.8107 1.81334 23.7406 1.80385 23.6745 1.82056L23.6727 1.81998Z" fill="white"/>
<path d="M2.93488 8.32353C2.93084 8.32353 2.84879 8.33566 2.90368 8.32873L2.82857 8.33798L2.67778 8.35358C2.57724 8.3634 2.47671 8.37033 2.3756 8.37496C2.17416 8.3842 1.97213 8.3842 1.76953 8.37496C1.67708 8.37033 1.58464 8.3634 1.49278 8.35473C1.44251 8.35011 1.39225 8.34491 1.34198 8.33856L1.29172 8.3322C1.26052 8.32816 1.25821 8.32816 1.28536 8.3322L1.23972 8.32585C1.16003 8.31521 1.08151 8.29722 1.00514 8.27211C0.987232 8.26633 0.947367 8.26402 0.999366 8.27211C0.980094 8.26526 0.961975 8.25552 0.945633 8.24322C0.932922 8.23513 0.890745 8.19469 0.931189 8.23456C0.909759 8.2176 0.89037 8.19821 0.873412 8.17678C0.907501 8.22993 0.856079 8.14385 0.847991 8.12767C0.837864 8.10902 0.828986 8.08972 0.821414 8.06989C0.843369 8.13056 0.821413 8.06469 0.817369 8.05487C0.787325 7.9711 0.764215 7.88443 0.740526 7.79835C0.69026 7.61288 0.648083 7.42453 0.613995 7.2356C0.598395 7.14835 0.584529 7.06227 0.571818 6.97387C0.569778 6.96515 0.568617 6.95624 0.568352 6.94729L0.559686 6.87565C0.55333 6.81787 0.547552 6.76415 0.54293 6.7081C0.526175 6.52495 0.516931 6.34006 0.515198 6.15576C0.513464 5.97145 0.51982 5.77097 0.534264 5.57799C0.541197 5.48959 0.549286 5.40466 0.559686 5.31453L0.568352 5.24288C0.577596 5.16373 0.560263 5.29489 0.571818 5.21631C0.578752 5.16836 0.585685 5.12098 0.593196 5.0736C0.650263 4.71794 0.737236 4.36773 0.85319 4.02669C0.879768 3.94812 0.910968 3.87012 0.9387 3.7927L0.979144 3.69216C1.00688 3.62514 0.957766 3.74012 0.987233 3.67426L1.0219 3.59453C1.09327 3.43658 1.17253 3.28232 1.25936 3.13231C1.34291 2.98971 1.43394 2.85162 1.53207 2.71863C1.54535 2.7013 1.55807 2.68396 1.57135 2.66721C1.53438 2.71459 1.57887 2.65796 1.58407 2.65161C1.61064 2.61752 1.63838 2.58459 1.66611 2.55166C1.72234 2.48579 1.78012 2.42185 1.83944 2.35984C1.87006 2.32864 1.90068 2.29802 1.93304 2.26913L1.98215 2.22637C2.00487 2.20789 2.00487 2.20789 1.98215 2.22637L2.01739 2.20153C2.05884 2.17321 2.10229 2.14791 2.14739 2.12584C2.10232 2.14838 2.14739 2.12585 2.15894 2.1218C2.18379 2.11256 2.20921 2.10447 2.23463 2.09753C2.28603 2.08358 2.33809 2.0722 2.39063 2.06345L2.45823 2.05304C2.52062 2.04322 2.4224 2.05709 2.48018 2.05304L2.83262 2.00798L4.17824 1.83465C4.31228 1.81731 4.44401 1.72776 4.43707 1.57581C4.4313 1.44986 4.32152 1.29848 4.17824 1.31697L2.90715 1.47875C2.49751 1.53075 2.04454 1.53652 1.70193 1.79363C1.39456 2.02473 1.14612 2.34944 0.935811 2.67068C0.736674 2.98011 0.569974 3.30925 0.438355 3.65288C0.156988 4.39001 0.00775911 5.17096 -0.00248129 5.95989C-0.00907422 6.36811 0.0191463 6.77614 0.081873 7.17955C0.111917 7.37754 0.150435 7.57417 0.197426 7.76946C0.239682 7.96758 0.301218 8.16109 0.381155 8.34722C0.4325 8.45429 0.50671 8.5488 0.598552 8.62407C0.690394 8.69934 0.797631 8.75354 0.912701 8.78285C1.14299 8.83785 1.3781 8.87016 1.61469 8.87934C2.09989 8.91329 2.58736 8.89391 3.06835 8.82157C3.20297 8.80192 3.28905 8.62455 3.24919 8.50264C3.20181 8.35589 3.07586 8.301 2.93084 8.3218L2.93488 8.32353Z" fill="white"/>
<path d="M23.5643 24.7925C23.4811 24.685 23.2846 24.6983 23.198 24.7925C23.0934 24.908 23.1096 25.0438 23.198 25.1588" fill="white"/>
<path d="M22.6847 30.8682C22.5969 30.971 22.5761 31.1351 22.6847 31.2345C22.7818 31.3234 22.9568 31.3442 23.051 31.2345" fill="white"/>
<path d="M18 20.7107C17.8979 21.2773 17.7712 21.8385 17.6198 22.3943C17.5764 22.5555 17.826 22.6254 17.87 22.4631C18.0202 21.908 18.1469 21.347 18.2501 20.78C18.2583 20.7469 18.2534 20.7119 18.2365 20.6822C18.2196 20.6526 18.1921 20.6305 18.1594 20.6206C18.1263 20.6118 18.0911 20.6163 18.0613 20.6332C18.0315 20.65 18.0095 20.6778 18 20.7107Z" fill="white"/>
<path d="M18.8396 20.822C18.6285 21.6663 18.4178 22.5104 18.2075 23.3544C18.1671 23.5161 18.4167 23.5855 18.4571 23.4231C18.6678 22.5792 18.8785 21.7351 19.0892 20.8908C19.1297 20.729 18.8801 20.6597 18.8396 20.822Z" fill="white"/>
<path d="M19.7012 20.6441C19.4593 21.5373 19.2178 22.4308 18.9767 23.3244C18.9086 23.5778 18.8402 23.8313 18.7716 24.0847C18.7283 24.2459 18.9785 24.3158 19.0218 24.1535C19.2621 23.2602 19.5033 22.3668 19.7451 21.4732C19.8133 21.2198 19.8819 20.9663 19.9508 20.7129C19.9942 20.5517 19.7446 20.4818 19.7012 20.6441Z" fill="white"/>
<path d="M20.5183 20.6443C20.3556 21.8072 20.0877 22.953 19.7181 24.0676C19.6237 24.3657 19.4986 24.6532 19.3449 24.9256C19.2605 25.07 19.4841 25.2006 19.5685 25.0567C19.8608 24.5564 20.0255 23.9878 20.1849 23.4343C20.349 22.8647 20.4877 22.2886 20.6009 21.7062C20.6653 21.3769 20.7209 21.0458 20.7679 20.7131C20.776 20.6801 20.7712 20.6452 20.7545 20.6157C20.7377 20.5861 20.7103 20.5641 20.6778 20.5542C20.6447 20.5454 20.6095 20.5499 20.5797 20.5668C20.5499 20.5836 20.5279 20.6114 20.5183 20.6443Z" fill="white"/>
<path d="M21.4424 20.2571C21.1623 21.8812 20.7986 23.4897 20.3527 25.0763C20.226 25.5273 20.0927 25.9764 19.9529 26.4236C19.9027 26.5831 20.1528 26.6513 20.2025 26.4924C20.6946 24.9193 21.1053 23.322 21.4332 21.7067C21.526 21.248 21.6123 20.7877 21.692 20.3259C21.7 20.2927 21.6951 20.2578 21.6782 20.2282C21.6614 20.1986 21.6339 20.1765 21.6013 20.1664C21.5682 20.1577 21.533 20.1623 21.5033 20.1793C21.4736 20.1963 21.4517 20.2242 21.4424 20.2571Z" fill="white"/>
<path d="M22.3746 19.9214C22.2166 20.9005 22.0312 21.8752 21.8182 22.8455C21.6052 23.8157 21.3644 24.7787 21.096 25.7343C20.9454 26.2736 20.7857 26.809 20.617 27.3405C20.5667 27.4994 20.8169 27.5676 20.8672 27.4093C21.1653 26.4629 21.4368 25.5086 21.6818 24.5464C21.9268 23.5843 22.1433 22.6161 22.3312 21.642C22.4383 21.0939 22.5359 20.5439 22.6241 19.9919C22.6321 19.9588 22.6272 19.9238 22.6103 19.8942C22.5935 19.8646 22.566 19.8425 22.5334 19.8324C22.5004 19.8237 22.4652 19.8283 22.4355 19.8453C22.4057 19.8623 22.3839 19.8902 22.3746 19.9231V19.9214Z" fill="white"/>
<path d="M23.0637 21.3657C22.9077 22.2121 22.6962 23.047 22.4599 23.8743C22.2236 24.7017 21.9601 25.5262 21.6793 26.3414C21.5326 26.7678 21.3656 27.2011 21.0796 27.5547C21.0564 27.5795 21.0435 27.6123 21.0435 27.6463C21.0435 27.6803 21.0564 27.713 21.0796 27.7378C21.104 27.762 21.1369 27.7756 21.1712 27.7756C21.2055 27.7756 21.2384 27.762 21.2628 27.7378C21.5309 27.4051 21.7077 27.0203 21.8538 26.6216C22 26.2229 22.13 25.8127 22.2583 25.4083C22.5298 24.5653 22.7835 23.7154 22.9984 22.8563C23.1139 22.3843 23.2226 21.9088 23.311 21.4304C23.3191 21.3973 23.3143 21.3624 23.2976 21.3328C23.2808 21.3031 23.2533 21.281 23.2208 21.2709C23.1877 21.2622 23.1524 21.2668 23.1226 21.2838C23.0928 21.3007 23.0708 21.3287 23.0614 21.3616L23.0637 21.3657Z" fill="white"/>
<path d="M23.1632 24.3567C22.9008 25.6079 22.4697 26.8176 21.8818 27.9528C21.8402 28.0331 21.7962 28.1128 21.7541 28.1931C21.7119 28.2734 21.683 28.3849 21.7598 28.4612C21.7754 28.4763 21.794 28.488 21.8143 28.4957C21.8346 28.5033 21.8562 28.5067 21.8779 28.5056C21.8996 28.5045 21.9208 28.499 21.9402 28.4894C21.9597 28.4797 21.977 28.4662 21.991 28.4496C22.0741 28.3618 22.0274 28.248 21.9268 28.2064C21.9102 28.2018 21.8928 28.2005 21.8756 28.2027C21.8585 28.2049 21.8419 28.2105 21.827 28.2192C21.812 28.2278 21.7989 28.2394 21.7885 28.2532C21.7781 28.267 21.7705 28.2827 21.7662 28.2994C21.7579 28.3326 21.7627 28.3676 21.7796 28.3973C21.7965 28.427 21.8242 28.4491 21.8569 28.4589L21.8656 28.4623L21.7882 28.4046L21.7916 28.4109L21.7743 28.3456V28.3543C21.7801 28.3323 21.7858 28.3104 21.7922 28.2884L21.8633 28.2509L21.9286 28.2682L21.9199 28.2624L21.9661 28.3092C21.9661 28.3202 21.9702 28.3312 21.9725 28.3428V28.3393C21.9832 28.3225 21.9927 28.3049 22.0008 28.2867C22.0158 28.259 22.0308 28.2289 22.0453 28.2035C22.0788 28.1405 22.1117 28.0776 22.1441 28.014C22.2068 27.8911 22.2681 27.7671 22.3278 27.6419C22.446 27.3931 22.5572 27.1406 22.6612 26.8845C22.8691 26.3752 23.0473 25.8544 23.195 25.3245C23.2774 25.0275 23.3504 24.728 23.414 24.4261C23.4221 24.393 23.4172 24.3581 23.4003 24.3285C23.3834 24.299 23.3559 24.277 23.3233 24.2672C23.2902 24.2583 23.2549 24.2627 23.2251 24.2796C23.1953 24.2965 23.1732 24.3244 23.1638 24.3573L23.1632 24.3567Z" fill="white"/>
<path d="M22.8358 27.3842C22.7507 27.8394 22.5632 28.2694 22.2875 28.6414C22.2703 28.6711 22.2656 28.7064 22.2742 28.7396C22.2829 28.7728 22.3042 28.8012 22.3337 28.8188C22.3636 28.8353 22.3987 28.8396 22.4318 28.8309C22.4648 28.8222 22.4932 28.8011 22.5111 28.772C22.7995 28.3812 22.9958 27.9303 23.0854 27.453C23.0935 27.4198 23.0886 27.3848 23.0718 27.3552C23.0549 27.3255 23.0273 27.3034 22.9947 27.2935C22.9616 27.2846 22.9263 27.2892 22.8966 27.3062C22.8668 27.3232 22.845 27.3512 22.8358 27.3842Z" fill="white"/>
<path d="M21.7113 20.2416C22.157 20.6757 22.6192 21.0917 23.098 21.4895C23.1226 21.5129 23.1553 21.5259 23.1892 21.5259C23.2232 21.5259 23.2559 21.5129 23.2805 21.4895C23.3047 21.4652 23.3183 21.4323 23.3183 21.398C23.3183 21.3637 23.3047 21.3307 23.2805 21.3064C22.8025 20.9089 22.3403 20.4929 21.8939 20.0584C21.7749 19.9429 21.5911 20.1249 21.7107 20.2416H21.7113Z" fill="white"/>
<path d="M20.624 20.6373C21.2262 21.2686 21.8754 21.8534 22.5658 22.3868C22.7634 22.5409 22.9643 22.6896 23.1685 22.8328C23.1982 22.8499 23.2334 22.8546 23.2665 22.8458C23.2996 22.837 23.3279 22.8156 23.3453 22.786C23.3619 22.7563 23.3664 22.7213 23.3578 22.6883C23.3492 22.6554 23.3281 22.627 23.299 22.6092C22.6004 22.1144 21.9401 21.5677 21.3237 20.9736C21.148 20.8041 20.9758 20.6308 20.8071 20.4536C20.6916 20.3329 20.509 20.516 20.624 20.6368V20.6373Z" fill="white"/>
<path d="M19.2071 20.7956C19.3429 21.0845 19.5803 21.3063 19.8097 21.5195C20.057 21.7506 20.3124 21.9713 20.5724 22.1868C21.0987 22.6219 21.6464 23.031 22.2011 23.429C22.5119 23.6526 22.8251 23.8722 23.1376 24.0923C23.1673 24.1094 23.2026 24.1142 23.2358 24.1056C23.269 24.0969 23.2974 24.0756 23.315 24.0461C23.3316 24.0163 23.336 23.9812 23.3274 23.9482C23.3188 23.9151 23.2978 23.8867 23.2688 23.8687C22.1855 23.1072 21.0981 22.3434 20.1171 21.4508C19.8623 21.2197 19.5803 20.9834 19.4307 20.665C19.4131 20.6357 19.3848 20.6144 19.3517 20.6058C19.3187 20.5972 19.2836 20.6018 19.2539 20.6188C19.2247 20.6365 19.2035 20.6648 19.1948 20.6977C19.1861 20.7307 19.1905 20.7658 19.2071 20.7956Z" fill="white"/>
<path d="M18.0162 21.1018C18.2566 21.4762 18.5807 21.7951 18.8927 22.1089C19.2047 22.4226 19.5138 22.7167 19.8385 23.0056C20.497 23.5906 21.1917 24.1336 21.9185 24.6314C22.3241 24.9091 22.7395 25.1722 23.1647 25.4206C23.3086 25.505 23.4392 25.2808 23.2953 25.197C22.5514 24.7619 21.8353 24.2809 21.1512 23.7567C20.4702 23.2336 19.823 22.668 19.2134 22.0632C19.04 21.8914 18.8698 21.7166 18.7026 21.5386C18.5315 21.364 18.3768 21.1741 18.2404 20.9712C18.1503 20.8314 17.9261 20.9608 18.0168 21.1018H18.0162Z" fill="white"/>
<path d="M17.783 22.5431C18.3035 23.1574 18.8906 23.7118 19.5337 24.1961C20.2166 24.7115 20.9619 25.135 21.6992 25.5672L23.0136 26.3379C23.1574 26.4222 23.288 26.1987 23.1441 26.1143C22.3861 25.6694 21.6229 25.2326 20.8712 24.7774C20.1682 24.3624 19.5082 23.8786 18.901 23.3329C18.5692 23.028 18.257 22.7025 17.9662 22.3582C17.9542 22.3462 17.9399 22.3367 17.9242 22.3302C17.9085 22.3237 17.8916 22.3203 17.8746 22.3203C17.8576 22.3203 17.8408 22.3237 17.8251 22.3302C17.8094 22.3367 17.7951 22.3462 17.783 22.3582C17.771 22.3703 17.7615 22.3846 17.755 22.4003C17.7485 22.416 17.7451 22.4328 17.7451 22.4498C17.7451 22.4668 17.7485 22.4837 17.755 22.4994C17.7615 22.5151 17.771 22.5294 17.783 22.5414V22.5431Z" fill="white"/>
<path d="M19.5521 25.5377C20.3832 26.2054 21.3181 26.7324 22.3196 27.0976C22.5993 27.1999 22.8841 27.2883 23.1719 27.3634C23.333 27.4061 23.403 27.156 23.2406 27.1138C22.2414 26.8523 21.292 26.4283 20.4303 25.8589C20.1911 25.701 19.96 25.5323 19.737 25.3528C19.7123 25.3294 19.6795 25.3164 19.6454 25.3164C19.6114 25.3164 19.5786 25.3294 19.5539 25.3528C19.53 25.3773 19.5166 25.4101 19.5166 25.4444C19.5166 25.4786 19.53 25.5114 19.5539 25.5359L19.5521 25.5377Z" fill="white"/>
<path d="M21.0621 27.8095C21.7317 27.9832 22.4107 28.1183 23.0958 28.2139C23.1289 28.2218 23.1636 28.2167 23.1931 28.1999C23.2226 28.1831 23.2446 28.1557 23.2547 28.1232C23.2636 28.0901 23.2592 28.0549 23.2423 28.0251C23.2254 27.9952 23.1975 27.9732 23.1646 27.9638C22.4794 27.8687 21.8003 27.7336 21.1308 27.5593C20.9696 27.5177 20.8997 27.7673 21.0621 27.8095Z" fill="white"/>
<path d="M19.4916 0.687857C19.0722 0.851766 18.6808 1.07982 18.3314 1.36385C17.8692 1.73362 17.4954 2.22529 17.1944 2.73083C16.5681 3.78121 16.2341 4.98932 16.0966 6.19743C16.0212 6.84964 16.0125 7.50785 16.0706 8.16183C16.0827 8.29645 16.181 8.42702 16.3295 8.42067C16.4594 8.41489 16.6016 8.30511 16.5883 8.16183C16.5374 7.59194 16.5374 7.01865 16.5883 6.44876C16.6004 6.30721 16.612 6.16334 16.6351 6.02294C16.6235 6.09343 16.6351 6.02699 16.6351 6.01428C16.6351 6.00157 16.6409 5.97557 16.6432 5.9565C16.6484 5.92473 16.653 5.89237 16.6582 5.86001C16.6703 5.78259 16.683 5.70517 16.6969 5.62891C16.7493 5.33964 16.815 5.05307 16.8939 4.76919C16.9722 4.48807 17.0653 4.21132 17.173 3.9401C17.1857 3.90717 17.199 3.87423 17.2123 3.84188C17.2186 3.82685 17.2244 3.81184 17.2308 3.79739L17.2348 3.78815C17.2654 3.71766 17.2966 3.64775 17.3296 3.57842C17.3885 3.45247 17.4515 3.32825 17.5185 3.20576C17.6522 2.95956 17.8028 2.72288 17.9692 2.49742C17.9801 2.48298 17.9911 2.46796 18.0027 2.45351C18.0142 2.43907 18.0529 2.40382 18.0067 2.44716C18.0274 2.42447 18.0467 2.40054 18.0645 2.37551C18.1101 2.31774 18.1575 2.25996 18.206 2.20738C18.295 2.10685 18.3875 2.00863 18.4845 1.9185C18.5521 1.85379 18.6232 1.79197 18.6966 1.73361C18.7035 1.72783 18.7595 1.6845 18.7104 1.72206L18.7607 1.6845C18.7988 1.65619 18.8375 1.62673 18.8762 1.60189C19.0021 1.51625 19.1322 1.43717 19.2662 1.365C19.3627 1.31242 19.4615 1.26389 19.5615 1.21883L19.6135 1.19629C19.6528 1.17896 19.5372 1.22691 19.5961 1.20323L19.6273 1.1911C19.7539 1.14314 19.8544 1.0143 19.8082 0.872168C19.7689 0.749104 19.6256 0.641061 19.4898 0.691327L19.4916 0.687857Z" fill="white"/>
<path d="M3.11653 3.2758C3.59096 3.13569 4.07328 3.02379 4.56094 2.9407C4.6765 2.9199 4.79436 2.90064 4.91454 2.88292L5.09827 2.85577L5.13813 2.85057H5.15604C5.12773 2.85404 5.18204 2.8471 5.18782 2.84594L5.2404 2.83959C5.48652 2.80762 5.73323 2.78028 5.98051 2.75755C6.89492 2.6705 7.81203 2.61541 8.73183 2.5923C9.62968 2.56977 10.5287 2.57902 11.4254 2.62524C11.8791 2.64912 12.3323 2.68263 12.7849 2.72577C13.0121 2.74772 13.239 2.77257 13.4655 2.8003L13.6226 2.81995L13.7076 2.83092H13.7208L13.759 2.83612C13.8672 2.85076 13.9753 2.86616 14.0831 2.88234C14.9488 3.00872 15.8049 3.19385 16.6455 3.43642C16.7466 3.46589 16.8477 3.4942 16.9482 3.52887C17.0144 3.54633 17.0848 3.53717 17.1443 3.50337C17.2038 3.46957 17.2477 3.4138 17.2666 3.34802C17.2833 3.28181 17.2738 3.21168 17.2402 3.15227C17.2065 3.09286 17.1512 3.04874 17.0857 3.0291C16.2535 2.77092 15.404 2.57206 14.5436 2.434C13.625 2.28444 12.6993 2.18147 11.7703 2.12547C10.8661 2.06769 9.95901 2.05094 9.0548 2.06769C8.1506 2.08445 7.22675 2.13298 6.31562 2.20924C5.31435 2.2936 4.31135 2.42129 3.33781 2.67724C3.21822 2.70844 3.0992 2.74253 2.98018 2.77777C2.9474 2.7868 2.91672 2.80219 2.88989 2.82308C2.86307 2.84396 2.84062 2.86993 2.82382 2.89949C2.78991 2.95919 2.7811 3.02992 2.79934 3.09612C2.81757 3.16232 2.86135 3.21856 2.92106 3.25247C2.98076 3.28639 3.05149 3.29519 3.11768 3.27696L3.11653 3.2758Z" fill="white"/>
<path d="M10.7662 11.4857C10.5004 11.586 10.2788 11.7774 10.141 12.0259C10.0179 12.2503 9.96615 12.5068 9.99256 12.7614C10.0243 13.0219 10.1283 13.2814 10.334 13.4547C10.4114 13.5171 10.4948 13.5717 10.583 13.6176C10.6033 13.6286 10.6229 13.6396 10.6408 13.6517L10.6622 13.6662C10.6963 13.6864 10.6044 13.6084 10.6391 13.6494C10.6859 13.7014 10.6027 13.5916 10.631 13.6378C10.6593 13.6841 10.6142 13.587 10.6189 13.6061C10.6217 13.6159 10.6258 13.6257 10.6287 13.6361C10.6316 13.6465 10.6327 13.6598 10.6356 13.6714C10.6443 13.7066 10.6269 13.5916 10.6304 13.6292V13.6511C10.6339 13.6858 10.635 13.721 10.6362 13.7569C10.6425 14.0238 10.6362 14.293 10.6362 14.5605C10.6362 14.5964 10.635 14.6322 10.6327 14.668C10.6327 14.6865 10.6327 14.7056 10.6287 14.7258C10.629 14.7317 10.629 14.7377 10.6287 14.7437C10.6258 14.7732 10.6287 14.7662 10.6287 14.7246C10.6215 14.7528 10.616 14.7813 10.6119 14.8101C10.6023 14.8327 10.5947 14.8561 10.5894 14.88C10.5894 14.8304 10.6148 14.8275 10.5975 14.8581C10.5929 14.8668 10.5882 14.876 10.583 14.8847C10.5778 14.8933 10.5634 14.9112 10.5559 14.9251C10.5882 14.8633 10.5911 14.8818 10.5732 14.902L10.5547 14.9234C10.5397 14.9401 10.5235 14.9563 10.5079 14.9719C10.4193 15.0568 10.3434 15.1541 10.2826 15.2608C10.1988 15.4283 10.1514 15.6116 10.1434 15.7987C10.1283 15.9762 10.1353 16.155 10.1642 16.3308C10.1982 16.5151 10.3375 16.6197 10.505 16.6775C10.8772 16.7954 11.265 16.8571 11.6554 16.8606C12.0339 16.8663 12.4124 16.8497 12.7889 16.8109C12.9675 16.7953 13.1697 16.7999 13.3089 16.6711C13.4366 16.5556 13.4522 16.3868 13.4557 16.2245C13.4609 15.9934 13.4915 15.7496 13.4557 15.5191C13.4423 15.4514 13.4132 15.3879 13.3707 15.3336C13.3283 15.2793 13.2737 15.2358 13.2113 15.2065L13.1333 15.1614C13.0819 15.1308 13.1708 15.2001 13.1281 15.1614C13.1154 15.1487 13.1021 15.1371 13.0894 15.1239C13.0894 15.1239 13.0674 15.1025 13.0663 15.0967C13.0876 15.1256 13.0905 15.1291 13.0744 15.1059C13.0674 15.0961 13.0611 15.0857 13.0547 15.0753C13.0332 15.0454 13.016 15.0125 13.0039 14.9777C13.02 15.0424 13.0079 14.9846 13.0039 14.9702C12.9998 14.9557 12.9958 14.9465 12.9917 14.9343C12.967 14.8566 12.9477 14.7773 12.934 14.6969C12.9311 14.6813 12.9282 14.6657 12.9259 14.6495C12.9236 14.6333 12.9149 14.542 12.9259 14.6397C12.9207 14.5854 12.912 14.5311 12.9062 14.4762C12.8935 14.3531 12.8837 14.2289 12.8779 14.1053C12.8715 13.9898 12.8715 13.8741 12.8779 13.7586C12.8779 13.7355 12.8849 13.7112 12.8843 13.6881C12.8843 13.6881 12.8716 13.7615 12.8797 13.7257C12.8797 13.7164 12.8831 13.7072 12.8849 13.6974C12.8901 13.6822 12.8945 13.6668 12.8981 13.6511C12.8901 13.7228 12.8675 13.7118 12.8831 13.6898C12.8612 13.7153 12.8571 13.721 12.8704 13.7072C12.8837 13.6933 12.8773 13.6979 12.8513 13.7193C12.8594 13.6985 12.9282 13.6771 12.9478 13.6685C12.9779 13.6552 13.0085 13.643 13.038 13.628C13.0897 13.6019 13.139 13.5711 13.1853 13.5362C13.3013 13.4497 13.4031 13.3456 13.4869 13.2276C13.8041 12.7851 13.7966 12.1599 13.4389 11.7457C13.3462 11.6413 13.2352 11.5547 13.1113 11.4903C13.082 11.4717 13.0492 11.4592 13.0149 11.4536C12.9806 11.448 12.9455 11.4493 12.9117 11.4575C12.878 11.4658 12.8462 11.4807 12.8183 11.5015C12.7904 11.5222 12.767 11.5484 12.7495 11.5784C12.732 11.6084 12.7206 11.6416 12.7162 11.6761C12.7118 11.7105 12.7143 11.7456 12.7237 11.779C12.7331 11.8125 12.7492 11.8437 12.7709 11.8708C12.7926 11.898 12.8196 11.9204 12.8502 11.9369C12.8797 11.9531 12.908 11.9698 12.9374 11.9883C12.9484 11.9958 12.9594 12.0057 12.9709 12.012C13.0021 12.0288 12.9218 11.9704 12.9629 12.0051C13.0039 12.0398 13.046 12.0975 13.0917 12.1345C13.0495 12.1004 13.0674 12.1004 13.0819 12.123L13.1021 12.153C13.1177 12.1771 13.1319 12.2019 13.1448 12.2275L13.157 12.2529C13.1807 12.3003 13.1356 12.1952 13.1529 12.2431C13.1622 12.2697 13.1714 12.2957 13.1789 12.3229C13.1864 12.35 13.1916 12.3772 13.1974 12.4043C13.2009 12.4228 13.1974 12.45 13.194 12.3772C13.194 12.391 13.1974 12.4049 13.1986 12.4188C13.2038 12.4745 13.2038 12.5306 13.1986 12.5863C13.1986 12.595 13.1986 12.6048 13.1957 12.6141C13.1992 12.5349 13.2003 12.5794 13.1957 12.6008C13.1911 12.6221 13.187 12.647 13.1812 12.6695C13.1755 12.692 13.1662 12.7238 13.157 12.751C13.1535 12.762 13.1489 12.7729 13.1454 12.7839C13.1252 12.8417 13.168 12.7365 13.1454 12.7839C13.1234 12.8312 13.0986 12.8772 13.0709 12.9214C13.0582 12.9416 13.0443 12.9607 13.031 12.9792C13.0004 13.0225 13.0709 12.9318 13.0362 12.9717L13.0033 13.0092C12.9698 13.0462 12.9253 13.0757 12.8935 13.1127C12.934 13.0653 12.9218 13.0913 12.9005 13.1069L12.8641 13.1317C12.8398 13.1473 12.8149 13.1618 12.7889 13.1756C12.6497 13.2479 12.5128 13.2912 12.4296 13.4402C12.3817 13.5444 12.3576 13.6579 12.3591 13.7725C12.3509 14.0001 12.3604 14.228 12.3874 14.4542C12.4117 14.6911 12.4365 14.9372 12.5261 15.1603C12.5901 15.3376 12.7066 15.4914 12.86 15.6011C12.9051 15.6317 12.9536 15.6589 13.0004 15.6843C13.0472 15.7097 12.9617 15.6514 12.9738 15.6629C12.9791 15.6674 12.9841 15.6723 12.9888 15.6774C13.0073 15.6976 12.9409 15.6074 12.9629 15.6444C12.9848 15.6814 12.9409 15.567 12.9507 15.6155C12.9507 15.6242 12.9548 15.6334 12.9571 15.6415C12.9686 15.6872 12.9501 15.5618 12.9525 15.6109C12.9525 15.6456 12.9553 15.6797 12.9553 15.7143C12.9553 15.8212 12.9507 15.9275 12.9473 16.0344C12.9473 16.1147 12.9438 16.195 12.9415 16.2759C12.9415 16.2933 12.9415 16.3106 12.9386 16.3285C12.9386 16.3834 12.9582 16.2707 12.9386 16.3181C12.9355 16.3259 12.9332 16.3341 12.9317 16.3424C12.9265 16.3834 12.9652 16.2817 12.9317 16.3308L12.9588 16.2938C12.9461 16.306 12.9496 16.3036 12.9698 16.2869C13.0085 16.2574 12.9796 16.2788 12.9698 16.2869C13.0507 16.2459 12.9785 16.2794 12.949 16.2869C12.9195 16.2944 12.9721 16.284 12.9727 16.2834C12.9732 16.2829 12.9149 16.2886 12.9085 16.2898L12.7641 16.3025C12.5798 16.3187 12.3949 16.3331 12.2094 16.3424C12.0326 16.351 11.8559 16.3551 11.6791 16.3504C11.5912 16.3504 11.5057 16.3441 11.4156 16.3372C11.3757 16.3372 11.3364 16.3308 11.2966 16.3268L11.2255 16.3187C11.1949 16.3146 11.1937 16.3146 11.2255 16.3187L11.1903 16.314C11.013 16.288 10.8381 16.2476 10.6674 16.1933C10.6506 16.1848 10.6327 16.1786 10.6142 16.1748C10.6096 16.1748 10.6795 16.1916 10.6373 16.184C10.6183 16.1806 10.5836 16.1355 10.6501 16.1973C10.6171 16.1667 10.6859 16.2551 10.6628 16.2147C10.6397 16.1742 10.6755 16.2407 10.6749 16.243C10.6733 16.229 10.67 16.2152 10.6651 16.202L10.6703 16.2378C10.6703 16.2257 10.6703 16.2129 10.6674 16.2008L10.6639 16.139C10.6599 16.0633 10.6576 15.987 10.6587 15.9079C10.6587 15.8698 10.6587 15.8316 10.6639 15.7923C10.6639 15.775 10.6668 15.7582 10.6685 15.7409C10.672 15.7114 10.6714 15.7138 10.6685 15.749C10.6685 15.7355 10.6709 15.7222 10.6755 15.7091C10.6817 15.6762 10.6896 15.6436 10.6992 15.6115C10.7049 15.5924 10.7119 15.5739 10.7177 15.5537C10.7379 15.4959 10.6992 15.5855 10.7177 15.5537C10.7361 15.5219 10.7535 15.4902 10.7725 15.4584C10.8066 15.4006 10.7396 15.4942 10.7725 15.4584L10.7957 15.4307C10.8465 15.3729 10.9049 15.3209 10.9534 15.2608C11.0286 15.1718 11.0833 15.0672 11.1134 14.9546C11.1473 14.8045 11.1616 14.6507 11.1562 14.497C11.1562 14.3433 11.1562 14.1902 11.1562 14.0348C11.1562 13.8614 11.1683 13.6846 11.1302 13.5148C11.1143 13.4499 11.0852 13.3889 11.0448 13.3357C11.0043 13.2826 10.9534 13.2383 10.895 13.2057C10.8511 13.1785 10.8049 13.156 10.7598 13.1311C10.7396 13.1196 10.7194 13.1075 10.7021 13.0942C10.6847 13.0809 10.6645 13.0526 10.7107 13.1023C10.7015 13.0924 10.6899 13.0849 10.6801 13.0757C10.6703 13.0664 10.6477 13.0451 10.6327 13.0289C10.6177 13.0127 10.616 13.0069 10.6067 12.9983C10.6529 13.041 10.6304 13.0306 10.6148 13.0087C10.5865 12.9682 10.5686 12.9237 10.5432 12.8821C10.5865 12.9538 10.5472 12.8896 10.5386 12.8636C10.5294 12.8361 10.5217 12.8082 10.5154 12.7799C10.5102 12.7573 10.5079 12.7354 10.5033 12.7134C10.5224 12.8024 10.5033 12.7186 10.5033 12.6938C10.5011 12.6412 10.5026 12.5885 10.5079 12.5361C10.5126 12.4835 10.4964 12.6019 10.5079 12.5499C10.5079 12.5384 10.512 12.5268 10.5137 12.5158C10.5189 12.4904 10.5247 12.4656 10.5316 12.4407C10.5386 12.4159 10.5449 12.3962 10.5524 12.3743C10.557 12.361 10.564 12.3477 10.5674 12.3344C10.5484 12.4089 10.5594 12.3541 10.5674 12.3344C10.5882 12.2918 10.6119 12.2506 10.6385 12.2114C10.646 12.2004 10.6564 12.1888 10.6633 12.1767C10.6304 12.2345 10.6431 12.2027 10.6581 12.1848C10.6732 12.1669 10.6963 12.1414 10.7159 12.1212C10.7356 12.101 10.7517 12.0889 10.7697 12.0727C10.8101 12.0369 10.7194 12.1073 10.7639 12.0773C10.776 12.0686 10.7881 12.06 10.8009 12.0519C10.8217 12.038 10.8433 12.0252 10.8656 12.0138C10.8835 12.0039 10.9811 11.9629 10.9014 11.9941C11.0268 11.9438 11.129 11.8208 11.0822 11.6758C11.0435 11.5544 10.8985 11.4406 10.7639 11.4949L10.7662 11.4857Z" fill="white"/>
<path d="M13.6453 7.94585C13.4004 8.6148 13.2044 9.30069 13.0589 9.99807C12.9537 10.4799 12.8734 10.9664 12.7746 11.4494C12.7625 11.5072 12.751 11.565 12.7342 11.6227C12.7296 11.6389 12.7226 11.6545 12.7186 11.6701C12.7434 11.58 12.7498 11.6043 12.7354 11.6274C12.7209 11.6505 12.7891 11.5632 12.7712 11.5812C12.941 11.5361 12.9919 11.513 12.9237 11.5107C12.974 11.5182 12.9849 11.5193 12.9572 11.5107C12.9139 11.4991 12.8694 11.4858 12.8255 11.4777C12.7105 11.4631 12.5944 11.4597 12.4788 11.4673H11.9889C11.6775 11.4673 11.366 11.472 11.0546 11.48C11.0309 11.48 11.0073 11.48 10.9841 11.48C10.9339 11.48 10.961 11.4616 11.0188 11.4876C11.0026 11.4806 10.9813 11.476 10.9645 11.4708L11.1546 11.7204C11.1569 11.6873 11.161 11.6543 11.1667 11.6216C11.1667 11.6326 11.1563 11.6984 11.1621 11.6557L11.1656 11.6285C11.169 11.6054 11.1725 11.5829 11.1754 11.5604C11.1904 11.4604 11.2066 11.361 11.2233 11.2611C11.2655 11.0092 11.3129 10.7584 11.3637 10.51C11.4764 9.92983 11.6192 9.35591 11.7913 8.79054C11.8352 8.65072 11.882 8.51148 11.934 8.37455L11.9692 8.28384L11.99 8.23415C12.0004 8.20815 11.9744 8.2694 11.9767 8.26535L11.9871 8.24109C12.0114 8.18331 12.0368 8.12958 12.0646 8.07469C12.0131 8.11455 11.9617 8.15442 11.9097 8.19371C11.9733 8.16945 12.0391 8.1498 12.1044 8.13131C12.1697 8.11282 12.2471 8.09318 12.3194 8.07758C12.3621 8.06834 12.4049 8.06024 12.4482 8.05216L12.5112 8.04176C12.5297 8.04176 12.5926 8.03194 12.5412 8.03714C12.6423 8.02674 12.7434 8.01749 12.8451 8.01633C12.8954 8.01633 12.9457 8.01634 12.9959 8.02096C13.0185 8.02096 13.041 8.02443 13.0635 8.02674L13.097 8.0302C13.0739 8.0302 13.0658 8.02558 13.0936 8.0302C13.2609 8.05687 13.4254 8.09944 13.5847 8.15731L13.6771 8.19313C13.7268 8.21278 13.6309 8.17234 13.6638 8.18736L13.6996 8.20296C13.7204 8.21278 13.7418 8.22202 13.762 8.233C13.8213 8.26763 13.892 8.27728 13.9584 8.25984C14.0248 8.24239 14.0816 8.19928 14.1162 8.13998C14.1508 8.08068 14.1605 8.01005 14.143 7.94363C14.1256 7.87721 14.0825 7.82044 14.0232 7.78581C13.6017 7.56818 13.128 7.47216 12.655 7.50848C12.3918 7.52982 12.1318 7.5802 11.8797 7.6587C11.8212 7.67335 11.7644 7.69427 11.7104 7.7211C11.6104 7.77887 11.5677 7.91465 11.5244 8.01691C11.357 8.4256 11.2205 8.84624 11.1159 9.27529C11.0003 9.71381 10.905 10.157 10.8189 10.6041C10.7473 10.9757 10.6791 11.3495 10.6363 11.7256C10.6236 11.8377 10.7259 11.9463 10.8264 11.9752C10.8891 11.9942 10.9544 12.0036 11.02 12.0029C11.2921 11.9971 11.5648 11.9919 11.8375 11.9902H12.2997H12.5724C12.6215 11.9902 12.6724 11.9902 12.7215 11.9902C12.8041 11.9856 12.6637 11.9706 12.7007 11.9844C12.7162 11.9895 12.7321 11.9937 12.7481 11.9971C12.9087 12.0416 13.0861 12.0497 13.1814 11.8856C13.2099 11.831 13.2305 11.7727 13.2426 11.7123C13.2836 11.5442 13.3114 11.3726 13.3432 11.2027C13.3928 10.9352 13.4431 10.6677 13.498 10.4008C13.6516 9.61195 13.8666 8.83635 14.1411 8.08104C14.189 7.95393 14.0879 7.79217 13.9602 7.7627C13.8943 7.74724 13.8249 7.7576 13.7663 7.79165C13.7078 7.82571 13.6645 7.88088 13.6453 7.94585Z" fill="white"/>
<path d="M10.7991 16.5989C10.806 18.2126 10.8881 19.8257 11.1417 21.4209C11.2149 21.88 11.3025 22.3365 11.4046 22.7902C11.4234 22.8561 11.4672 22.9119 11.5268 22.9458C11.5863 22.9796 11.6568 22.9887 11.7229 22.971C11.7883 22.9515 11.8436 22.9075 11.8773 22.8482C11.911 22.7889 11.9205 22.7188 11.9038 22.6527C11.8133 22.2479 11.7337 21.8407 11.6652 21.4313C11.6328 21.2349 11.6028 21.0378 11.575 20.8402C11.5716 20.8154 11.5681 20.7911 11.5652 20.7663C11.5633 20.7567 11.562 20.7471 11.5612 20.7374L11.5421 20.5901C11.53 20.4924 11.5184 20.3948 11.5069 20.2966C11.4185 19.5137 11.367 18.7268 11.341 17.9393C11.326 17.4927 11.3191 17.0461 11.3174 16.5989C11.3174 16.5299 11.29 16.4638 11.2412 16.415C11.1924 16.3663 11.1263 16.3389 11.0574 16.3389C10.9884 16.3389 10.9223 16.3663 10.8735 16.415C10.8248 16.4638 10.7974 16.5299 10.7974 16.5989H10.7991Z" fill="white"/>
<path d="M12.4644 16.5985C12.5329 17.5322 12.636 18.462 12.7735 19.388C12.9075 20.2989 13.0749 21.2041 13.2755 22.1035C13.3888 22.61 13.5124 23.114 13.6465 23.6155C13.6647 23.6817 13.7085 23.7379 13.7682 23.7718C13.8279 23.8057 13.8986 23.8146 13.9648 23.7963C14.031 23.7781 14.0873 23.7343 14.1212 23.6746C14.1551 23.6149 14.1639 23.5442 14.1457 23.478C13.9107 22.5963 13.7075 21.7069 13.5361 20.8098C13.4502 20.3573 13.3732 19.9035 13.305 19.4486C13.2877 19.3365 13.2715 19.225 13.2553 19.1129C13.2472 19.0592 13.2397 19.0055 13.2322 18.9512C13.2287 18.9263 13.2253 18.9015 13.2224 18.8766L13.2155 18.827C13.2126 18.8079 13.2108 18.7934 13.2155 18.8212C13.1854 18.5931 13.1571 18.3647 13.1305 18.1359C13.0716 17.624 13.0234 17.1114 12.9861 16.5979C12.9757 16.4633 12.874 16.3327 12.7267 16.3391C12.5949 16.3449 12.4574 16.4546 12.4678 16.5979L12.4644 16.5985Z" fill="white"/>
<path d="M10.5628 13.3858C10.5547 13.402 10.5235 13.4367 10.5501 13.413C10.5767 13.3893 10.5368 13.4257 10.5293 13.4326C10.5207 13.4385 10.5128 13.4453 10.5056 13.4528C10.5056 13.4471 10.557 13.4182 10.5195 13.4407C10.501 13.4517 10.4831 13.4638 10.4617 13.4748C10.3887 13.5131 10.3179 13.5556 10.2497 13.6019C10.1362 13.681 10.0497 13.7929 10.0018 13.9226C9.96475 14.0361 9.95099 14.156 9.96135 14.275C9.97522 14.5206 10.0082 14.7655 10.033 15.0099C10.0515 15.1977 10.0659 15.3866 10.0977 15.5727C10.1077 15.6405 10.1212 15.7078 10.1381 15.7743C10.1477 15.8092 10.1615 15.8427 10.1792 15.8743C10.2445 15.9898 10.4241 16.051 10.538 15.9679C10.6518 15.8847 10.7113 15.7367 10.631 15.6137C10.5611 15.5056 10.3941 15.4357 10.2768 15.5207L10.4074 15.4854L10.5905 15.5611C10.594 15.5611 10.6593 15.6524 10.6483 15.6576L10.6402 15.631C10.6339 15.6062 10.6287 15.5802 10.6235 15.5548C10.6125 15.5016 10.6032 15.4473 10.594 15.3936C10.5911 15.3745 10.5888 15.3554 10.5853 15.3358C10.5819 15.3161 10.5952 15.43 10.5911 15.3745C10.5911 15.345 10.5853 15.3167 10.5824 15.2861C10.5709 15.1705 10.5599 15.059 10.5484 14.9452C10.527 14.7285 10.4998 14.5119 10.4842 14.2946C10.4816 14.2492 10.4816 14.2037 10.4842 14.1583C10.483 14.1481 10.483 14.1378 10.4842 14.1277C10.4842 14.1277 10.4738 14.1768 10.4813 14.1456C10.4888 14.1144 10.4946 14.0942 10.5021 14.0682C10.5096 14.0422 10.4964 14.0855 10.4952 14.0843C10.4997 14.0752 10.5047 14.0663 10.5102 14.0578C10.5235 14.0266 10.4987 14.0774 10.4975 14.0728C10.4964 14.0682 10.5114 14.0566 10.5131 14.0549C10.528 14.0434 10.542 14.0306 10.5547 14.0167C10.5547 14.0196 10.5114 14.0456 10.5345 14.0329C10.5438 14.0274 10.5529 14.0214 10.5616 14.015C10.728 13.9081 10.9181 13.8342 11.0111 13.6452C11.0689 13.5239 11.0481 13.3564 10.9187 13.2911C10.8031 13.2292 10.6298 13.2541 10.5645 13.3841L10.5628 13.3858Z" fill="white"/>
<path d="M12.7303 13.7603L13.0221 13.9053C13.0637 13.9261 13.1059 13.9464 13.1475 13.9677C13.1648 13.977 13.1821 13.9862 13.1989 13.9966L13.2237 14.0128C13.2526 14.0307 13.1925 13.9839 13.2162 14.0088C13.2399 14.0336 13.2076 13.9926 13.2076 13.9926C13.2076 13.9926 13.2243 14.0209 13.2289 14.0296C13.2076 13.992 13.2243 14.0296 13.2289 14.0486C13.2422 14.0977 13.2289 14.0157 13.233 14.066C13.233 14.0856 13.2364 14.1052 13.2376 14.1237C13.2416 14.1947 13.2416 14.2659 13.2376 14.3369C13.2347 14.4132 13.2278 14.4895 13.2191 14.568C13.2191 14.5906 13.2139 14.6125 13.211 14.6351C13.2081 14.6576 13.211 14.6148 13.2139 14.6143C13.2108 14.6238 13.2094 14.6337 13.2099 14.6437C13.2035 14.6859 13.1966 14.7287 13.1896 14.7708C13.1613 14.9378 13.1273 15.1036 13.0885 15.2689C13.0498 15.4341 13.0065 15.6011 12.9603 15.7663C12.9454 15.8315 12.9562 15.8999 12.9905 15.9573C13.0248 16.0146 13.0799 16.0566 13.1443 16.0743C13.2088 16.092 13.2776 16.0842 13.3364 16.0524C13.3952 16.0207 13.4395 15.9675 13.46 15.9038C13.5549 15.5731 13.6321 15.2375 13.6911 14.8985C13.7247 14.7109 13.7466 14.5215 13.7564 14.3312C13.7645 14.1405 13.7663 13.9071 13.6594 13.7418C13.581 13.6321 13.4738 13.5461 13.3497 13.4934L12.9903 13.3149C12.8696 13.2542 12.7049 13.2785 12.6361 13.4073C12.5743 13.5229 12.5997 13.6962 12.7292 13.7621L12.7303 13.7603Z" fill="white"/>
<path d="M3.60169 11.5564C3.33472 11.6538 3.11081 11.8425 2.96962 12.0891C2.84355 12.3122 2.78852 12.5684 2.81189 12.8235C2.84078 13.0846 2.94246 13.3435 3.14526 13.5168C3.22295 13.5809 3.30674 13.6372 3.39543 13.6849C3.4145 13.6953 3.43299 13.7063 3.45321 13.7179C3.4613 13.7236 3.46939 13.7306 3.47805 13.7358C3.39948 13.6907 3.4301 13.6953 3.4509 13.7161C3.4717 13.7369 3.45841 13.7502 3.43067 13.6872C3.43466 13.6951 3.4393 13.7027 3.44454 13.7098C3.46939 13.7467 3.42374 13.6485 3.4301 13.6739C3.4301 13.6855 3.43703 13.6976 3.43992 13.7092C3.44281 13.7207 3.44281 13.7294 3.44512 13.7392C3.42027 13.6439 3.43876 13.6872 3.44165 13.719C3.44454 13.7508 3.44512 13.7895 3.44512 13.8247C3.44512 14.0922 3.43876 14.3609 3.43183 14.6278C3.43183 14.6694 3.43183 14.7116 3.4249 14.7532C3.4249 14.7567 3.41912 14.8069 3.4197 14.8069C3.42028 14.8069 3.4301 14.7428 3.4197 14.8029C3.41565 14.826 3.41045 14.8491 3.40468 14.8722C3.40121 14.8844 3.39774 14.8965 3.3937 14.9086C3.38965 14.9208 3.3885 14.9237 3.38561 14.9306C3.37579 14.9554 3.38041 14.945 3.3989 14.9C3.38997 14.9146 3.38206 14.9299 3.37521 14.9456C3.35903 14.9722 3.31454 15.0103 3.37521 14.9456C3.34863 14.9716 3.32494 15.0034 3.29837 15.0277C3.20655 15.112 3.12753 15.2094 3.06379 15.3165C2.97805 15.483 2.92862 15.6657 2.91877 15.8527C2.90066 16.0299 2.90512 16.2087 2.93206 16.3848C2.965 16.5709 3.10539 16.6737 3.27063 16.7315C3.63761 16.8534 4.02054 16.9205 4.4071 16.9308C4.78176 16.9428 5.15679 16.9327 5.53027 16.9008C5.69263 16.8892 5.8804 16.8967 6.02253 16.8049C6.18257 16.7003 6.21781 16.5206 6.22475 16.3427C6.23053 16.1953 6.23804 16.048 6.24381 15.9007C6.24873 15.8279 6.24873 15.755 6.24381 15.6823C6.24045 15.5801 6.20211 15.4822 6.13519 15.4049C6.09451 15.3643 6.0482 15.3296 5.99769 15.3021C5.97573 15.2894 5.95262 15.2767 5.93066 15.2628L5.91564 15.253C5.89253 15.2362 5.89542 15.2391 5.92431 15.2605C5.91449 15.2605 5.89195 15.231 5.88502 15.2241C5.87809 15.2172 5.82724 15.1773 5.87924 15.2241C5.86345 15.2067 5.85005 15.1873 5.83938 15.1663C5.82122 15.1414 5.80717 15.1137 5.79778 15.0843C5.80818 15.1455 5.8024 15.0953 5.79778 15.0773C5.79316 15.0594 5.78565 15.0415 5.77987 15.0236C5.75846 14.9514 5.74186 14.8779 5.73018 14.8035C5.72614 14.7815 5.72382 14.7596 5.71978 14.7382C5.73711 14.8387 5.72325 14.7625 5.71978 14.7382C5.71227 14.6804 5.70649 14.6226 5.70129 14.5649C5.69089 14.4435 5.6828 14.3222 5.67876 14.2009C5.67327 14.0832 5.67443 13.9654 5.68223 13.8479C5.68223 13.8282 5.688 13.808 5.68858 13.7901C5.68858 13.8831 5.68454 13.8167 5.68858 13.7901C5.69324 13.7771 5.6969 13.7638 5.69956 13.7502C5.69609 13.8161 5.66836 13.808 5.68454 13.7872C5.6932 13.7733 5.688 13.7797 5.66894 13.8068C5.68916 13.7878 5.68511 13.7895 5.6568 13.8132C5.6568 13.8045 5.78449 13.7439 5.7088 13.7826C5.74809 13.7629 5.79142 13.7491 5.83129 13.7306C5.88637 13.7052 5.93881 13.6744 5.98786 13.6387C6.10737 13.553 6.21232 13.4486 6.2987 13.3296C6.44997 13.1186 6.53413 12.8669 6.54021 12.6074C6.54529 12.3295 6.44872 12.0593 6.26866 11.8476C6.17704 11.7423 6.06726 11.6542 5.94453 11.5876C5.88523 11.5529 5.81457 11.5432 5.7481 11.5606C5.68162 11.578 5.62478 11.6211 5.59007 11.6804C5.55536 11.7397 5.54564 11.8103 5.56303 11.8768C5.58042 11.9433 5.6235 12.0001 5.6828 12.0348C5.71227 12.0516 5.74058 12.0689 5.76947 12.088C5.78045 12.0955 5.79142 12.1042 5.80298 12.1117C5.83302 12.1307 5.75445 12.0695 5.79431 12.1053C5.81742 12.1267 5.84053 12.1463 5.86191 12.1689L5.88271 12.1914C5.89947 12.2105 5.92258 12.2596 5.88907 12.196C5.91333 12.2428 5.94684 12.2833 5.97169 12.3312C5.97573 12.3393 5.9792 12.3497 5.98382 12.3572C5.94742 12.2994 5.96995 12.3237 5.97862 12.3474C5.98837 12.3737 5.99667 12.4005 6.00346 12.4277C6.0104 12.4543 6.01271 12.4855 6.0208 12.5092C5.99826 12.4318 6.0208 12.4936 6.0208 12.5236C6.02349 12.5795 6.02214 12.6355 6.01675 12.6912C6.01213 12.742 6.02715 12.6369 6.01675 12.6709C6.01675 12.6825 6.01271 12.6941 6.0104 12.7056C6.00528 12.7333 5.99872 12.7607 5.99075 12.7877C5.9844 12.8102 5.97746 12.8327 5.96937 12.8553C5.96367 12.8683 5.95866 12.8816 5.95435 12.8951C5.97169 12.8293 5.96822 12.8633 5.95782 12.8853C5.93581 12.9326 5.91032 12.9782 5.88155 13.0216C5.87404 13.0338 5.86538 13.0448 5.85729 13.0569C5.83418 13.091 5.86942 13.0413 5.87231 13.039C5.8492 13.0627 5.82956 13.0904 5.80645 13.1141C5.78333 13.1378 5.77293 13.1482 5.7556 13.1644L5.72267 13.1927C5.68454 13.2262 5.76427 13.1644 5.73596 13.1834C5.69039 13.2154 5.64292 13.2445 5.59383 13.2707C5.58014 13.2757 5.56699 13.2821 5.55454 13.2897L5.58574 13.2764L5.55223 13.2903C5.5084 13.3071 5.46557 13.3264 5.42396 13.3481C5.34244 13.3916 5.27508 13.4576 5.22984 13.5382C5.18322 13.6405 5.15899 13.7516 5.15877 13.864C5.14902 14.0924 5.15752 14.3211 5.18419 14.5481C5.20499 14.789 5.22752 15.0398 5.31939 15.2657C5.38216 15.4368 5.49413 15.5856 5.6412 15.6932C5.68685 15.725 5.73654 15.751 5.78449 15.7811C5.82031 15.8019 5.72671 15.7302 5.75387 15.7568C5.75905 15.7633 5.76485 15.7693 5.7712 15.7747C5.73307 15.7499 5.72556 15.71 5.74405 15.7429C5.76254 15.7759 5.72094 15.6632 5.7296 15.7106C5.73111 15.7213 5.73323 15.7319 5.73596 15.7424C5.71285 15.6609 5.72845 15.6788 5.73076 15.7129C5.73307 15.747 5.73076 15.7845 5.73076 15.8203C5.73076 15.9295 5.72209 16.0393 5.71747 16.1485C5.714 16.2288 5.71227 16.3091 5.70765 16.3889C5.70765 16.4218 5.68743 16.4403 5.70765 16.3848C5.70445 16.396 5.70213 16.4074 5.70071 16.4189C5.69783 16.4403 5.67645 16.4669 5.71285 16.397C5.68511 16.4507 5.75156 16.3623 5.72382 16.3883C5.69609 16.4143 5.75445 16.3658 5.75271 16.3669C5.71458 16.3923 5.75271 16.3496 5.77525 16.3594C5.77525 16.3594 5.67587 16.3796 5.73249 16.3721C5.78911 16.3646 5.72787 16.3721 5.72036 16.3721L5.64929 16.3779L5.50601 16.3883C5.32286 16.401 5.1397 16.4126 4.95598 16.4183C4.77225 16.4241 4.60585 16.4247 4.43079 16.4183C4.34412 16.4149 4.25746 16.4091 4.17079 16.401L4.05524 16.3883C3.97724 16.379 4.10782 16.397 4.0304 16.3848L3.93737 16.3704C3.76624 16.3415 3.5976 16.2994 3.43299 16.2444C3.41612 16.2364 3.39851 16.23 3.38041 16.2254C3.41565 16.2294 3.42779 16.245 3.40352 16.2335C3.37925 16.2219 3.35961 16.1942 3.41681 16.2462C3.38388 16.2161 3.45147 16.3039 3.4301 16.2635C3.46419 16.327 3.44685 16.308 3.44107 16.2849C3.43125 16.2467 3.45205 16.275 3.44107 16.3028C3.44197 16.2846 3.44061 16.2663 3.43703 16.2485C3.43703 16.2248 3.43703 16.2011 3.43414 16.1768C3.43414 16.104 3.43068 16.0312 3.43414 15.959C3.43414 15.9174 3.43761 15.8758 3.44165 15.8348C3.44165 15.8215 3.44165 15.8071 3.44627 15.7938C3.43356 15.8648 3.4509 15.7753 3.45379 15.7626C3.46072 15.7296 3.46881 15.6973 3.47863 15.6649C3.48289 15.6449 3.48968 15.6255 3.49885 15.6071C3.46419 15.6597 3.49885 15.6072 3.50521 15.5968C3.52081 15.5667 3.5393 15.539 3.55663 15.5112C3.52716 15.5604 3.56761 15.4991 3.57974 15.4852C3.63116 15.4275 3.68951 15.3784 3.73862 15.32C3.81376 15.2333 3.86934 15.1314 3.90155 15.0213C3.93926 14.8688 3.95636 14.712 3.9524 14.555C3.9524 14.4071 3.95509 14.2592 3.96049 14.1113C3.96453 13.938 3.9784 13.7548 3.94315 13.5821C3.92858 13.5164 3.90052 13.4544 3.86074 13.4001C3.82095 13.3458 3.77032 13.3003 3.71205 13.2666C3.66814 13.2383 3.62076 13.2152 3.57569 13.1886C3.55547 13.1771 3.53641 13.1638 3.51792 13.1511C3.47516 13.1228 3.56529 13.1921 3.52716 13.1586L3.50694 13.1407C3.48636 13.1228 3.46706 13.1035 3.44916 13.0829C3.44165 13.0748 3.4353 13.0656 3.42779 13.0575C3.42028 13.0494 3.4665 13.1118 3.43241 13.0621C3.41912 13.0419 3.40641 13.0211 3.39485 13.0003C3.3833 12.9795 3.35614 12.9015 3.38388 12.9841C3.36625 12.9362 3.3512 12.8874 3.33881 12.8379C3.33303 12.8113 3.33245 12.7316 3.33419 12.82C3.33419 12.7975 3.32957 12.7749 3.32841 12.7518C3.32841 12.6941 3.33246 12.6426 3.33534 12.5872C3.33072 12.6756 3.33534 12.5981 3.33939 12.5739C3.34343 12.5496 3.3521 12.5196 3.36019 12.4924C3.36828 12.4653 3.37405 12.4479 3.38214 12.426C3.39023 12.404 3.41276 12.3682 3.37694 12.4358C3.38445 12.4213 3.39023 12.4058 3.39774 12.3913C3.41982 12.3468 3.44512 12.3039 3.47343 12.263C3.48672 12.2446 3.51676 12.2226 3.46707 12.27C3.4769 12.2602 3.48556 12.2474 3.49481 12.237C3.5133 12.2157 3.53352 12.1949 3.55258 12.1746C3.57179 12.1599 3.59011 12.1441 3.60747 12.1273C3.57049 12.1729 3.57916 12.1486 3.60227 12.1325L3.63925 12.1076C3.66063 12.0943 3.682 12.0816 3.70454 12.0701L3.74556 12.0498C3.7964 12.0256 3.68778 12.073 3.74151 12.0498C3.86747 12.0019 3.96857 11.8765 3.92235 11.7315C3.88249 11.609 3.7392 11.5004 3.604 11.5507L3.60169 11.5564Z" fill="white"/>
<path d="M6.5373 8.06332C6.27714 8.7395 6.07006 9.43493 5.91794 10.1433C5.81856 10.5893 5.74923 11.0417 5.64523 11.4866C5.63946 11.5108 5.63368 11.5351 5.62674 11.5588C5.62674 11.5692 5.62039 11.579 5.6175 11.5894C5.6019 11.6414 5.6487 11.527 5.63194 11.5571L5.62501 11.5692C5.6449 11.5341 5.67383 11.505 5.70879 11.4848C5.70301 11.4848 5.69723 11.4929 5.69088 11.4964C5.64581 11.5207 5.60075 11.5455 5.55452 11.5681C5.54297 11.5738 5.53026 11.5784 5.5187 11.5848C5.5915 11.5455 5.5603 11.5704 5.54066 11.575C5.49501 11.5854 5.58746 11.575 5.58572 11.5715C5.56021 11.5683 5.53439 11.5683 5.50888 11.5715L5.2252 11.5675C5.07209 11.5675 4.9184 11.5629 4.76298 11.5617C4.46948 11.5617 4.17597 11.5577 3.88247 11.5617C3.86051 11.5617 3.83856 11.5617 3.81718 11.5617C3.7594 11.5617 3.83567 11.5617 3.853 11.5686C3.83549 11.5615 3.81754 11.5556 3.79927 11.5507L3.98936 11.8003C3.99744 11.7425 3.98011 11.8673 3.98936 11.8188C3.99224 11.7997 3.99456 11.7807 3.99744 11.761L4.01651 11.6391C4.03269 11.5409 4.05002 11.4432 4.06793 11.3456C4.11531 11.091 4.16673 10.8372 4.2222 10.5841C4.34378 10.0092 4.49458 9.44096 4.67401 8.88144C4.72023 8.74162 4.76934 8.60238 4.82365 8.46602L4.84214 8.41981L4.85023 8.40074C4.8664 8.36145 4.85023 8.40074 4.84272 8.41807C4.85543 8.38976 4.86698 8.3603 4.87969 8.33314C4.90511 8.27536 4.93227 8.22163 4.96058 8.16674L4.80574 8.28576C4.86987 8.26265 4.93574 8.24416 5.0016 8.22798C5.06747 8.21181 5.14489 8.19216 5.21711 8.17772C5.25986 8.16905 5.3032 8.16154 5.34595 8.15461L5.38582 8.14825H5.39506L5.43955 8.14305C5.54065 8.13189 5.64231 8.12649 5.74403 8.12688C5.7943 8.12688 5.84456 8.12687 5.89425 8.13381L5.96185 8.14074C5.99247 8.14074 5.95203 8.14074 5.94856 8.14074L5.99189 8.14767C6.15893 8.17602 6.32269 8.22112 6.48068 8.2823L6.52922 8.30136L6.54828 8.30887C6.57832 8.32043 6.49455 8.28518 6.52228 8.29789L6.59508 8.33083C6.6153 8.34065 6.6361 8.35047 6.65632 8.36145C6.71563 8.39616 6.78629 8.40588 6.85276 8.38849C6.91923 8.3711 6.97608 8.32802 7.01078 8.26871C7.04549 8.20941 7.05522 8.13875 7.03783 8.07228C7.02044 8.00581 6.97735 7.94897 6.91805 7.91426C6.49984 7.6901 6.02759 7.58648 5.55395 7.61498C5.29035 7.63235 5.02952 7.67906 4.77627 7.75422C4.71753 7.76792 4.66054 7.78827 4.60641 7.81488C4.50703 7.87266 4.46139 8.00844 4.4169 8.10955C4.24599 8.51253 4.10426 8.92728 3.99282 9.35059C3.87091 9.792 3.76634 10.238 3.67216 10.6858C3.59474 11.0556 3.52194 11.4271 3.47399 11.802C3.45954 11.9176 3.56527 12.0216 3.66407 12.0516C3.72453 12.0713 3.78771 12.0812 3.85127 12.0811C4.11011 12.0811 4.37126 12.0811 4.62721 12.0811L5.05476 12.0857C5.23271 12.0857 5.41239 12.0996 5.58977 12.0932C5.71457 12.0886 5.84687 12.0118 5.9526 11.9471C6.03422 11.8976 6.09361 11.8185 6.11842 11.7264C6.15818 11.5871 6.18905 11.4454 6.21087 11.3023C6.2594 11.0515 6.30735 10.8002 6.35993 10.5512C6.51936 9.75164 6.74588 8.96695 7.03707 8.20545C7.08676 8.07892 6.98218 7.91657 6.85623 7.8871C6.79064 7.8706 6.72122 7.87962 6.66202 7.91233C6.60282 7.94504 6.55825 7.99901 6.5373 8.06332Z" fill="white"/>
<path d="M3.55919 16.6713C3.54128 18.285 3.59905 19.8981 3.82843 21.4974C3.89429 21.9596 3.9748 22.4174 4.06993 22.8707C4.08856 22.9367 4.13241 22.9926 4.192 23.0265C4.25158 23.0603 4.3221 23.0693 4.38828 23.0516C4.45357 23.0319 4.50878 22.9879 4.54246 22.9286C4.57613 22.8693 4.58568 22.7994 4.56912 22.7332C4.484 22.3269 4.41082 21.9186 4.34957 21.5084C4.33455 21.4096 4.32068 21.3102 4.30682 21.2114C4.30682 21.2033 4.29988 21.1605 4.30682 21.2062C4.30335 21.1813 4.29988 21.1571 4.297 21.1322C4.28948 21.0745 4.28197 21.0167 4.27504 20.9589C4.25135 20.763 4.2294 20.5666 4.21033 20.3702C4.13349 19.5856 4.09478 18.7981 4.08091 18.01C4.07282 17.5634 4.07282 17.1168 4.08091 16.6702C4.08091 16.6012 4.05352 16.5351 4.00476 16.4863C3.956 16.4375 3.88987 16.4102 3.82092 16.4102C3.75196 16.4102 3.68583 16.4375 3.63707 16.4863C3.58831 16.5351 3.56092 16.6012 3.56092 16.6702L3.55919 16.6713Z" fill="white"/>
<path d="M5.22302 16.6971C5.22302 17.4921 5.24671 18.2866 5.30506 19.0793C5.35937 19.8159 5.44488 20.5503 5.55524 21.2806C5.61609 21.695 5.68504 22.1087 5.76208 22.5216C5.7807 22.5877 5.82464 22.6437 5.88436 22.6776C5.94407 22.7115 6.01474 22.7204 6.081 22.7024C6.14613 22.6825 6.20116 22.6385 6.23479 22.5793C6.26843 22.5201 6.27811 22.4502 6.26184 22.3841C6.19444 22.0212 6.13204 21.6578 6.07465 21.2938C6.04749 21.1205 6.02149 20.9408 5.99723 20.7646L5.98856 20.7011C5.98452 20.6704 5.98856 20.7143 5.98856 20.7172C5.98856 20.7063 5.98567 20.6959 5.98394 20.6855C5.97816 20.6398 5.97238 20.5942 5.96603 20.5479C5.95505 20.4601 5.94407 20.3746 5.93367 20.2839C5.84739 19.5521 5.78962 18.8179 5.76034 18.0815C5.74224 17.6193 5.73357 17.1586 5.73434 16.6994C5.73434 16.6305 5.70695 16.5644 5.65819 16.5156C5.60944 16.4668 5.5433 16.4395 5.47435 16.4395C5.4054 16.4395 5.33926 16.4668 5.29051 16.5156C5.24175 16.5644 5.21436 16.6305 5.21436 16.6994L5.22302 16.6971Z" fill="white"/>
<path d="M3.37 13.4538C3.36538 13.4631 3.3596 13.4723 3.35498 13.4815C3.33938 13.5133 3.34516 13.4671 3.36769 13.4665C3.35366 13.4782 3.3407 13.4912 3.32898 13.5052C3.31222 13.5237 3.34805 13.4885 3.35093 13.4891C3.34164 13.4944 3.33276 13.5003 3.32436 13.507C3.30645 13.5185 3.28796 13.5295 3.26658 13.5405C3.19274 13.5774 3.12116 13.6187 3.05223 13.6641C2.93682 13.7436 2.84883 13.8568 2.80032 13.9882C2.76374 14.0978 2.74901 14.2134 2.75699 14.3285C2.76623 14.5718 2.7957 14.8156 2.81477 15.0577C2.83094 15.2507 2.84365 15.443 2.87254 15.6354C2.88294 15.7013 2.89276 15.7683 2.90894 15.833C2.9177 15.8697 2.93171 15.9049 2.95054 15.9376C3.02045 16.0532 3.19147 16.1144 3.30934 16.0312C3.4272 15.948 3.48267 15.8001 3.40236 15.677C3.33187 15.5673 3.16663 15.5037 3.04818 15.584L3.17876 15.5488L3.36133 15.625C3.3832 15.6459 3.39983 15.6716 3.40987 15.7002C3.43818 15.7689 3.41969 15.7285 3.41911 15.721C3.41853 15.7134 3.41333 15.703 3.4116 15.6944C3.40467 15.6695 3.40004 15.6435 3.39542 15.6181C3.38502 15.5603 3.37636 15.5066 3.36827 15.4511C3.36616 15.4414 3.36462 15.4316 3.36365 15.4217C3.36365 15.4275 3.37231 15.5014 3.36885 15.4592C3.36538 15.4171 3.36191 15.3772 3.35844 15.3367C3.3492 15.2212 3.33938 15.1091 3.33013 14.9953C3.31165 14.7804 3.28796 14.5649 3.27698 14.3493C3.27698 14.306 3.27698 14.2627 3.27698 14.2188C3.27698 14.1749 3.26658 14.2586 3.27698 14.2095C3.27698 14.2055 3.29489 14.1344 3.2972 14.135C3.29951 14.1356 3.27351 14.1783 3.29027 14.1529C3.29545 14.145 3.30008 14.1366 3.30414 14.1281C3.33071 14.0778 3.29894 14.1396 3.29605 14.1362C3.301 14.1296 3.30661 14.1236 3.3128 14.1182L3.32956 14.1015C3.34111 14.0894 3.35209 14.0934 3.32956 14.1015C3.30702 14.1096 3.32378 14.1055 3.33591 14.0974L3.36365 14.0801C3.53235 13.9755 3.72071 13.9039 3.81719 13.7155C3.85049 13.6559 3.8594 13.5857 3.84205 13.5197C3.82471 13.4537 3.78246 13.3969 3.72417 13.3614C3.60862 13.299 3.43529 13.3255 3.37 13.4544V13.4538Z" fill="white"/>
<path d="M5.53801 13.8612L5.8269 14.0108C5.8685 14.0322 5.9101 14.053 5.95112 14.075L6.00196 14.1044C6.00658 14.1044 6.03547 14.1258 6.00774 14.1044C5.98 14.083 6.01352 14.1125 6.01872 14.1154C6.04471 14.1333 6.00543 14.0992 6.00889 14.1004C6.01236 14.1015 6.0268 14.1304 6.03027 14.1374C6.01063 14.0969 6.02507 14.1373 6.03027 14.157C6.0424 14.2061 6.03027 14.1235 6.03027 14.1743C6.03027 14.194 6.03316 14.2136 6.03432 14.2321C6.03807 14.3031 6.03807 14.3743 6.03432 14.4453C6.02969 14.5204 6.01005 14.599 6.01178 14.6764C6.01178 14.6689 6.02045 14.6186 6.01178 14.6643C6.01178 14.6741 6.00889 14.6839 6.00716 14.6932L5.99849 14.7509C5.99156 14.7931 5.98405 14.8353 5.97654 14.8775C5.94592 15.0444 5.90836 15.2097 5.86734 15.3738C5.82632 15.5379 5.78068 15.7054 5.73156 15.8695C5.7141 15.9357 5.72325 16.0061 5.75706 16.0656C5.79086 16.1251 5.84663 16.169 5.91241 16.1878C5.97863 16.2047 6.04881 16.1953 6.10826 16.1616C6.16771 16.1279 6.21181 16.0725 6.23133 16.007C6.33121 15.6779 6.41337 15.3437 6.47746 15.0057C6.51345 14.8185 6.53795 14.6292 6.55084 14.4389C6.56182 14.2471 6.56528 14.0166 6.46013 13.849C6.38282 13.7386 6.27671 13.6515 6.15333 13.5971C6.0347 13.5351 5.91587 13.4737 5.79685 13.4128C5.73731 13.3792 5.66703 13.3702 5.60091 13.3875C5.53479 13.4049 5.47803 13.4473 5.44268 13.5058C5.3797 13.6214 5.40686 13.7947 5.5357 13.86L5.53801 13.8612Z" fill="white"/>
<path d="M4.77987 28.5447C5.17044 28.8336 5.65056 28.9798 6.11855 29.0947C6.62583 29.2195 7.13734 29.3262 7.6531 29.4148C8.71404 29.5984 9.78645 29.708 10.8626 29.743C11.4577 29.7619 12.053 29.7572 12.6485 29.7291C12.7174 29.7291 12.7835 29.7017 12.8323 29.653C12.8811 29.6042 12.9085 29.5381 12.9085 29.4691C12.9085 29.4002 12.8811 29.334 12.8323 29.2853C12.7835 29.2365 12.7174 29.2091 12.6485 29.2091C11.6043 29.258 10.558 29.2348 9.51697 29.1398C9.25543 29.1163 8.99467 29.088 8.73467 29.0549L8.6353 29.0422L8.58619 29.0358C8.59081 29.0358 8.62374 29.041 8.59312 29.0358C8.52263 29.0266 8.45272 29.0167 8.38281 29.0063C8.25532 28.9879 8.12764 28.9686 7.99976 28.9486C7.48631 28.8646 6.97615 28.7633 6.46925 28.6447C6.20638 28.5874 5.94662 28.5166 5.691 28.4326C5.63323 28.4118 5.57545 28.3899 5.51767 28.3668C5.47203 28.3483 5.50958 28.3633 5.51767 28.3668L5.46741 28.3442C5.43736 28.3309 5.40963 28.3165 5.37785 28.3021C5.26024 28.2429 5.14793 28.1737 5.04217 28.0952C4.93355 28.0138 4.74809 28.0738 4.688 28.1877C4.61636 28.3234 4.66431 28.4552 4.78102 28.5424L4.77987 28.5447Z" fill="white"/>
<path d="M5.30539 28.7458C5.11621 29.0641 4.99539 29.4183 4.95065 29.7858C4.90789 30.1169 4.90731 30.5028 5.0662 30.8055C5.10844 30.8871 5.16694 30.9591 5.23809 31.0171C5.30924 31.0751 5.39153 31.118 5.47988 31.1429C5.57464 31.1708 5.67519 31.1725 5.77082 31.1477C5.86645 31.123 5.95359 31.0728 6.02298 31.0026C6.16165 30.8518 6.18996 30.649 6.19227 30.452C6.19362 30.2698 6.17932 30.0879 6.14951 29.9083C6.08611 29.5199 5.94882 29.1472 5.74508 28.8106C5.72793 28.7812 5.70516 28.7555 5.67809 28.7349C5.65101 28.7144 5.62014 28.6993 5.58725 28.6907C5.55437 28.6821 5.5201 28.68 5.48641 28.6846C5.45272 28.6892 5.42027 28.7004 5.3909 28.7175C5.36154 28.7347 5.33584 28.7574 5.31528 28.7845C5.29471 28.8116 5.27968 28.8425 5.27104 28.8754C5.2624 28.9082 5.26033 28.9425 5.26493 28.9762C5.26954 29.0099 5.28074 29.0423 5.29788 29.0717C5.33486 29.1335 5.3701 29.1959 5.40246 29.26C5.41806 29.2907 5.4325 29.3213 5.44695 29.3519L5.46543 29.3935C5.49086 29.4513 5.45446 29.3635 5.47468 29.4155C5.52921 29.5525 5.57382 29.6932 5.60814 29.8366C5.62374 29.9031 5.63703 29.9701 5.64801 30.0371C5.6509 30.0556 5.65379 30.0747 5.6561 30.0949C5.6561 30.0851 5.65032 30.0429 5.6561 30.0949C5.66072 30.1365 5.66476 30.1775 5.66765 30.2191C5.67285 30.2873 5.67516 30.3549 5.67516 30.4231C5.67516 30.456 5.67516 30.4895 5.67516 30.5224C5.67516 30.5386 5.67228 30.5554 5.67228 30.5715C5.67228 30.5877 5.67228 30.5848 5.67574 30.5525L5.67054 30.582C5.66708 30.5981 5.66188 30.6137 5.65899 30.6299C5.6561 30.6461 5.65899 30.675 5.66477 30.6224C5.66477 30.6363 5.64859 30.6513 5.64165 30.6634C5.62548 30.694 5.68325 30.6236 5.64165 30.6634C5.64859 30.6576 5.69019 30.6351 5.65321 30.653C5.61623 30.6709 5.66939 30.6472 5.66939 30.6472C5.67632 30.6628 5.60005 30.6432 5.65494 30.6536C5.69596 30.6617 5.64454 30.6484 5.63068 30.6536C5.60179 30.6623 5.68845 30.6686 5.63934 30.6536C5.62894 30.6536 5.61681 30.6467 5.60583 30.6443C5.55152 30.6328 5.63992 30.6651 5.61046 30.6443C5.59832 30.6368 5.58503 30.6299 5.57232 30.623C5.54286 30.6068 5.57694 30.6097 5.58272 30.6316C5.57499 30.6232 5.56669 30.6153 5.55788 30.6079C5.51223 30.5681 5.5729 30.6363 5.55441 30.6079C5.54228 30.5883 5.52899 30.5692 5.51801 30.5502C5.51069 30.5391 5.50504 30.5271 5.50126 30.5144C5.5053 30.5565 5.5105 30.5398 5.5053 30.5207C5.49663 30.4878 5.48566 30.4566 5.47815 30.4231C5.47526 30.4098 5.47295 30.3965 5.47064 30.3832C5.47064 30.3832 5.45966 30.3144 5.46543 30.3572C5.47121 30.4 5.46543 30.3341 5.46543 30.3318C5.46312 30.3094 5.46139 30.2869 5.46024 30.2642C5.45156 30.1218 5.45504 29.979 5.47064 29.8372C5.47064 29.8262 5.47815 29.7864 5.47064 29.8372C5.4741 29.8147 5.47699 29.7927 5.48103 29.7702C5.48797 29.7317 5.49606 29.6912 5.5053 29.6489C5.52321 29.572 5.54459 29.4958 5.56943 29.4212C5.58272 29.382 5.59659 29.3432 5.61219 29.3057C5.61681 29.2936 5.63645 29.2479 5.61623 29.2947C5.6249 29.2739 5.63414 29.2531 5.64397 29.2329C5.67848 29.158 5.71705 29.0851 5.75952 29.0145C5.79415 28.9552 5.8038 28.8846 5.78636 28.8182C5.76891 28.7517 5.7258 28.695 5.6665 28.6603C5.6072 28.6257 5.53657 28.616 5.47015 28.6335C5.40373 28.6509 5.34696 28.6941 5.31233 28.7534L5.30539 28.7458Z" fill="white"/>
<path d="M17.436 11.7222C17.5284 12.822 17.4956 13.9288 17.3384 15.0212C17.2933 15.3294 17.2382 15.6375 17.1731 15.9457C17.139 16.108 17.3886 16.1768 17.4227 16.0144C17.6555 14.916 17.7631 13.7947 17.7434 12.672C17.7376 12.3554 17.7208 12.0365 17.6948 11.7222C17.694 11.6881 17.68 11.6557 17.656 11.6317C17.6319 11.6076 17.5995 11.5937 17.5654 11.5928C17.5311 11.5929 17.4983 11.6066 17.4741 11.6309C17.4498 11.6551 17.4361 11.6879 17.436 11.7222Z" fill="white"/>
<path d="M17.3493 16.6985C17.3027 16.9475 17.3213 17.2042 17.403 17.4438C17.4121 17.4769 17.434 17.5051 17.4638 17.522C17.4937 17.539 17.5291 17.5434 17.5622 17.5343C17.5953 17.5251 17.6234 17.5032 17.6403 17.4734C17.6573 17.4435 17.6617 17.4082 17.6526 17.3751C17.6345 17.3241 17.6197 17.272 17.6081 17.2191C17.6017 17.1908 17.5965 17.1613 17.5925 17.133C17.5861 17.0931 17.5925 17.1584 17.5925 17.118C17.5925 17.1035 17.5896 17.0891 17.5884 17.0747C17.5853 17.0206 17.5853 16.9664 17.5884 16.9123C17.5884 16.8852 17.5919 16.8586 17.5948 16.8314C17.5948 16.8256 17.5994 16.7933 17.5948 16.8164C17.5948 16.7996 17.6 16.7835 17.6029 16.7673C17.6112 16.7342 17.6065 16.6992 17.5897 16.6696C17.5729 16.6399 17.5454 16.6178 17.5128 16.6078C17.4796 16.5991 17.4443 16.6037 17.4145 16.6207C17.3847 16.6376 17.3627 16.6656 17.3533 16.6985H17.3493Z" fill="white"/>
<path d="M13.321 30.997C13.7366 31.7833 13.9558 32.6585 13.96 33.5478C13.96 33.7142 14.22 33.7148 14.2194 33.5478C14.2132 32.6128 13.9817 31.693 13.5446 30.8664C13.4666 30.7191 13.243 30.8497 13.321 30.997Z" fill="white"/>
<path d="M13.9004 34.0698V34.3691C13.9004 34.4035 13.914 34.4364 13.9383 34.4606C13.9626 34.4849 13.9955 34.4986 14.0298 34.4986C14.0641 34.4986 14.0971 34.4849 14.1213 34.4606C14.1456 34.4364 14.1592 34.4035 14.1592 34.3691V34.0698C14.1592 34.0355 14.1456 34.0026 14.1213 33.9783C14.0971 33.9541 14.0641 33.9404 14.0298 33.9404C13.9957 33.941 13.9631 33.9549 13.939 33.979C13.9148 34.0031 13.901 34.0357 13.9004 34.0698Z" fill="white"/>
<path d="M19.4839 33.1279C20.1806 32.9165 20.9398 32.6484 21.4321 32.0833C21.5718 31.9232 21.684 31.741 21.7643 31.5443C21.7734 31.5112 21.769 31.4759 21.7521 31.446C21.7352 31.4161 21.7072 31.3941 21.6742 31.3848C21.641 31.3765 21.606 31.3813 21.5763 31.3982C21.5466 31.4151 21.5245 31.4428 21.5147 31.4755C21.2536 32.107 20.5972 32.4577 19.9906 32.6888C19.8011 32.7599 19.6087 32.8223 19.4128 32.8812C19.2539 32.9292 19.3215 33.1793 19.4816 33.1308L19.4839 33.1279Z" fill="white"/>
<path d="M21.9315 31.0421L22.0078 30.8185C22.0167 30.7848 22.0122 30.7489 21.995 30.7185C21.9775 30.6901 21.9498 30.6695 21.9176 30.6608C21.8839 30.6518 21.848 30.6563 21.8177 30.6735C21.7901 30.6919 21.7697 30.7192 21.7599 30.7509L21.6836 30.975C21.6748 31.0081 21.6793 31.0434 21.6963 31.0731C21.7133 31.1029 21.7413 31.1247 21.7743 31.1339C21.8079 31.1429 21.8435 31.1383 21.8737 31.1212C21.9014 31.1029 21.9219 31.0756 21.9315 31.0438V31.0421Z" fill="white"/>
<path d="M3.35217 3.98709C3.11302 4.77442 3.03443 5.60177 3.12107 6.42005C3.12208 6.45405 3.13605 6.48639 3.1601 6.51044C3.18415 6.5345 3.21649 6.54846 3.25049 6.54948C3.28472 6.54918 3.31746 6.53544 3.34167 6.51124C3.36587 6.48703 3.37961 6.45428 3.37991 6.42005C3.29508 5.62515 3.37112 4.82132 3.6035 4.05642C3.65203 3.89638 3.40244 3.82532 3.35391 3.98709H3.35217Z" fill="white"/>
<path d="M3.29666 7.19904C3.32209 7.29842 3.34693 7.39837 3.37177 7.49774C3.38089 7.52976 3.40145 7.55732 3.42955 7.57517C3.45177 7.58817 3.47737 7.59424 3.50306 7.59261C3.52875 7.59099 3.55338 7.58174 3.57378 7.56604C3.59419 7.55035 3.60946 7.52893 3.61762 7.50451C3.62579 7.4801 3.62649 7.45381 3.61964 7.42899C3.59499 7.32885 3.56995 7.22927 3.54453 7.13028C3.53598 7.09799 3.51528 7.07025 3.48675 7.05286C3.46453 7.03987 3.43894 7.03379 3.41324 7.03541C3.38755 7.03704 3.36293 7.04629 3.34252 7.06198C3.32211 7.07768 3.30685 7.0991 3.29868 7.12351C3.29051 7.14793 3.28981 7.17423 3.29666 7.19904Z" fill="white"/>
<path d="M7.03935 21.4168C7.83261 21.1357 8.68944 21.086 9.50987 21.2735C9.67165 21.3105 9.74098 21.0609 9.57863 21.0234C8.71318 20.824 7.809 20.8737 6.9706 21.1667C6.93799 21.1766 6.91044 21.1987 6.89367 21.2284C6.87689 21.2581 6.87216 21.2931 6.88046 21.3261C6.88978 21.359 6.91165 21.387 6.94136 21.404C6.97108 21.4209 7.00626 21.4255 7.03935 21.4168Z" fill="white"/>
<path d="M10.0689 21.4942C10.2358 21.4942 10.2358 21.2354 10.0689 21.2354C9.90189 21.2354 9.90247 21.4942 10.0689 21.4942Z" fill="white"/>
</g>
<defs>
<clipPath id="clip0_14_36326">
<rect width="25.298" height="36" fill="white"/>
</clipPath>
</defs>
</svg>
