<svg width="33" height="36" viewBox="0 0 33 36" fill="none" xmlns="http://www.w3.org/2000/svg">
<path d="M16.8765 35.4375V24.75C16.8765 24.4395 16.7268 23.625 16.4163 23.625C16.1058 23.625 15.7515 23.877 15.7515 24.1875V35.4375C15.7515 35.748 16.1047 36 16.4163 36C16.728 36 16.8765 35.748 16.8765 35.4375ZM16.9788 1.75725V0.5625C16.9788 0.413316 16.9196 0.270242 16.8141 0.164752C16.7086 0.0592632 16.5655 0 16.4163 0C16.2672 0 16.1241 0.0592632 16.0186 0.164752C15.9131 0.270242 15.8538 0.413316 15.8538 0.5625V1.75725C15.8538 1.90643 15.9131 2.04951 16.0186 2.155C16.1241 2.26049 16.2672 2.31975 16.4163 2.31975C16.5655 2.31975 16.7086 2.26049 16.8141 2.155C16.9196 2.04951 16.9788 1.90643 16.9788 1.75725ZM4.37772 3.90488L0.36484 7.05263C0.250984 7.15735 0.159951 7.28444 0.0974284 7.42593C0.0349058 7.56743 0.00223747 7.72031 0.00146484 7.875C0.00146484 8.18437 0.134215 8.48475 0.399715 8.72775L4.34284 11.8159C4.68821 12.1343 5.30359 12.375 5.77496 12.375H21.3315C21.9761 12.375 22.5015 11.8541 22.5015 11.2129V4.53713C22.5015 3.89587 21.9761 3.375 21.3315 3.375H5.77496C5.30359 3.375 4.68821 3.61575 4.37772 3.90488ZM21.3765 11.2129C21.3765 11.2297 21.3562 11.25 21.3315 11.25H5.77496C5.58371 11.25 5.24509 11.1184 5.07184 10.9597L1.09384 7.90762L5.10559 4.75987C5.24621 4.63163 5.58371 4.5 5.77496 4.5L21.3765 4.53713V11.2129ZM28.2851 14.0591C27.9397 13.7407 27.3243 13.5 26.853 13.5H11.2965C10.6518 13.5 10.1265 14.0209 10.1265 14.6621V21.339C10.1265 21.9791 10.6518 22.5 11.2965 22.5H26.853C27.3243 22.5 27.9397 22.2592 28.2513 21.9701L32.2631 18.8224C32.3769 18.7176 32.468 18.5906 32.5305 18.4491C32.593 18.3076 32.6257 18.1547 32.6265 18C32.6241 17.8378 32.5874 17.6779 32.5188 17.5309C32.4501 17.3839 32.3511 17.2532 32.2282 17.1472L28.2851 14.0591ZM11.2515 14.625H26.853C27.0442 14.625 27.3828 14.7566 27.5561 14.9153L31.5341 17.9674L27.5223 21.1151C27.3288 21.2642 27.0964 21.3544 26.853 21.375H11.2515V14.625Z" fill="white"/>
</svg>
